<svg viewBox="0 0 1915 520" xmlns="http://www.w3.org/2000/svg"><g fill="#cfd8dc"><path d="m823 286.43c.07-.14.15-.28.23-.42l-.26.4z"/><path d="m1798 373.7a6.25 6.25 0 0 0 1.11.36 9.49 9.49 0 0 0 -1.11-.36z"/><path d="m1919.91 395.64-2.65-3.39c-2 6.05-2 6.05-6.34 8.41l-.43.43c.13-.15.27-.3.4-.46-.9-3 2-4.83 2.74-7.31-1.83-.88-2.93 1.33-4.54.3-.59-2.68 1.8-5.26.46-8.05-2.36 2-4.1 4.07-3.81 7.56a3.19 3.19 0 0 1 -3.77 3.56l-.45 1.31c-.12-.1-.37-.26-.36-.27.22-.39.46-.76.7-1.13-.06-.65-.15-1.88-.18-1.88-4.63.26-2.46-3.11-2.56-5-.08-1.47 1.57-3 0-4.5-2.89 1.43-1.21 6.14-5.21 6.77s-6.12 3.21-5.95 7.47c0 1.05.46 2.73-1.21 2.78s-2.66-1-2.82-2.85c-.14-1.62.47-3.44-1-5.53-1.42 4.05-2.72 7.36.46 11-3.78-1.11-5.27-4.9-8.94-4.78-.06 1.78 1.49 1.87 2.16 2.72.91 1.14 2.7 2 2 3.7-.79 2-3.41 1.7-4.33 1-4.32-3.14-13 .42-13.48-8.67a9.74 9.74 0 0 0 -1.89-.22l-.44.42c0-.09 0-.22.07-.27a1.44 1.44 0 0 1 .36-.15c2.82-5.81 8.48-3.3 13.18-4.31-4.68-2.58-10-.8-14.39-3.23-.5-1.75 2.18-3.17.47-5-2.47.72-2.47 4-5.31 5.12.73-4.49 2.62-7.94 4.09-11.55l.39-.48-.46.41c-6 1.23-2.76-6.16-6.55-6.92-.44 1.26-.92 2.61-1.4 3.95 3.86 1.27 1.24 3.72.88 5.61a7.9 7.9 0 0 1 -3.74 5.28l.87-8.85a1.76 1.76 0 0 0 2-2l-2 1.95c-3.8.08-3.64-2.52-3.43-5.11.07-.83.35-1.64.38-2.46a34.07 34.07 0 0 0 -.3-3.47c-3.26 6-3.64 12.24-8.63 16.57.57-5.33-1.35-10-.09-16.18-3.75 4-2.87 8.66-6.11 11.16-1.81-1.25.81-2.94-1-4.33-2.15 2.37-4.83 4.3-4.83 8.08 0 1.18.7 3.13-1.17 3.3s-2.37-1.55-3.06-3.23c-1.3-3.13 1.39-5.66 1-8.58a2.31 2.31 0 0 0 -2.34 1.84 73 73 0 0 0 -.83 8.85c0 .76.66 1.75-.26 2.12-.59.24-1.51-.3-2.28-.54-1.88-.57-2.72-3.48-7.27-2.1 2.55 1.81 4.26 2.87 5.76 4.17.76.66 2.39 1.38 1.52 2.67a3.29 3.29 0 0 1 -3.62 1c-2.9-.68-5.84-1.16-8.75-1.78-2.54-.54-4.66-1.71-5.76-4.27-1.41-3.32 2.7-2.86 3.61-5-2.67-.51-4.91-1.52-7.39-.4-2.25 1-2.3-.46-1.71-1.87 1.47-3.46 3.31-6.49 7.71-5.29-2.18-.92-3.91-2.71-6.65-1.62-1.77.71-2.75-.7-1.72-2.67.57-1.08 2.3-1.56 1.72-3.26-1.52-.68-2.05.73-2.9 1.34-2.26 1.63-3 .07-2.35-1.54.93-2.28-.35-4.24-.07-6.36 2.66-19.86 4.73-39.82 8.1-59.56 1.59-9.37 2.18-19.19 9.16-27.37 4-4.64 5.51-11.37 3.9-18.4a50.43 50.43 0 0 1 4-34.87c1.12-2.21 1.32-4.74 1.76-7.2 1-5.83-.12-12.1 3-17.48 3.24-5.61 6.87-11 10.21-16.54a12.56 12.56 0 0 0 1.48-9.67c-2-7.71-4-15.46-6.75-22.94-3-8.38-10.47-10-17-3.87-3.27 3.05-6 6.65-9 10-8.12 9.08-12.39 19-8.28 31.5.84 2.55 3 5.11 1.69 8.52a69.44 69.44 0 0 0 -3.06 12c-1.69 9.12-4.14 18.25-1.24 27.55.69 2.23-1 2.66-2.13 3.33-3.79 2.31-5.88 5.79-7.17 9.84-3 9.44-4.84 19-1.37 28.72a3.88 3.88 0 0 1 -.41 3.72 54.22 54.22 0 0 0 -7 17.1c-4.44 19.47-13 37.71-18.26 57-1.47 5.44-2.58 11-7.42 15.26-.38-6.17 2.45-11.93 1-17.9-2.29 4.19-2.45 9.48-6.92 12.12-1.88-1.62 3.1-6.82-3.6-5.7 3.13 2.38.56 5.33 1 8a3.05 3.05 0 0 1 -2.07 3.57 2.63 2.63 0 0 1 -2.13-.89c-1.06-1.31-2.17-3.25-.63-4.47 3.59-2.85-1-6.17.83-9 0 0-.64-.73-1-.73-2.62 0-1.82-2-1.7-3.27 1.59-17.17 3-34.36 5-51.47.93-7.82.75-16.15 5.41-23.06 9-13.28 9.67-27.23 4.06-41.86-.82-2.15-1.08-4.21.71-6 10.88-11.16 13-25.26 13.78-40 .37-7.49-.26-15.51 5.7-21.49a48.44 48.44 0 0 0 8.38-11.73c3-5.58 6.36-11.52 5.5-17.85-1.53-11.21-7-21.06-13.34-30.31-3.3-4.85-7.68-5.27-12.66-2.24-6.11 3.71-12.2 7.45-18.39 11-8 4.64-13 11.6-14.13 20.63a149.19 149.19 0 0 0 -.51 35.84 3.11 3.11 0 0 1 -1 2.66c-6.47 7.13-9.43 16-12 25-1.92 6.69-4.58 13.57-1.27 20.4 1.64 3.36.92 5.58-1.09 8-5.61 6.77-7.55 14.82-7.17 23.31.47 10.36-.27 20.11-6.15 29.27-3.39 5.27-3.7 12-4.94 18.17-3.48 17.38-10.31 33.68-16.28 50.25a9.07 9.07 0 0 1 -6.65 5.38c-1.92.25-.35-3.49-1.54-5.1-.34-.46-.4-1.25-1.51-1 .32 4 1 8.41-5.8 7.11.94-2.78 3-5.19 2.78-8.29-1.31.56-3.27 3.06-3-1 .09-1.3 0-2.61 0-3.92l-.07-.08c-6.28 2.21-2.49-5.1-5.81-6a46.08 46.08 0 0 1 -1.2 10.75c-.94 3.75-6.35-.06-6.59 4.63-1-7.45 1.28-14.3 1.49-21.79-3.64 5.21-3.29 11.92-8.2 15.9-1.32-1.23.11-3-1.48-3.78-3.09 1.67-1.87 4.63-2.21 7.14-.18 1.31.92 3.49-1.26 3.68-1.54.13-2.15-1.66-2.73-3.14-2.23-5.69 0-11.21 1.21-16.43 8.21-36.25 17-72.39 25.44-108.58 3.78-16.16 8.29-32.26 7.3-49.09-.93-15.74-7.13-29-21.3-36.7-17-9.22-36-12.33-54.69-15.88-15.76-3-31.73-4.72-47.7-6.36-14.16-1.46-28.22-3.53-42.5-4-16-.48-27.25 6.6-35.85 19.39-8.75 13-15.85 27-23.14 40.81-7.64 14.49-11.66 30.4-15.66 46.2-7.66 30.26-14.92 60.61-22.52 90.89-1.16 4.61-.57 10.67-4 13.47-3.8 3.06-9.1-1.2-13.87-1.23-.2 0-.4-.3-.69-.53l9-2.85a10 10 0 0 0 -4.11-.56c-2.44.09-6.06 1.27-7.06.12-1.92-2.19 1.81-4.49 1.85-7.12 0-.17-.43-.36-.82-.66l-5.3 6.05c1.23-5.82 3.66-9.51 5.5-13.42-2.26-.32-3.39 2.37-5.51 2.41-1-2.23.4-5-2.64-6.69.67 4.08-.3 7.62-1.34 11.12-.22.76-.59 2.25-1.93 1.46-.48-.28-.41-1.49-.58-2.28-2.64 1.83-2.65 5.48-5.27 7.52a194.48 194.48 0 0 0 2.83-23.7c-2.73 5.44-4 11.58-8.55 16.77v-6.6a1.75 1.75 0 0 0 .34-.15c.06-.05 0-.18.08-.27l-.44.41c-2.1 1.19-2.61 3.2-3 5.4s1.33 5.76-1.27 6.14c-3.36.5-2.14-3.65-3.22-5.62-.1-.18-.56-.17-1.17-.34.36 5.35-1.6 6-5.38 2.62-.2-.19-.64-.12-1-.16-1.65-1.42-.73-3-.34-4.58 4.51-18.86 10.29-37.4 13.77-56.5 1.52-8.29 4.18-16.74 1.92-25.08-5.24-19.42-13.34-37.75-26.87-52.78-9-10-16.79-11-27.3-3.83-6.57 4.47-13 9.16-19.23 14.14-7.07 5.68-15.24 10.29-20.31 18.13-10.49 16.23-11.64 34.94-13.57 53.41q-1 6.84-2 13.7c-.2 1.43.15 3.22-2.12 3.21-2.1 0-2.51-1.45-3-3.23-1.61-5.61-.92-11.14.09-16.7.24-.37.49-.74.72-1.12l-.37-.26c-.14.43-.29.87-.43 1.31-3.6.73-4.63 3.22-3.64 6.33 1.47 4.61-.3 9.39 2.36 15.13-5.46-3.9-8.51-8.58-14.68-9 .52 1 .71 1.43 1 1.83 2 3.39 10 3.35 5.93 10.29a1.91 1.91 0 0 0 .68.5c6.87 2.17 6 9.27 8.92 14a2.39 2.39 0 0 1 -.35 3.19c-.93.91-1.82.51-2.63-.19-2.7-2.36-5.38-4.74-8.54-7.53l4.13-.81c-5.43-1.44-10.75-2.64-11.75-9.4-2.53 1.23-2.58 4.43-5.28 4.8l-.48 2.16c-.12-.09-.33-.15-.37-.27a1.6 1.6 0 0 1 .75-2c-.22-3.2 2.72-5.65 2.09-8.94a1.81 1.81 0 0 0 2-2 1.63 1.63 0 0 0 .35-.17c.06-.05.06-.17.08-.27l-.44.42a1.87 1.87 0 0 0 -2 2c-4.9.71-1.52-5.22-5-6 .53 3.5-.76 6.65-1.16 9.94a2.32 2.32 0 0 1 -2.21 2.26c-.42 0-.76-1.52-1.17-2.39-1.68 1.61-1.73 4.33-4.52 6.19.25-8 3-14.85 2.7-22.59-3.67 5.08-3.44 11.82-8.6 16.08v-5.44a1.83 1.83 0 0 0 .34-.18c.06 0 0-.18.06-.27l-.42.43c-5.13 3-2.15 8-3 12-4.19-.71-3.8-4.58-4.79-8-2.12 6.22-2.12 6.22-7.25 2.65a1.87 1.87 0 0 0 -2.57.08c6.26 6 9.82 13.47 12.55 22.16-4.53-1.74-6.64-6-10.89-6.87a2 2 0 0 0 -1-2l-.44-.41.41.44a2 2 0 0 0 1 2c5.87 6.47-2.42 6.53-5.12 10 3.46-.17 5.4-1.94 7.67-2.69 1.11-.36 2.34-.65 3.14.55a1.74 1.74 0 0 1 -.39 2.28c-3 2.85-6.48 6-10.64 5.42-6.76-.87-13.56-.82-20.3-1.31-17-1.23-34.07-2.11-51.1-3.09-19.72-1.14-39.47-1.68-59.22-2.08-14.62-.3-29.21-1.74-43.85-1.08-1.14.05-2.33.11-3.13-1h-4.16c2.29-3.93 3-9.21 9.63-7.09-1.16-3-3.72-3.31-5.64-4.46-1.68-1-2.37-2-.32-3.2 1.13-.64 2.39-.57 1.8-2.67s-1.73-1.87-3.26-1.8a8.08 8.08 0 0 1 -2.35-.74c-3.07-.94-3.62-4.24-4-6.27-.48-2.35 3.12-2.32 5-2.69 2.29-.44 4.73-.1 7.11-.1-4-2.65-8.24-2.08-12.42-2-.7 0-1.43 1.09-2.13.12-.56-.77-.12-1.56.32-2.3 1-1.62 2.66-3 1.9-5.26-2.67.49-2.92 3.74-5.56 4.87.06-4.65 2.94-7.77 4-11.52l.42-.43-.46.4c-1.79-.54-2.8 1.55-4.39 1.43-1.29-1.72.42-4.47-2.85-6.09 1 3.78-.56 6.71-.79 9.84-.11 1.54-1.86 3.59-2.34 2.91-2.31-3.35-2.3 0-3 .85s-.76 2.55-2.75 3.44l3.08-22.39c-3.34 4.87-3.63 11.27-8.9 15.39v-5.36a1.33 1.33 0 0 0 .34-.16c.06-.05 0-.18.07-.27l-.42.42c-4.83 2.63-2.33 7.23-3 11l.38.49-.48-.4c-5.77-.86-2.87-6.25-4.57-9.46-3.36 3.09 1.17 6.74-1.1 9.83-2.87-1.88-4.56-5.49-8.75-4.79 4.11 1.82 5.17 5.59 5.82 9.36-5.22.34-11.1-.41-17.22 1.61 1.36-6 5.66-10.13 6.87-15.61-6.25 2.3-6.63 9.78-12.28 14.15 2.35-8.69 4.9-16 11-23-4 1.09-5.46 3.14-7.15 4.94-.64.67-1 2-2.27 1.31-1-.5-1.12-1.52-1.25-2.56-.27-2 .91-4.51-2.09-6.68.46 4.77-1.25 8.45-2 12.33-.43 2.12-1.1 4.29-3.84 4.59l-.51 2.14c-.13-.09-.34-.15-.37-.27a1.63 1.63 0 0 1 .76-2c-.15-1.09.48-2.3-.67-3.44-3.94 2.68-3.64 8.29-7.91 11.88 1.44-11.8 4-22.56 4-33.68-3.4 7.4-5.23 15.42-11 21.4-2.52-3.1.45-6.16.51-9.25-1.28-.32-1.65.52-2.19 1.07-3.91 4-2.37 9-2.76 13.75-.12 1.45 1 3.89-1.52 4a4.08 4.08 0 0 1 -4.44-3.8c-.74-4.76-1.83-9.48-.31-14.28.24-.77.51-1.73-.47-2.16s-1.51.42-2.08 1a3 3 0 0 0 -1 3.2c1.89 5.08-.22 10.49 2.33 16.58-3.4-2.66-5.58-4.71-8.08-6.22s-4.54-3.69-8-3.79c2 4.11 6.4 5.23 8.63 8.65 1.43 2.19 2.44 3.81-1.13 5.16 6.15 1.89 11.67 12.65 10.42 19.24-7.33-2.84-10.1-11.26-17.33-14.23 0 1.56-.39 3.75-2.2 2.78-2.51-1.34-4.05-.05-6.57 1.59 1.38-3.79 2.44-6.68 3.61-9.88-3.67 1.29-3.76 5.18-7.59 7.79l4.71-12.37.4-.46-.43.43c-4.49 1.34-3.52-3.63-5.83-5.34a30.73 30.73 0 0 1 -1.8 9.6c-.3.86-1.23 2.53-1.69 2-3.16-3.86-2.48.86-3.46 1.52-.8.54-.51 2.26-2.18 2.27-.55-6.45 2.8-12.55 1.6-20.08-2.4 5.16-3.41 10-7.15 13.24-1.28-1 .44-3.63-1.61-3.58-2.24.06-1.76 2.38-1.85 4-.06 1 .1 2 0 3-.17 1.23.8 3.16-.7 3.54-2.06.52-2.42-1.69-3.21-3.11-2.18-3.9-.06-7.67.74-12.55-3.47 2.57-3.88 4.76-3 7.87.53 1.91 1.25 4.78-.6 6-1.44 1-3-1.5-4.59-2.25-.71-.33-1.31-1.11-2.24-.21-.09 2.91 7.24 3.51 2.61 7.9.31.08.64.15.95.25 6.72 2.08 5.26 8.74 8.61 13.58-5.49-1-5.62-4.41-6-8.62-1.22 4-3.47 2.41-5.47 2a1.94 1.94 0 0 0 -1-2 1 1 0 0 0 -.17-.35c-.05-.06-.17-.05-.27-.07l.42.44a2 2 0 0 0 1 2c.69 2.47 4.25 5.93-2.18 5.91-.78 0-1.76 1.48-2.31 2.46-1 1.83-.31 3.9-.47 5.87-.12 1.49 0 3.29-2.06 3.33-1.73 0-1.54-1.69-2-2.9-1.55-3.94-.11-7.78.06-11.66-2.52 1.68-3.16 3.78-2.29 6.81a14.17 14.17 0 0 1 -.09 7.69c-2.85-1.66-4.7-4-7.59-4.53-.36-.25-.73-.5-1.11-.73 0 0-.16.25-.25.37l1.32.4a11.6 11.6 0 0 0 .62 1.86c.59 1.09 2.75 1.34 2.1 3-.71 1.81-2.6 1-4 1.1-4.13.22-8.27-.26-12.38.89-3 .84-4.88-.33-4.34-3.85l-3.88.72c3.78-6.79 10-3.88 15.34-5.16a28 28 0 0 0 -16.09-1c.09-3.33 3.08-5.46 2.65-8.62-2.73.86-2.79 4.52-6.73 5.79 3.48-5.72 4.22-10.74-.91-14.83-1.37 3.33-1.1 7.37-3.68 10.74-.5-1.17-.87-2-1.22-2.83-2.3 2.36-2.31 5.77-5.88 8.16 1.42-7.94 3.45-14.84 3-22-2.76 4.37-3.14 10-7.42 13.36-2.08-1.57.89-3.42-1.05-4.9-3.87 3.27-1.09 8-2.66 12.16-6.43-3.24-3.51-9.16-3.86-14.29-2.94 1.84-2.9 4.06-2.14 6.41a13.27 13.27 0 0 1 .35 6.48c-3.46-.48-4.77-4.19-9.34-4 4 2.48 4.16 6.68 6.31 8.62 3.53 3.21 4.05 7.07 5.61 10.89-5.1 1.22-6.51-4.23-10.34-4.73l-.42-1.32a4.22 4.22 0 0 0 -.37.26c.23.38.48.75.72 1.12a17 17 0 0 0 .92 2.24c.54 1 2.1 1.58 1.61 2.83-.63 1.57-2.3.8-3.53.9-2.45.2-4.91.25-7.37.37l-.14-.78 6.55-2c0-.17-.07-.34-.1-.51h-7.89l-.24.42.21-.45c0-1 0-2 0-3l.41-.46-.46.41c-.68.1-2.25.6-1.8-.29 1.7-3.28-.89-5.21-1.89-7.82.09 4.68-4 6.3-6.26 9.17l-.45.4.39-.46c-.69-4 1.89-7.91.67-12.29-1.53 2.72-2.71 3.71-6.64 6.18-.55.34-.71 1.41-.93 2.18-.32 1.15.57 2.68-1.33 3.6-1.62-2.82-.75-5.95-1-8.94-3 1.85-.06 5.9-3 7.12-2.74 1.15-.76 2.89-.87 4.18s-1.38 4.59-2.83 5.09c-9.67 3.34-19.87 2.57-29.79 3.89-10.48 1.4-21 2.44-31.5 3.64-10 1.14-20 2.26-30 3.42q-14.84 1.71-29.62 3.51c-10.16 1.19-20.33 2.43-30.5 3.53-6.2.67-11.35-4.41-17.71-3.43-.94.15-.81-1.6-.94-2.55a1.58 1.58 0 0 0 .35-.16c.05 0 .05-.18.07-.27l-.44.41c-1.69.41-2.19 2.94-4.77 2.47.61-2.2 1.21-4.32 1.81-6.45.33-.33.66-.67 1-1l1-1 .41-.44-.44.42-1 1-1 1c-4.54.86-1.76-4.44-4.53-5.32-.82 2.21-.28 4.89-2 6.56-6.19-2.9-6.12-8-4.75-13.66-2.11 2.33-2.25 6-6.41 5.65-1.1-.11-.13 1.23.16 1.87.68 1.52-.14 2.6-1.16 3.47a1.69 1.69 0 0 1 -2.27-.3c-1-.93-1.95-2.23-1.44-3.47s1.17-1.89 0-3.36c-2-2.61-2.29-5.56 1.21-8.15-2.32-.45-4.82 1.85-5.33-1-.46-2.56 2.4-2.33 3.92-2.88 4.85-1.75 9.94-1.65 15-1.64a49 49 0 0 0 -22.57-1.3c-.38-5 4.33-8.29 4.77-13.72-5 2.84-5.71 8.37-9.56 11.24-.14.43-.29.87-.43 1.31a3.14 3.14 0 0 1 -.36-.27c.22-.38.47-.75.71-1.11-.07-3 1.1-5.7 1.75-8.51 1.19-5.15 5.59-7.95 7.3-12.5-2.11 0-3 1.88-4.46 2.93s-2.33 4-4.5 3.13c-1.9-.76-.76-3.3-1-5.05-.17-1.24.24-2.74-1.34-3.18-3 5.58-.78 13.28-7.06 17.76-1.42-1.83 1.55-3.7-.79-5.31-3 3.31-3.48 8.34-7.78 12 2-11.92 4.25-22.51 4.29-33.44-3.31 7.43-5.43 15.25-10.9 21.2-2.86-3.07.6-6.12.32-9.84-1 .88-1.63 1.35-2.17 1.92-3.83 4-2.25 9.08-2.66 13.77-.1 1.17.94 3-.87 3.37a3.61 3.61 0 0 1 -4.09-2.19c-.38-.92-.73-1.85-1.06-2.8-1.9-5.56-1.08-11 1.61-17.58-3.3 2.56-6.26 4-5.26 7.3 1.51 5.05-.25 10.28 2.12 16.16-4.82-3.89-8.28-7.81-13.39-9.19-1-3.15-1.86-6.37-3-9.46-4.71-12.43-11.47-22.95-25.54-26.2-2.32-.54-3.14-1.95-3.82-4a52.22 52.22 0 0 0 -16-24.26c-13.2-11.07-31.87-11.87-41.91 5-4.83 8.11-6.67 17.27-6.7 26.75 0 2.07.71 4.4-1.52 6-9.85 6.93-12.83 17-12.38 28.35a182.3 182.3 0 0 0 2.12 23.24c1.3 7.6 1.41 15.41 3.81 22.82-1 .95-1.75 2.36-3.57 2.44-.92-2.1.35-4.84-2.05-6.52-.9 2.77.34 5.7-1 8.27-.38.74-.08 2.64-1.44 1.95-3-1.54-2.76 1.31-3.72 2.46s-.82 3.25-3.18 3.78c1.25-6.87 2.87-13.5 2.45-20.45-2.44 4.73-3 10.34-7.15 14.19-1.09-1.9.69-3.82-.22-5.9-4.08 3-2.91 7.08-3.07 10.76l.38.5-.48-.4c-2.1.21-2.51-1.05-3.22-2.8-1.33-3.28-.07-6.55-.33-10.3-4.8 3.93.57 8.63-2 12.32-2.91 0-4.12-4-7.37-3.29.76 2.81 6.21 3.57 3.45 7.92 3.06.29 1.89 1.48.45 2.48s-2.47.7-3-1.12a3.13 3.13 0 0 0 -1.73-2.51c-.44 2.31-.87 4.56-1.27 6.8-.61 3.37-3.63 1.85-5.28 2.11-2.43.37-1.08-1.86-1.05-3.21.1-3.83 1.73-7.55 1-12.8-1.51 3.78-2.29 6.5-3.68 8.86-.8 1.36-.38 6.55-4.45 2.29-.53-.55-1.43.55-1.81 1.23-.48.86-.63 1.92-1.16 2.72s-1.35 2.32-2.66 1.72-1.1-2.18-.39-3c1.75-2.09.44-3.85.13-5.78-2.61.64-2.21 2.91-3.17 4.77-.77-2 .09-4.36-2.4-5.7.18 3 .1 5.84-1.18 8-9-.66-2-7.65-4.38-11.09-5.1 2.19-5.73 1.89-7.09-3.63-.38-1.54-1.52-.81-2.35-1l-.44.42c0-.1 0-.23.07-.28a1.44 1.44 0 0 1 .36-.15c2.44-5.78 7.95-3 12.5-4.49a19.47 19.47 0 0 0 -14.48-.5l-.44.39.4-.42c-.51-3.17 2.8-5.39 2.48-9.13-3.45 1.82-3.22 5.85-6.4 7.91.61-5.4 3.11-9.48 5-13.79a1.39 1.39 0 0 0 .35-.16c.06-.05.05-.18.08-.27l-.45.41c-1.74-.4-3 1.08-4.6 1.28-.77-1.48-.12-3.52-2-4.38-.41 1.77-.89 3.5-1.19 5.26s-.73 5.19-1.43 4.94c-5.17-1.92-4.14 3.73-7.09 5.62 1.09-8.08 2.08-15.45 3.19-23.7-3.77 4-2.3 9.49-6.17 12.43-2.66-9.35-5-18.5-7.9-27.47s-7.57-17.63-12.62-25.63c-17-27.1-39.27-47.8-70.55-56.78-21.94-6.31-43-4.7-61.69 10.34-8.13 6.51-14.56 14.51-21.13 22.44-11.28 13.6-21.73 27.74-28 44.56-6.87 18.54-9.73 37.39-6.19 57.16 2.44 13.56 6.37 26.77 8.61 40.36.32 1.92 1.44 3.79-.34 5.54l-1-1 1 1c1.77 2.65 1.45 5-1.07 7a2 2 0 0 0 -2 1.06c-2.73.84-2.78 4.5-5.77 5.48-.53-4.29 3.14-6.85 3.79-10.47-1.79-.6-2.79 1.56-4.48 1.39-1.09-2.05.38-4.87-2.22-6.48-.59 3.17.26 6.42-1.17 9.37-.41.83-.59 2.55-1.65 1.91-3.11-1.89-2.61 1.25-3.63 2.27s-.32 3.35-2.94 3.9c1.19-7.29 3.09-14.16 2.63-21.29-2.57 4.33-2.82 9.8-7.53 13.33v-5.36c-3.67 2.25-2.8 6-3 9.32 0 .78.16 1.79-.81 2.12-1.24.42-1.65-.66-2.21-1.46-1.72-2.42-.48-5.56-1.59-8.89-2.54 3.84-.61 7-.56 10.69-2.87-1.85-4.61-4.63-7.82-4.81a60.38 60.38 0 0 1 9.09 15.93c.31.84 1.22 1.9.09 2.68s-2.19.39-3.25-.31c-2-1.35-3.06-4.07-5.9-4.31l-.44-.42c.14.15.27.31.4.46.19.63.37 1.26.58 1.88.45 1.35 3.42 2.06 1.38 3.95-1.24 1.15-3.14 2.65-4.88 1.78-2.3-1.14-.37-3.19-.24-4.85 0-.49 0-1-1.46-.8-.11 5.74-3.9 8.31-9.36 9.05 0 31.38.1 62.77-.11 94.16.05 4.1.85 5.1 5.14 5.1q628.79-.18 1257.57-.12 326.39 0 652.78.1c3.82 0 4.57-1 4.56-4.63-.15-39.91-.09-79.81-.09-119.71zm-1863.6 8a48.28 48.28 0 0 0 -6.66.43c0-3.57 3.19-6 3.46-9.44a2.05 2.05 0 0 0 2-1c6.42-2.12 3.63 3.78 4.68 5.89 1.28 2.54-.21 4.36-3.48 4.13zm218.23-48.78c-1.22-.39-3.83-.43-3.58-3a3.17 3.17 0 0 1 3.35-3c2.38 0 1.47 2.05 1.76 3.33-.32 1.08.47 3.32-1.53 2.68zm192-64.83a2.26 2.26 0 0 0 0-.45 2.26 2.26 0 0 1 -.05.42zm-4.69-5.8c-1.28-.81-2.49-1.68-2.7-3.43.16 1.76 1.38 2.63 2.65 3.44zm3.29 20.2c.81-3.78-3.08-7.11-1-11a12.69 12.69 0 0 0 1.47-1.47 12.69 12.69 0 0 1 -1.47 1.47c3.24-.33 5.49.39 6.76 4 1.9 5.39 4.71 10.45 6.22 16-5.21-1.43-8.95-4.79-12.03-8.99zm1-13.36a5.78 5.78 0 0 1 -.48.74 5.78 5.78 0 0 0 .47-.73zm21.6 4.93c-3.78-3.46-3.74-7.34 0-13.86zm400.26-7.59h-1q.52-1.02 1 0zm-19.58 11c-.91-.37-3.07.77-2.79-1.37.31-2.3 2.71-2.58 4.59-3.08s1.78.94 1.78 2.04c0 2.47-1.74 2.43-3.58 2.41zm6.22-9.46c-1.18-2.85.35-7.2-4.19-8.51-.22-.06-.35-1.27-.15-1.81.59-1.66 7.56-3.62 8.85-2.35a53.17 53.17 0 0 1 5.1 6.1c1.12 1.51-.33 2.07-1.35 2.5-1.53.64-3.12 1.13-4.71 1.62-1.43.44-1.44 2.81-3.55 2.5zm13.28 3.22c-1.07 1.8-2.87 3.35-5.23 3.15a5.47 5.47 0 0 1 -4.32-2.93c-.73-1.42.6-2.19 1.84-2.93 2.13-1.27 4.18-2.53 6.8-2 .34.73.68.74 1 0 2.99 1.54.67 3.43-.09 4.71zm19.8-22.27c-3.7-3.31-3.75-8 0-14.35zm.76-16.17c-.07-.14-.2-.28-.19-.4s.17-.24.26-.36l.21.41zm45.77 41.6c-2.86-.55-6.45-1-6.93-4.48-.39-2.85 2.77-4.29 4.74-5.89.93-.76 4.93 5 4.93 7.52.13 1.73-.51 3.28-2.74 2.85zm2.91-17.57a1.09 1.09 0 0 1 -.15-.35c-2.32-.1-3.85-1.76-5.69-2.83-.71-.41-1.87-1.38-2.29.32-.23.93-1.2 2.38.92 2.55 1.67.13 3.12.8 2.76 2.68-.33 1.66-2 2-3.53 2.24-6.53 1.1-9.07-1.12-9.12-7.93l1.31-.44a2.26 2.26 0 0 0 -.27-.36c-.38.22-.75.47-1.12.72v.05-.05l-4.87 1.88c.64-3.62 1-6.64 5.13-7.05 1-.1 1.88-.59 2.85-.74 10.91-1.65 9.91-3.65 13.91 8.95l.4.44c-.07-.03-.19-.02-.24-.08zm28.84 9.24c-.24 1.07.18 3.86-1.54 3s-4.8-.49-5-2.51 1.32-4 4.08-4c2.39-.07 2.53 1.45 2.46 3.51zm3.1-8.43c-.06-1 .19-1.93 1.48-2 .79 0 1.06.51 1.11 1.21-.39.83-.47 2-1.63 2.09-.92.13-.94-.76-.98-1.35zm233.15 12.76c-1.48-.39-2.46-1.28-1.63-2.84.63-1.17-.4-3.73 1.77-3.4 1.65.26 2.87 2.37 2.86 4.13-.02 1.16-1.49 2.03-3.02 2.06zm675.46 113.19c-.73.78-.71-.18-.74-.5a6.4 6.4 0 0 1 .22-1.51c.29.26.61.41.63.58.03.43.18 1.1-.13 1.38z"/><path d="m945.61 250.34c-3-1.52-4.93-1.38-5.59 2 1.98-.05 4.04.22 5.59-2z"/><path d="m940.02 252.35h-.01z"/><path d="m526.22 276.77c-1.12-1-2-2.61-3.94-1.78-.58.25-1.2 1-.73 1.57 1.25 1.54 2.95.69 4.67.21z"/><path d="m799.21 283.05c-.75-1-1.61-1.71-2.87-1.13-.28.12-.51 1.07-.46 1.1a3.65 3.65 0 0 0 3.33.03z"/><path d="m1217.26 259.94c.12-.27.24-.54.35-.82l-.82-.37c-.12.28-.4.62-.32.81s.53.26.79.38z"/><path d="m1848.91 376.59s0 0 0 0z"/><path d="m995.66 294.62a1.5 1.5 0 0 0 -1.62.79l1.91-.22c-.09-.19-.16-.54-.29-.57z"/><path d="m856.86 249.89c-.1-.2-.23-.46-.35-.72-.11.12-.3.24-.29.36a5.68 5.68 0 0 0 .14.92z"/><path d="m1650.3 339.12a3.64 3.64 0 0 0 -.27-.37c-.38.23-.75.49-1.12.74l.07.08z"/><path d="m1002.38 289-.74-.06c.11.09.22.24.34.25s.27-.19.4-.19z"/><path d="m1742.16 345.61.51.05a1.06 1.06 0 0 0 -.09-.36c0-.05-.19 0-.29 0a3.62 3.62 0 0 1 -.13.31z"/><path d="m1859.2 377-.36-.13v.54a1.13 1.13 0 0 0 .37-.1s-.02-.24-.01-.31z"/><path d="m1860.67 383.53-.23-.32-.29.27.39.41z"/><path d="m13 394.88c-.09.13-.17.26-.26.38l1.32.39z"/><path d="m55.12 385.6-.41-.2.38.23z"/><path d="m30.1 388.61.23-.44z"/><path d="m51.53 389.19-.44.42z"/><path d="m1652.29 344.38c.06-.05 0-.17.07-.27l-.43.42a1.25 1.25 0 0 0 .36-.15z"/><path d="m317.92 335.16c-.05-.05-.17-.05-.27-.07l.43.43a1.39 1.39 0 0 0 -.16-.36z"/><path d="m792 278.4a1.28 1.28 0 0 0 -.35.18c0 .05 0 .18-.06.27l.28-.08z"/><path d="m792.46 278-.27.05-.16.34a1.35 1.35 0 0 0 .35-.14c.06-.03.05-.16.08-.25z"/><path d="m876.58 272c0 .09 0 .19.08.28l.36.14a1.27 1.27 0 0 0 -.17-.35c-.05-.07-.18-.07-.27-.07z"/><path d="m987.22 248-.22.37z"/><path d="m518.53 268.91-.48.46z"/><path d="m519.05 268.37-.52.54.54-.52z"/><path d="m519.48 268-.37.36a.88.88 0 0 0 .28-.12c.06-.05.06-.17.09-.24z"/><path d="m987 248.32-.23.43.26-.4z"/><path d="m1360.38 306-.41.41a1 1 0 0 0 .34-.15c.06-.01.05-.13.07-.26z"/><path d="m1372.32 300.28s0-.17.06-.26l-.41.42a1.42 1.42 0 0 0 .35-.16z"/><path d="m795.44 299-.36.38a.9.9 0 0 0 .28-.13c.06-.02.05-.13.08-.25z"/><path d="m793.38 285.26c.06-.05 0-.18.07-.27l-.42.42a1.25 1.25 0 0 0 .35-.15z"/><path d="m54.81 399.13c.28.15.55.42.81.41s.53-.26.79-.41c-.26-.15-.52-.42-.79-.42s-.53.29-.81.42z"/></g><path d="m796.77 93.93c.35-.76.65-1.48 1-2.17 2.64-5.16 7.08-6.18 11.39-2.4 1.51 1.33 1.88 1.22 2.74-.54 3.72-7.64 10.6-8.21 15.79-1.46a40 40 0 0 1 5 9.42c.79 1.93.53 3.87-1.64 4.77s-3.68-.28-4.56-2.18c-1.29-2.78-2.34-5.68-4.33-8.08s-3.09-2.1-4.27.61a16.65 16.65 0 0 0 -1.15 5.18 25.19 25.19 0 0 1 -.63 3.79 3.48 3.48 0 0 1 -6.65.73 30.14 30.14 0 0 0 -3.54-5.83c-.44-.51-1-1.31-1.5-1.3-.93 0-1 1.14-1.21 1.82q-1.37 5.61-2.49 11.27c-.4 2-1.09 3.74-3.34 4-2.48.25-3.42-1.58-4.13-3.54a133.17 133.17 0 0 1 -4.43-16.89c-.45-2-.08-4.18 2.47-4.67s3.51 1 4.12 3.25c.38 1.37.16 2.98 1.36 4.22z" fill="#455a64"/><path d="m868.39 146.08c3.06-2.93 6.1-2.7 9-.4 1.71 1.35 2.08.69 2.71-1 2.29-6.12 7.41-7.91 13.17-4.7a17.49 17.49 0 0 1 7.6 9.22c.89 2.2 1.66 4.44 2.45 6.68s.18 3.87-1.94 4.62-3.61-.5-4.38-2.5a56.62 56.62 0 0 0 -3.19-8c-1.33-2.38-3-5.19-5.94-4.47-2.46.61-2.07 3.9-2.46 6.14-.31 1.85-.22 3.76-.4 5.64a3.37 3.37 0 0 1 -6.66.69 13.34 13.34 0 0 0 -3-5.37c-.46-.49-1-1.31-1.65-1.06s-.84 1.24-.84 2v8.34c0 2.13-.61 3.83-2.88 4.18s-3.44-1.12-3.94-3.17a144 144 0 0 0 -4.49-15.34c-.78-2.17-.79-4.28 1.71-5.24s3.69.62 4.58 2.62c.16.36.29.61.55 1.12z" fill="#455a64"/><path d="m767.34 107.32a33.7 33.7 0 0 1 -5.26 7.57 11.22 11.22 0 0 1 -17-1.07c-3.1-4.18-2.08-11.66 2.18-15.79 3.8-3.69 8.15-5.93 13.66-5.21a4.82 4.82 0 0 0 3.38-.5c2.2-1.31 4.43-.43 5.12 2.14a32.72 32.72 0 0 0 7.51 14 3 3 0 0 1 -.16 4.54c-1.58 1.49-3.33 1.23-4.76-.24-1.58-1.7-3.01-3.56-4.67-5.44zm-7.44-7.91a9.88 9.88 0 0 0 -9.52 6.5c-.71 2-.65 3.79 1.36 4.87s4 1.1 5.67-.74a19.32 19.32 0 0 0 4.44-8c.59-2.04.29-3.18-1.95-2.63z" fill="#455a64"/><path d="m840.91 161.85c-1.55 3.08-2.64 6.1-5.79 7.65-3.77 1.85-7.62 2.25-10.93-.41a10.37 10.37 0 0 1 -3.57-11 16.92 16.92 0 0 1 8.76-11.49c6.34-3.21 10-1 13 4.55 1.73 3.16 3.24 6.31 6.4 8.35 1.7 1.1 2.41 2.78 1.23 4.61s-3.14 2-5 .88c-1.34-.87-2.6-1.99-4.1-3.14zm-10.91 2.15a3.57 3.57 0 0 0 3.34-2 22.13 22.13 0 0 0 2.28-7.6c.1-.76.5-1.76-.27-2.21a2.61 2.61 0 0 0 -2.55.18 11.86 11.86 0 0 0 -5.75 7.58 3.06 3.06 0 0 0 2.95 4.05z" fill="#455a64"/><path d="m708.4 104.46c1.34-3.44 2.92-6.14 5.5-8.18s5.44-2.48 7.92-.54a39.27 39.27 0 0 1 11.18 14.49 5.4 5.4 0 0 1 .25 2.63 2.93 2.93 0 0 1 -2.7 2.76 3.28 3.28 0 0 1 -3.67-2.42c-1.43-3.92-4.31-6.83-6.76-10-1.6-2.1-2.78-1.31-3.79.4a21.23 21.23 0 0 0 -2.77 9.9c-.08 1.59.05 3.19-.1 4.77-.17 1.92-1 3.52-3.11 3.81a3.52 3.52 0 0 1 -3.93-2.54c-1.07-2.77-2-5.59-3-8.38s-1.71-5.66-3.4-8.19a3.76 3.76 0 0 1 1.25-5.43c2.27-1.12 3.84 0 4.89 2 .76 1.37 1.36 2.95 2.24 4.92z" fill="#455a64"/><path d="m782.4 157.45c6.83-6.72 13.45-6.6 20 .19a25.36 25.36 0 0 1 5.45 7.75c1.09 2.62.56 4.93-1.44 5.65-2.57.92-3.69-.62-4.69-2.79a18 18 0 0 0 -6.8-8.08c-3.43-2.1-5.74-1.09-6.91 2.75-.77 2.54-.45 5.12-.61 7.69-.14 2.16-.34 4.4-3 4.84-2.83.48-3.66-1.66-4.4-3.85q-2.67-7.86-5.46-15.68c-.81-2.28-1.06-4.51 1.63-5.49s3.95.93 4.75 3.19c.47 1.21.94 2.38 1.48 3.83z" fill="#455a64"/><path d="m954.78 149.87c-.25 2-1.26 3.27-3.24 3.25a2.89 2.89 0 0 1 -3.1-2.93 2.94 2.94 0 0 1 3-3.32c2-.08 3.06 1.13 3.34 3z" fill="#455a64"/><path d="m924.83 156.67c-.27 1.93-1.33 3.17-3.3 3.11a2.92 2.92 0 0 1 -3-3.3 2.89 2.89 0 0 1 3.07-3c1.97 0 2.95 1.29 3.23 3.19z" fill="#455a64"/><path d="m939.47 153.41c-.3 1.9-1.35 3.13-3.34 3a2.89 2.89 0 0 1 -3-3.32 2.84 2.84 0 0 1 3.1-2.89c2.03.05 3.02 1.26 3.24 3.21z" fill="#455a64"/><path d="m914.08 345.42-3.41-1.62c-2.58-3.27-2.79-6-.73-9.56 2.82-4.87 7.15-7.54 12.56-8.65.58-.12 1.17-.17 1.75-.3.16 0 .29-.24.67-.58-1.5-1.68-3-3.34-4.48-5-3.54-4.14-6.36-8.67-6.35-14.34 0-6.86 4.7-9.64 10.83-6.51a46.44 46.44 0 0 1 8.52 5.94c1.64 1.37 2.45 1.71 3.45-.74a36 36 0 0 1 7.68-11.91c2.41-2.44 5.09-4 8.49-2.77s4.79 4.25 5.11 7.74a17.52 17.52 0 0 1 -1.65 9.53c-.42.87-.76 1.78-1.27 3 7.47-.91 13 1.35 15.44 8.68 1.51 4.53.29 7.89-3.77 11.19l-1 .58a16 16 0 0 1 -6.08 1c-2.85 0-5.71 0-8.57-.06-1.76 0-2.52.69-1.62 2.33 1.26 2.33 2.68 4.57 4 6.84.55 1.69 1.15 3.37 1.63 5.08a7 7 0 0 1 -4.71 9c-5 1.59-9.58.59-13.81-2.39a35 35 0 0 1 -4.65-6.41 57.34 57.34 0 0 0 -2.9 12.37c-.3 2.25-.52 4.51-.94 6.73s.38 3.15 2.64 3.52a26.54 26.54 0 0 1 11.22 4.49 7.73 7.73 0 0 1 3.32 8.31c-2.18 12.5-3.24 25.15-4.68 37.74-1.1 9.55-2.31 19.08-3.56 28.6-.72 5.48-4.2 8.34-9.69 8.52a54.6 54.6 0 0 1 -17.08-1.91c-4.18-1.21-5.68-3.43-6-7.84-1.12-15.43-2.38-30.86-3.44-46.3a181.81 181.81 0 0 1 -.67-19.65c.19-4.79 2.51-8.62 7.26-11.09a20.43 20.43 0 0 1 12-2.25c1.2.12 1.49-.35 1.7-1.43a21.62 21.62 0 0 0 .47-5.61c1.29-5.09 1.83-10.33 3.72-15.72-4.04 1.16-7.6 2.38-11.4 1.45zm23.34 42.4a4.13 4.13 0 0 0 -1-.05c-9.05 2.92-18.15 5.08-27.61 1.83-1.77-.61-1.41.83-1.41 1.71 0 5.36.74 10.68 1.13 16q1.34 18.54 2.45 37.09c.13 2.08 1.1 3.1 3 3.38a99.54 99.54 0 0 0 12.68 1.4c2.54.06 3.73-1.2 4-3.41.7-5.19 1.25-10.41 1.86-15.62q1.69-14.45 3.38-28.89c.55-4.47 1.02-8.95 1.52-13.44zm-20.42-14.47a9.45 9.45 0 0 0 -7.39 2.22c-2.62 2.13-2.71 4.42-.1 6.63s5.64 2.13 8.68 2.32c1 .06 1.24-.63 1.3-1.55a43.86 43.86 0 0 1 .61-6.17c.59-3-.23-4.29-3.1-3.45zm39.16-49h4.46s2.88-.22 3.52-1.68a4.15 4.15 0 0 0 -.75-4.19 5.07 5.07 0 0 0 -4.54-2.37 22.71 22.71 0 0 0 -9.9 2.77c-.51.29-1.14.39-.66 1.22 1.31 2.28 2 5.35 5.79 4.28a8 8 0 0 1 2.04-.04zm-5.43-28.74c-5.79 5.09-8.2 11.72-10.57 18.35-.54 1.52 1.15 1.23 1.87 1.65.57.33 1.35 1.11 1.92-.12 2.05-4.4 5.4-8.09 7-12.74.75-2.3 1.28-4.58-.26-7.15zm-16.47 19.58a39.53 39.53 0 0 0 -11.05-9.69c-.65-.38-1.36-1.19-2.12-.58s-.25 1.44-.08 2.21c1 4.79 4.48 8 7.46 11.53 1.41 1.67 2.2 1.59 2.94-.42.47-1.37 1.67-2.14 2.81-3.06zm6.74 21.86c-4.17.08-4.41.38-3.07 4.14a15 15 0 0 0 2 3.93 7.27 7.27 0 0 0 6.72 3.07c1.69-.15 2.37-1 1.63-2.59-.91-2-2-3.89-2.83-5.89s-2.16-3.47-4.45-2.66zm-12.22 37.41a1.35 1.35 0 0 0 -1.9 1.26c-.3 2.14-.61 4.29-.88 6.43-.16 1.36.74 1.47 1.7 1.24a31.22 31.22 0 0 0 9.62-3.66c1.35-.85 1.33-1.53 0-2.35a23.25 23.25 0 0 0 -8.5-2.92zm-13.33-35.89c2.9.28 13-2.55 14.45-4.14.67-.72 1.19-1.7-.46-2.19-5.06-1.53-11.44 1.21-13.95 6.33zm24.55-8.24a3.26 3.26 0 0 0 3.79-3.22c.23-2.25-3.26-5.89-5.57-5.59-2.67.34-2.14 3-2.5 4.71-.47 2.32 1.58 4.05 4.28 4.1z" fill="#455a64"/><path d="m937.42 387.82c-.5 4.49-1 9-1.49 13.45q-1.68 14.44-3.38 28.89c-.61 5.21-1.16 10.43-1.86 15.62-.3 2.21-1.49 3.47-4 3.41a99.54 99.54 0 0 1 -12.68-1.4c-1.87-.28-2.84-1.3-3-3.38q-1.11-18.56-2.45-37.09c-.39-5.33-1.09-10.65-1.13-16 0-.88-.36-2.32 1.41-1.71 9.46 3.25 18.56 1.09 27.61-1.83a4.13 4.13 0 0 1 .97.04z" fill="#fff"/><path d="m917 373.35c2.91-.84 3.73.45 3.1 3.45a43.86 43.86 0 0 0 -.61 6.17c-.06.92-.26 1.61-1.3 1.55-3-.19-6.17-.2-8.68-2.32s-2.52-4.5.1-6.63a9.45 9.45 0 0 1 7.39-2.22z" fill="#fff"/><path d="m956.12 324.34a8 8 0 0 0 -2.08 0c-3.81 1.07-4.48-2-5.79-4.28-.48-.83.15-.93.66-1.22a22.71 22.71 0 0 1 9.9-2.77 5.07 5.07 0 0 1 4.54 2.37 4.15 4.15 0 0 1 .75 4.19c-.64 1.46-2.12 1.63-3.52 1.68s-3 0-4.46 0z" fill="#ffcd40"/><path d="m950.69 295.6c1.54 2.57 1 4.85.22 7.14-1.6 4.65-4.95 8.34-7 12.74-.57 1.23-1.35.45-1.92.12-.72-.42-2.41-.13-1.87-1.65 2.37-6.63 4.78-13.26 10.57-18.35z" fill="#db4437"/><path d="m934.22 315.18c-1.14.92-2.34 1.69-2.85 3.05-.74 2-1.53 2.09-2.94.42-3-3.53-6.42-6.74-7.46-11.53-.17-.77-.63-1.65.08-2.21s1.47.2 2.12.58a39.53 39.53 0 0 1 11.05 9.69z" fill="#db4437"/><path d="m941 337.05c2.25-.81 3.56.51 4.5 2.66s1.92 3.91 2.83 5.89c.74 1.61.06 2.44-1.63 2.59a7.27 7.27 0 0 1 -6.72-3.07 15 15 0 0 1 -2-3.93c-1.35-3.76-1.11-4.06 3.02-4.14z" fill="#ffcd40"/><path d="m928.82 374.46a23.25 23.25 0 0 1 8.58 2.92c1.29.82 1.31 1.5 0 2.35a31.22 31.22 0 0 1 -9.62 3.66c-1 .23-1.86.12-1.7-1.24.27-2.14.58-4.29.88-6.43a1.35 1.35 0 0 1 1.86-1.26z" fill="#fff"/><path d="m915.49 338.57c2.54-5.12 8.89-7.86 14-6.33 1.65.49 1.13 1.47.46 2.19-1.48 1.57-11.56 4.42-14.46 4.14z" fill="#0f9d58"/><path d="m940 330.33c-2.71-.05-4.76-1.78-4.28-4.1.36-1.71-.17-4.37 2.5-4.71 2.31-.3 5.8 3.34 5.57 5.59a3.26 3.26 0 0 1 -3.79 3.22z" fill="#4285f4"/><path d="m960.58 335.12.25-.26-.24.28z" fill="#cfdafe"/><path d="m960.59 335.14-.59.6.6-.59z" fill="#cfdafe"/><path d="m983.05 353v-.17h.16a.81.81 0 0 1 .1.21z" fill="#cfdafe"/><path d="m736.7 344.14c-.42-1.42-.83-2.84-1.25-4.25-3.09-13-6.75-25.84-9.06-39-1.95-11.14-3.83-22.29-3.82-33.64 0-3.57.27-7.15.61-10.71a20.1 20.1 0 0 1 7.14-13.34c9-8 17.78-16.24 27.21-23.69 8-6.29 17.48-10.11 27-13.64a216.21 216.21 0 0 1 43.11-10.81 28.23 28.23 0 0 1 17.71 2.62c15.78 8.41 31.37 17.17 44 30.17 8.14 8.36 14.91 17.45 16.75 29.49a89.25 89.25 0 0 1 .72 22.55 338.27 338.27 0 0 1 -5.57 37.61c-3.23 14.94-8.3 29.29-14.22 43.36a10.92 10.92 0 0 0 -.34 1.11c-4.17 8.78-8.17 17.65-13.56 25.78-.93 1.4-.13 1.82.82 2.45a55 55 0 0 1 10.69 9.42c4.13 4.7 6.87 9.83 7.47 16.14s2 12.48 1.22 18.92c-1.33 11.32-12.66 20.32-22.2 22.2a39.89 39.89 0 0 1 -7.71.59c-8.54 0-17.1-.11-25.64.08-12.29.27-24.27-2-36.3-4s-24.21-3.88-36.53-4.67c-10.51-.68-21.08-1.32-31.53-2.89-9.57-1.45-13.58-5.29-15.76-14.87a57.83 57.83 0 0 1 .85-29.69c3.24-10.86 11.79-15.65 21.86-18.55a20.56 20.56 0 0 1 2-.47c4.4-.82 4.51-.85 3.28-5-2.65-9.09-4.53-18.41-7.65-27.41a22.89 22.89 0 0 0 -1.3-5.86zm-7.23-75.95c-.28 7.78.81 15.46 2.07 23.09 5 30.05 14.11 59.07 21.74 88.47.42 1.62 1.17 2 2.68 2 22-.23 43.91 1.11 65.86 1.82 14 .46 28 .61 41.77 3.44a2.37 2.37 0 0 0 3-1.22c3-5.39 6.37-10.53 9-16.11 9.59-20.22 17.33-41.07 20.87-63.27 2.13-13.32 4.55-26.64 3.84-40.2-.49-9.22-2.43-18.12-8.66-25.44a123.12 123.12 0 0 0 -8.9-10c-11.85-11.25-25.82-19.42-40.19-26.91a21.69 21.69 0 0 0 -13.31-2.25 247.47 247.47 0 0 0 -34.13 7.75c-11.74 3.55-23.26 8-33.07 15.29s-18.36 15.81-27.41 23.88a13.44 13.44 0 0 0 -4.67 8.69c-.47 3.64-.19 7.31-.49 10.97zm42.22 120.56c-2.38-.13-4.76-.3-7.14-.38-7.46-.26-15-.44-22.27 1.14-7.91 1.73-14.83 5.37-17.36 14a51.23 51.23 0 0 0 -.87 25.32c1.7 8 4 9.61 12.21 10.84 8.81 1.33 17.83-.44 26.54 2.26 4.19 1.3 8.74.22 13.05.85 12.63 1.85 25.26 3.75 37.84 5.91 18.46 3.16 37 2.74 55.55 1.55 7.38-.48 18-8.66 17.49-18.88-.16-3.27-.51-6.54-.62-9.79a28.39 28.39 0 0 0 -10.18-21.32c-4.92-4.33-10.22-7.62-17.11-7.29a10.73 10.73 0 0 1 -1.77-.23c-5.9-.71-11.8-2-17.71-2-22.57-.04-45.07-2.21-67.65-1.98z" fill="#455a64"/><path d="m726.65 365.57.25.12-.24-.14z" fill="#fefefe"/><path d="m729.47 268.19c.3-3.66 0-7.33.47-11a13.44 13.44 0 0 1 4.67-8.69c9-8.07 17.72-16.67 27.41-23.88s21.33-11.74 33.07-15.29a247.47 247.47 0 0 1 34.13-7.75 21.69 21.69 0 0 1 13.31 2.25c14.37 7.49 28.34 15.66 40.19 26.91a123.12 123.12 0 0 1 8.9 10c6.23 7.32 8.17 16.22 8.66 25.44.71 13.56-1.71 26.88-3.84 40.2-3.54 22.2-11.28 43.05-20.87 63.27-2.64 5.58-6 10.72-9 16.11a2.37 2.37 0 0 1 -3 1.22c-13.79-2.83-27.8-3-41.77-3.44-22-.71-43.89-2.05-65.86-1.82-1.51 0-2.26-.36-2.68-2-7.63-29.4-16.79-58.42-21.74-88.47-1.24-7.6-2.33-15.25-2.05-23.06zm95.76 37.12a20 20 0 0 0 -2.68 0c-2.27.3-3.21-.38-2.92-2.89.4-3.55.51-7.13.59-10.71 0-1.59.67-2 2.16-2 2.78-.05 5.55-.37 8.33-.47 2.27-.09 4-.8 3.93-3.39s-1.92-3.3-4.17-3.2c-4.26.2-8.53.43-12.79.73-2.54.17-3.88 1.45-4 4.19-.65 13.28-1.46 26.54-3.28 39.73-.46 3.38 1.38 5.77 4.42 5.9a65.92 65.92 0 0 1 17.23 2.8c2.56.8 4.56-.83 4.41-3.26-.13-2.09-1.68-2.85-3.3-3.39a51.89 51.89 0 0 0 -13.68-2.55c-1.69-.08-2.32-.55-2.09-2.28.45-3.44.84-6.89 1.13-10.34.12-1.49.83-2.2 2.21-2.25 3.17-.12 6.36-.59 9.45.55 2.18.81 4.08.59 4.83-1.85s-.64-3.8-2.71-4.61a17.78 17.78 0 0 0 -7.07-.71zm-40-23.36a46.19 46.19 0 0 0 -8.51 1.3c-1.78.37-3.21 1.22-3.39 3.21a3.49 3.49 0 0 0 2.91 3.94c1.79.42 2 1.26 2 2.91q-.49 12.94-.71 25.9c0 2.07-.38 3.28-2.71 3.67s-3.93 1.84-3.16 4.42 2.78 2.57 5.08 2.2c3.11-.51 6.24-1.15 9.43-.69s5.06-.58 5.32-2.8-1.62-3.92-4.65-3.87c-2.45 0-3-.83-2.83-3.08.48-9.42.84-18.84 1.14-28.27 0-1.59.44-2.21 2.1-2.4a3 3 0 0 0 3-3.45c-.23-2.09-1.66-3.06-3.76-3z" fill="#b0bec5"/><path d="m771.69 388.74c22.58-.22 45.08 1.95 67.65 2 5.91 0 11.81 1.3 17.71 2a10.73 10.73 0 0 0 1.77.23c6.89-.33 12.19 3 17.11 7.29a28.39 28.39 0 0 1 10.18 21.32c.11 3.25.46 6.52.62 9.79.48 10.22-10.11 18.4-17.49 18.88-18.54 1.19-37.09 1.61-55.55-1.55-12.58-2.16-25.21-4.06-37.84-5.91-4.31-.63-8.86.45-13.05-.85-8.71-2.7-17.73-.93-26.54-2.26-8.2-1.23-10.51-2.81-12.21-10.84a51.23 51.23 0 0 1 .87-25.32c2.53-8.63 9.45-12.27 17.36-14 7.28-1.58 14.81-1.4 22.27-1.14 2.38.07 4.76.24 7.14.36z" fill="#b0bec5"/><path d="m825.23 305.31a17.78 17.78 0 0 1 7.07.75c2.07.81 3.42 2.3 2.71 4.61s-2.65 2.66-4.83 1.85c-3.09-1.14-6.28-.67-9.45-.55-1.38 0-2.09.76-2.21 2.25-.29 3.45-.68 6.9-1.13 10.34-.23 1.73.4 2.2 2.09 2.28a51.89 51.89 0 0 1 13.68 2.55c1.62.54 3.17 1.3 3.3 3.39.15 2.43-1.85 4.06-4.41 3.26a65.92 65.92 0 0 0 -17.24-2.83c-3-.13-4.88-2.52-4.42-5.9 1.82-13.19 2.63-26.45 3.28-39.73.13-2.74 1.47-4 4-4.19 4.26-.3 8.53-.53 12.79-.73 2.25-.1 4.06.67 4.17 3.2s-1.66 3.3-3.93 3.39c-2.78.1-5.55.42-8.33.47-1.49 0-2.12.42-2.16 2-.08 3.58-.19 7.16-.59 10.71-.29 2.51.65 3.19 2.92 2.89a20 20 0 0 1 2.69-.01z" fill="#455a64"/><path d="m785.19 282h1.19c2.1-.07 3.53.9 3.76 3a3 3 0 0 1 -3 3.45c-1.66.19-2 .81-2.1 2.4-.3 9.43-.66 18.85-1.14 28.27-.12 2.25.38 3.11 2.83 3.08 3-.05 4.89 1.77 4.65 3.87s-2.23 3.24-5.32 2.8-6.32.18-9.43.69c-2.3.37-4.33.35-5.08-2.2s.88-4 3.16-4.42 2.68-1.6 2.71-3.67q.19-13 .71-25.9c.06-1.65-.17-2.49-2-2.91a3.49 3.49 0 0 1 -2.91-3.94c.18-2 1.61-2.84 3.39-3.21a46.19 46.19 0 0 1 8.58-1.31z" fill="#455a64"/><path d="m1173 356.54c-1.43 8.49-2.78 17-5.15 25.28a2.5 2.5 0 0 0 1.18 3.24c11.2 7.23 21.43 16.15 34.59 20a30 30 0 0 1 4.66 1.94c8.65 4.2 10 14.85 2.61 21.16-5.12 4.4-11.21 6.26-17.83 6.43-12.83.32-24.23-4.29-35.2-10.4-7.9-4.39-14.43-10.49-21.16-16.35a4.49 4.49 0 0 1 -1.64-2.08c-.57-2.8-2.52-3.24-4.88-3.37-7.83-.41-15.37-3.29-23.24-3.13-10 .21-19.94 1.8-29.91 2.29-6.82.33-11.42 2.84-15.76 7.89-5.73 6.66-14.37 8.95-22 12.59a82.85 82.85 0 0 1 -30.24 8.08c-7.28.47-14.54.54-20.55-4.82-6.9-6.15-6.7-15.7.57-21.34 5-3.85 10.85-5.69 16.64-7.73 6.16-2.18 12.44-4.06 17.92-7.83 2.11-1.45 2.73-2.71 1.52-5.33-5.23-11.3-7.75-23.4-9.91-35.58-.35-1.57.06-3.25-.72-4.76l-.18-1.84c-.37-1.87.15-3.88-.81-5.67l.07-.22c-.36-10.73-.88-21.44-.54-32.18.65-20.63 4.43-40.75 9.72-60.62.53-2-.59-1.86-1.66-2.21a66.07 66.07 0 0 1 -29.95-20.28c-11.6-13.59-13.59-29.32-8.8-46.13 7.57-26.53 23.85-46.55 46.84-61.19a293.27 293.27 0 0 0 42-32.68c4.88-4.53 9.49-9.34 14.62-13.61 4.92-4.08 11-5 15.94-1.52 9 6.33 19.21 10.89 27.67 18 14.19 11.94 30.84 20.19 45.84 30.9 18.32 13.08 31.16 30.21 35.68 52.6a66.65 66.65 0 0 1 -2.39 36.67c-2.36 6.42-7.35 11-11.58 16.1-6.75 8.14-16.18 12.29-25.54 16.41-2.7 1.19-3.75 2.38-3.17 5.54 1.68 9.15 4.35 18.08 5.71 27.29a191.76 191.76 0 0 1 2.53 31.09c-.2 12.33-.19 24.66-1.37 36.94-.66 6.83-1.42 13.63-2.13 20.43zm-7-126.41c12.44-4.52 23.58-10.89 31.33-22.1 1.68-2.43 3.81-4.54 4.87-7.41a60.39 60.39 0 0 0 2.22-32.86c-4-20.8-16-36.67-33-48.76-15.18-10.79-32-19.17-46.33-31.25-8.15-6.86-18.07-11.09-26.66-17.33-2.75-2-5.56-1.32-8.67 1.19-5.9 4.76-10.92 10.43-16.53 15.5a335.53 335.53 0 0 1 -42.36 32.28c-20 13-34.21 30.87-41.42 53.87-3.43 11-4.07 22 .82 32.81 4.09 9 11.24 15.27 19.16 20.76a24.58 24.58 0 0 0 7.2 3.85 7.57 7.57 0 0 0 -.32-1.41 43.69 43.69 0 0 1 -4-23.16c.86-8.71 3.61-16.63 9.74-23.11 9.13-9.64 20.67-15.27 33-19.53 7.77-2.69 16-2.74 24.07-3.23 15.54-.94 30.92-.8 45.92 4.21 8.74 2.92 17.66 5.41 24.41 12.27 6.27 6.37 13.14 12.32 16.59 20.85 4.33 10.69 6.77 21.47-.65 32l-.1.71zm-90.54 41.41c-4.13-.92-8.31-1.4-11.16-3.94-3.73-3.33-7.37-4.82-12.28-3.44a3.07 3.07 0 0 1 -4.1-2.82c-.22-2.44 1.38-3.49 3.69-3.71 3.7-.37 7.07-1.8 10.46-3.2 2.29-1 1.73-1.83.31-3.05-2.72-2.31-5.6-4.51-7.23-7.82-.52-1.05-1.3-.62-2-.54a79.1 79.1 0 0 1 -21.68-.44c-1.4-.25-1.58.22-2 1.27-1.61 3.77-2.21 7.8-3.07 11.75-2.55 11.82-5.12 23.65-5.84 35.75-1 16.18-1.34 32.36.6 48.51 1.58 13.22 4 26.27 9.38 38.5 3.75 8.52 9.64 15.08 19.55 16.48a113.55 113.55 0 0 0 29.41-.16 262.37 262.37 0 0 1 27.58-2.07c8.91-.13 17.45 2.42 26.23 3.35 11.54 1.23 21.26-6.07 26.92-14.33a11.12 11.12 0 0 0 1.47-3.23c4.37-15.15 5.83-30.77 7-46.37.9-12.19.73-24.45 1-36.68.21-8.56-1-17-2.22-25.44-1.35-9.72-4.41-19.09-5.86-28.77-.38-2.6-1.33-2.77-3.32-2.44a204.86 204.86 0 0 1 -41.83 2.53 4 4 0 0 0 -4 1.68 78.13 78.13 0 0 1 -6.69 7.19c-4.22 4.33-4.08 4.64 1.63 7.26 3.92 1.8 8.09 1.74 12.21 2.18 2.16.23 4.06 1 3.9 3.58s-2 3.23-4.24 3.21c-3.48-.05-7-.16-10.28-1.41s-5.64-1.26-7.93 1.7c-1.19 1.53-3.3 2.16-5.19 2.78-2.61.86-5.24 1.66-8.09 2.55a39.29 39.29 0 0 0 5.81 7.93c1.44 1.48 1.91 3.16.5 4.78s-3.32 1.4-5.08.17a13.73 13.73 0 0 1 -2.92-3.35c-1.55-2.1-3-4.25-4.61-6.45a48.09 48.09 0 0 1 -5.14 6.09c-1.74 1.59-3.66 2.39-5.51.49s-.87-3.66.73-5.2a25.13 25.13 0 0 0 3.85-4.87zm45.31-36.85c8.63-.27 17.28-.1 25.88-1.14 4.19-.51 8.11-.72 11.16-4.92 4-5.46 6.17-10.95 5.21-17.66-2.15-15-11.76-25.26-23.33-33.08-10.55-7.14-23.32-9.8-36.05-10.9-9.9-.85-19.84-.11-29.78.23-15.06.5-28.11 6.07-40.2 14.47-5.37 3.74-9.82 8.34-12.22 14.63-4.8 12.62-3 24.47 4.07 35.75a7.66 7.66 0 0 0 5.45 3.61 63 63 0 0 0 18.11.87c16.62-1.62 33.33-1.2 50-2.35 7.17-.5 14.4.87 21.66.49zm20.46 167.67c1.71 2.37 3.64 3.63 5.33 5.13 12 10.62 25.4 18.31 41.57 20.18 7 .81 13.74-.08 19-5.41 3.06-3.07 2.29-7.09-1.56-9.07a14.23 14.23 0 0 0 -2.45-1.05c-14.41-4.2-25.95-13.44-38-21.68-1.4-1-2-1.13-3.31.11-5.81 5.43-11.81 10.81-20.62 11.79zm-82.42-.14c-2.13-.05-3.63 0-5.1-.14-7.38-.81-14.71-2.1-20-7.9-2.31-2.54-3.86-3-6.21-.37a12.4 12.4 0 0 1 -3.47 2.27c-5.86 3.19-12.21 5.14-18.47 7.34-4.3 1.51-8.69 2.9-12.29 5.83-4.19 3.39-4.22 7.37-.24 11.06a11.82 11.82 0 0 0 5.52 2.69c5.79 1.39 11.47.22 17.14-.58 12.68-1.79 23.81-7.82 35.12-13.29a20.85 20.85 0 0 0 7.96-6.91zm4.11-159.37c1.88 1.71 3.78 3.4 5.62 5.15.89.84 1.63.32 2.43-.06a10 10 0 0 1 10.18.74c.83.52 1.38.84 2.3 0 4.2-3.72 8.53-3.69 12.91-.24.41.33.9.93 1.52.27l7.12-7.71c-14.51-1.85-28.16 1.71-42.12 1.85zm16.7 18.29a13.4 13.4 0 0 0 0-1.79c-.21-2.22-.59-4.38-3-5.36-2.25-.91-3.73.49-5.26 1.8a37.06 37.06 0 0 1 -4.4 3.54c-1.52 1-1.16 1.51.06 2.25 3.11 1.89 6.63 2.44 10.07 3.35 2 .53 2.21-.34 2.4-1.71a18 18 0 0 0 .09-2.08zm6.64-1.29c0 1.29 0 2.58-.09 3.86 0 .76 0 1.55 1.06 1.26 3.5-1 7.15-1.62 10.12-4 .63-.5 1.28-1.08.33-1.91-2.09-1.82-3.7-4.12-6-5.75-1.38-1-2.47-.63-3.72.25-2.37 1.7-1.65 4.08-1.74 6.29z" fill="#455a64"/><path d="m1191.75 340.86.28-.77a1.31 1.31 0 0 1 .21.16c-.14.22-.29.44-.44.65z" fill="#cfdafe"/><path d="m1075.42 271.54a25.13 25.13 0 0 1 -4 4.87c-1.6 1.54-2.5 3.37-.73 5.2s3.77 1.1 5.51-.49a48.09 48.09 0 0 0 5.14-6.09c1.57 2.2 3.06 4.35 4.61 6.45a13.73 13.73 0 0 0 2.92 3.35c1.76 1.23 3.58 1.55 5.08-.17s.94-3.3-.5-4.78a39.29 39.29 0 0 1 -5.81-7.93c2.85-.89 5.48-1.69 8.09-2.55 1.89-.62 4-1.25 5.19-2.78 2.29-3 4.75-2.94 7.93-1.7s6.8 1.36 10.28 1.41c2.23 0 4.09-.75 4.24-3.21s-1.74-3.35-3.9-3.58c-4.12-.44-8.29-.38-12.21-2.18-5.71-2.62-5.85-2.93-1.63-7.26a78.13 78.13 0 0 0 6.69-7.19 4 4 0 0 1 4-1.68 204.86 204.86 0 0 0 41.83-2.53c2-.33 2.94-.16 3.32 2.44 1.45 9.68 4.51 19.05 5.86 28.77 1.17 8.44 2.43 16.88 2.22 25.44-.3 12.23-.13 24.49-1 36.68-1.15 15.6-2.61 31.22-7 46.37a11.12 11.12 0 0 1 -1.47 3.23c-5.66 8.26-15.38 15.56-26.92 14.33-8.78-.93-17.32-3.48-26.23-3.35a262.37 262.37 0 0 0 -27.58 2.07 113.55 113.55 0 0 1 -29.41.16c-9.91-1.4-15.8-8-19.55-16.48-5.39-12.23-7.8-25.28-9.38-38.5-1.94-16.15-1.57-32.33-.6-48.51.72-12.1 3.29-23.93 5.84-35.75.86-3.95 1.46-8 3.07-11.75.44-1 .62-1.52 2-1.27a79.1 79.1 0 0 0 21.68.44c.74-.08 1.52-.51 2 .54 1.63 3.31 4.51 5.51 7.23 7.82 1.42 1.22 2 2.1-.31 3.05-3.39 1.4-6.76 2.83-10.46 3.2-2.31.22-3.91 1.27-3.69 3.71a3.07 3.07 0 0 0 4.1 2.82c4.91-1.38 8.55.11 12.28 3.44 2.96 2.54 7.14 3.02 11.27 3.94z" fill="#546e7a"/><path d="m1165.29 229.55c7.43-10.51 5-21.29.66-32-3.45-8.53-10.32-14.48-16.59-20.85-6.75-6.86-15.67-9.35-24.41-12.27-15-5-30.38-5.15-45.92-4.21-8.12.49-16.3.54-24.07 3.23-12.3 4.26-23.84 9.89-33 19.53-6.13 6.48-8.88 14.4-9.74 23.11a43.69 43.69 0 0 0 4 23.16 7.57 7.57 0 0 1 .32 1.41 24.58 24.58 0 0 1 -7.2-3.85c-7.92-5.49-15.07-11.76-19.16-20.76-4.89-10.79-4.25-21.84-.82-32.81 7.21-23 21.38-40.85 41.42-53.87a335.53 335.53 0 0 0 42.36-32.28c5.61-5.07 10.63-10.74 16.53-15.5 3.11-2.51 5.92-3.2 8.67-1.19 8.59 6.24 18.51 10.47 26.66 17.33 14.34 12.08 31.15 20.46 46.33 31.25 17 12.09 29 28 33 48.76a60.39 60.39 0 0 1 -2.22 32.86c-1.06 2.87-3.19 5-4.87 7.41-7.75 11.21-18.89 17.58-31.33 22.1zm-85.88-76.26c9.73.19 18.14-1.57 24-4.83 6.5-3.65 9.65-10.29 7.44-16.08-2-5.31-6.08-8.82-11.18-10.92-12.37-5.09-24.66-4.94-36.61 1.45-8.23 4.39-13.4 17.47-1.15 25 5.54 3.48 11.52 5.66 17.5 5.38z" fill="#546e7a"/><path d="m1120.73 234.69c-7.26.38-14.49-1-21.73-.49-16.64 1.15-33.35.73-50 2.35a63 63 0 0 1 -18.11-.87 7.66 7.66 0 0 1 -5.45-3.61c-7.11-11.28-8.87-23.13-4.07-35.75 2.4-6.29 6.85-10.89 12.22-14.63 12.09-8.4 25.14-14 40.2-14.47 9.94-.34 19.88-1.08 29.78-.23 12.73 1.1 25.5 3.76 36.05 10.9 11.57 7.82 21.18 18.09 23.33 33.08 1 6.71-1.25 12.2-5.21 17.66-3 4.2-7 4.41-11.16 4.92-8.58 1.04-17.22.87-25.85 1.14zm-50.32-14.34c-.19 5.65 5.47 9.54 11.11 6.71a4.71 4.71 0 0 1 4.6-.07 10.1 10.1 0 0 0 9.16-.57c4-2.17 6.06-7.3 4.44-10.88-.8-1.76-2.13-2.66-4-2.25a3 3 0 0 0 -2.43 3.57c.18 1.72.08 3.31-1.8 3.92s-3.35 0-4.7-1.6c-2.34-2.7-4.23-2.51-6.6.3-.66.78-1.25 2.26-2.48 1.49-1.52-.94-.25-2.11.37-3 1.27-1.84 1.37-3.6-.5-5s-3.66-.64-5 .93-2.13 3.62-2.17 6.45zm58.35-4a15.73 15.73 0 0 0 11.86-5.51c1.16-1.55 1.42-3.14 0-4.57s-3.21-1.32-4.8 0c-.62.5-1.14 1.12-1.78 1.59-3.46 2.59-8.74 2-11.19-1.36-1.49-2.07-3.16-3.35-5.39-1.59s-1.29 3.92.09 5.81c2.8 3.86 6.9 5.14 11.21 5.66zm-81.84-1.23a12.09 12.09 0 0 0 10.73-3.94 3.17 3.17 0 0 0 .16-4.57 2.87 2.87 0 0 0 -4.25-.45c-3.34 2.92-6.87 2.95-10.75 1.36-1.84-.76-3.62-.39-4.49 1.61s.09 3.51 1.8 4.47a12.08 12.08 0 0 0 6.8 1.55z" fill="#fefefe"/><path d="m1141.19 402.36c8.82-1 14.76-6.33 20.58-11.79 1.33-1.24 1.91-1.07 3.31-.11 12.09 8.24 23.63 17.48 38 21.68a14.23 14.23 0 0 1 2.45 1.05c3.85 2 4.62 6 1.56 9.07-5.3 5.33-12.05 6.22-19 5.41-16.17-1.87-29.6-9.56-41.57-20.18-1.69-1.49-3.62-2.76-5.33-5.13z" fill="#fefefe"/><path d="m1058.77 402.22a20.85 20.85 0 0 1 -8 6.91c-11.31 5.47-22.44 11.5-35.12 13.29-5.67.8-11.35 2-17.14.58a11.82 11.82 0 0 1 -5.52-2.69c-4-3.69-4-7.67.24-11.06 3.6-2.93 8-4.32 12.29-5.83 6.26-2.2 12.61-4.15 18.47-7.34a12.4 12.4 0 0 0 3.47-2.27c2.35-2.59 3.9-2.17 6.21.37 5.27 5.8 12.6 7.09 20 7.9 1.47.16 2.97.09 5.1.14z" fill="#fefefe"/><path d="m1062.88 242.85c14-.14 27.61-3.7 42.15-1.87l-7.19 7.77c-.62.66-1.11.06-1.52-.27-4.38-3.45-8.71-3.48-12.91.24-.92.8-1.47.48-2.3 0a10 10 0 0 0 -10.18-.74c-.8.38-1.54.9-2.43.06-1.84-1.79-3.74-3.48-5.62-5.19z" fill="#fefefe"/><path d="m1079.58 261.14a18 18 0 0 1 -.07 2.08c-.19 1.37-.43 2.24-2.4 1.71-3.44-.91-7-1.46-10.07-3.35-1.22-.74-1.58-1.29-.06-2.25a37.06 37.06 0 0 0 4.4-3.54c1.53-1.31 3-2.71 5.26-1.8 2.41 1 2.79 3.14 3 5.36a13.4 13.4 0 0 1 0 1.79z" fill="#fefefe"/><path d="m1086.22 259.85c.09-2.21-.63-4.59 1.7-6.25 1.25-.88 2.34-1.23 3.72-.25 2.3 1.63 3.91 3.93 6 5.75.95.83.3 1.41-.33 1.91-3 2.34-6.62 3-10.12 4-1 .29-1.09-.5-1.06-1.26.04-1.32.06-2.61.09-3.9z" fill="#fefefe"/><path d="m1166 230.13-.76.13.09-.71z" fill="#fefefe"/><path d="m1079.41 153.29c-6 .28-12-1.9-17.54-5.34-12.25-7.57-7.08-20.65 1.15-25 12-6.39 24.24-6.54 36.61-1.45 5.1 2.1 9.15 5.61 11.18 10.92 2.21 5.79-.94 12.43-7.44 16.08-5.82 3.22-14.23 4.98-23.96 4.79zm1.15-6.6c6.34.14 14.21-1.39 18.78-3.72 6.63-3.38 7.12-8.6 1.23-13.16-8.47-6.57-26.4-6.85-35.2-.5-3.9 2.82-6.51 9.19.27 13.08a28.55 28.55 0 0 0 14.92 4.3z" fill="#455a64"/><path d="m1070.41 220.35c0-2.83.67-4.82 2.09-6.43s3.17-2.27 5-.93 1.77 3.12.5 5c-.62.91-1.89 2.08-.37 3 1.23.77 1.82-.71 2.48-1.49 2.37-2.81 4.26-3 6.6-.3 1.35 1.56 2.84 2.2 4.7 1.6s2-2.2 1.8-3.92a3 3 0 0 1 2.43-3.57c1.92-.41 3.25.49 4 2.25 1.62 3.58-.43 8.71-4.44 10.88a10.1 10.1 0 0 1 -9.16.57 4.71 4.71 0 0 0 -4.6.07c-5.56 2.81-11.22-1.08-11.03-6.73z" fill="#455a64"/><path d="m1128.76 216.38c-4.31-.52-8.41-1.8-11.22-5.63-1.38-1.89-2.31-4.07-.09-5.81s3.9-.48 5.39 1.59c2.45 3.4 7.73 3.95 11.19 1.36.64-.47 1.16-1.09 1.78-1.59 1.59-1.32 3.29-1.51 4.8 0s1.17 3 0 4.57a15.73 15.73 0 0 1 -11.85 5.51z" fill="#455a64"/><path d="m1046.92 215.15a12.08 12.08 0 0 1 -6.8-1.52c-1.71-1-2.67-2.49-1.8-4.47s2.65-2.37 4.49-1.61c3.88 1.59 7.41 1.56 10.75-1.36a2.87 2.87 0 0 1 4.25.45 3.17 3.17 0 0 1 -.16 4.57 12.09 12.09 0 0 1 -10.73 3.94z" fill="#455a64"/><path d="m1080.56 146.69a28.55 28.55 0 0 1 -14.92-4.3c-6.78-3.89-4.17-10.26-.27-13.08 8.8-6.35 26.73-6.07 35.2.5 5.89 4.56 5.4 9.78-1.23 13.16-4.57 2.33-12.44 3.86-18.78 3.72z" fill="#fefefe"/></svg>