<svg viewBox="0 0 460 440" xmlns="http://www.w3.org/2000/svg"><path d="m342.75 284c4.66-1.66 8.71-4.57 13-6.94 6.72-3.68 13.37-7.52 19.77-11.73 4.48-2.97 9.48-5.46 12.48-10.33a20.47 20.47 0 0 0 3.08-9.87c.56-9.69 5.39-16.47 13.14-21.85a48.39 48.39 0 0 0 9.24-8.5c3.22-3.81 2.48-8.59 1.69-13.11-.53-3-1.73-6-2.08-9-.52-4.62 2.12-8.11 4.89-11.47 2.25-2.74 5.69-4.22 7.67-7.19 4.57-6.84 4.5-14.15 2.09-21.72-.77-2.43-2.29-4.42-3.25-6.7-.68-1.63-1.2-3.44.55-4.65a3.72 3.72 0 0 1 4.74.47c9.3 8 16.65 17.36 19.69 29.59 1.25 5 .1 9.71-1.14 14.48-1.81 6.95-4.92 13.51-5.89 20.72a99.62 99.62 0 0 0 -.66 19.23c.36 6.1-.81 12.14-2.43 18.08-1.79 6.56-4.11 12.94-6.23 19.39a41.41 41.41 0 0 0 -1.17 22.91c2.28 9.17-1 16.73-5.16 24.27-2.2 4-4.33 8-4.06 12.68a49.36 49.36 0 0 1 -11.83 35.9c-6.2 7.4-11.92 15.17-18.77 22.05a113.74 113.74 0 0 1 -26.43 19.29 284.35 284.35 0 0 1 -62.13 25.24 199.36 199.36 0 0 1 -33.55 6.44c-13.21 1.25-26.38.32-39.56-.41-8.67-.48-17.31-1.25-26-2-11.24-.94-22.45-2-33.59-3.77-13.36-2.09-26.62-4.64-39.34-9.33-13.56-5-26-12.22-37.92-20.28a171.65 171.65 0 0 1 -31.37-26.58c-12-13.23-23.62-26.85-31.2-43.3-5.17-11.31-8.32-23.3-11.02-35.43-3.21-14.19-5.61-28.52-7.89-42.86a149.47 149.47 0 0 1 -1.86-32c.54-9.34 1.93-18.67 2.61-28 .92-12.63 5-24.28 8.87-36 4.07-12.26 8.58-24.41 15.11-35.73 4.37-7.56 8.69-15.14 14.13-22a149.71 149.71 0 0 1 14.62-15.4 329.17 329.17 0 0 1 25.9-21.75c3.82-2.93 7.69-5.77 11.66-8.48 3.08-2.11 3.69-5.77 5-8.89a83.63 83.63 0 0 0 5.85-21.6c.52-3.6 3.85-5.08 6.91-2.9 5.79 4.13 12.09 7.43 18.22 11.03a6.82 6.82 0 0 0 6.64.48c10.84-4.27 22.11-7.13 33.43-9.8 10.89-2.55 21.8-5.22 32.8-7.06 11.43-1.9 22.88-2.68 34.51-1 26 3.83 51.64 8.79 76.5 17.26 20.65 7 39.12 18.3 56.62 31.17 4.84 3.57 9.42 7.49 14.18 11.18 3.36 2.6 3.4 6 2.34 9.54-2.86 9.46-7.69 18-12.84 26.36-5.71 9.26-12.53 17.69-19.45 26.05-.46.55-1.53 1-.87 2s1.44 0 2.06-.22a276 276 0 0 0 25.84-10.25c3.41-1.57 7-2.68 11-2a8.52 8.52 0 0 1 6.81 5.24c3.08 7 2.79 14.13.39 21.09-4.55 13.17-9.86 26-18.06 37.45-4.55 6.33-10.32 11.53-15.75 17.08-8.94 9.14-19.44 16.27-29.38 24.11-4.6 3.63-4.95 8.6-5.71 13.61-1.38 9.09.68 18 1.67 26.9a67.44 67.44 0 0 1 .15 7c-.01 3.91-.24 7.81.74 11.81zm-100.31-49.58c-14.71 12.63-28.93 25.8-43.54 39.46 6.34 1.95 12 3.74 17.65 5.42 4.92 1.45 6.08 1.21 8.72-3.3a169.35 169.35 0 0 0 17.5-41.25c.24-.24.34-.5 0-.77zm193.83-75.42c.53 9.39-1.68 17.66-9.41 23.48-6 4.54-7.63 9.68-5.25 17.07 3.31 10.28.1 19.06-8.59 25.68-2.09 1.59-4.16 3.2-6.19 4.86-4.73 3.88-8.27 8.2-8.64 14.89-.56 10.13-5.61 17.84-14.27 23.29q-8.06 5.09-16.25 10c-8.91 5.31-18.29 9.83-26.88 15.68-6.32 4.31-12.58 8.53-19.82 11.35-8.81 3.44-17.59 6.95-26.6 9.83-15.37 4.87-31.37 5.17-47.25 6.06-6.65.37-13.29.69-19.9 1.61-11 1.53-22 3.12-33.09 3.32a245.39 245.39 0 0 1 -27.26-.77c-5.11-.47-10.19-1.3-15.25-2.21-4.25-.78-4.84-2.57-1.93-6.37a261.62 261.62 0 0 1 18.83-22.56c19.11-20 39.62-38.43 60.14-56.88 17.14-15.41 34.47-30.6 52.29-45.22 12.57-10.32 25.78-19.87 37.75-30.9 8.4-7.74 16.56-15.77 25.58-22.78 13.76-10.7 24.55-23.9 33.7-38.57 4.64-7.45 8.83-15.13 11.58-23.52.46-1.41.41-2.38-.85-3.42-23.63-19.66-49.28-35.65-79.14-44.2-16.95-4.85-34.23-8.14-51.5-11.51-14.48-2.81-29-3.68-43.6-1.05-15.47 2.84-30.69 6.48-45.9 10.32a131.88 131.88 0 0 0 -17.69 5.65c4.5 1.89 8.38 3.55 12.27 5.16 15.14 6.26 31.15 9.43 46.94 13.4 24.17 6.07 45.51 17.31 63.01 35.31a12.79 12.79 0 0 0 5.8 3.48c9.49 2.86 18.67 6.41 26.82 12.25 1.8 1.29 2.9 3.3 5 4.26 3 1.35 3.29 4.82.53 6.76a43.66 43.66 0 0 0 -5.09 4.28c-17.38 16.69-36.25 31.59-55 46.71-29.76 24.06-61.36 45.78-90.21 71-12.2 10.65-23.88 21.83-33.51 34.94-2.19 3-5.27 5.52-6 9.27-.62 3-2.18 4-5 4a123.79 123.79 0 0 1 -14.78-1.25c-10.4-1.21-20.82-2.31-31-4.89-8.86-2.25-16.15-6.78-20.8-14.9-1.67-2.91-2.95-5.93-2.44-9.46.85-6 5.28-8.28 10.16-10a89.23 89.23 0 0 1 14.86-3.89c2.13-.37 3-1 2.27-3.55a65.35 65.35 0 0 1 -2.15-14.62c-.18-5.16-.67-10.11-3.89-14.58a39.93 39.93 0 0 1 -5.22-11.52c-4.4-13.86-5.18-27.94-3.83-42.43a118 118 0 0 1 15.38-48.52c7.19-12.59 14-25.44 20.91-38.19.59-1.09 1.54-2.1 1.46-3.52-.27 0-.52-.12-.62 0-4 3.12-7.9 6.28-11.89 9.39-19.56 15.25-35.57 33.4-46 56.13a285.35 285.35 0 0 0 -13 34.72c-1.74 5.56-4.13 10.95-4.84 16.78-.93 7.6-1.6 15.23-2.53 22.83a165.06 165.06 0 0 0 .26 42.6c2.16 15.65 5 31.2 8.39 46.64 3.62 16.52 8.71 32.47 18.3 46.65a209.12 209.12 0 0 0 23.85 29c20.37 20.82 44 36.83 71.85 45.58 23.09 7.24 47.15 9.4 71.17 11.22 11.18.85 22.39 1.22 33.57 2.11a138.13 138.13 0 0 0 33.2-1.64 251 251 0 0 0 62.69-19.31c12.23-5.56 24.23-11.47 35.12-19.43 13-9.51 22.37-22.36 31.94-35a34 34 0 0 0 7-21.76 41 41 0 0 1 6.28-23.84 52.29 52.29 0 0 0 2.41-5.2 15.69 15.69 0 0 0 1-10.08 58.78 58.78 0 0 1 2.72-33c4.57-12 7.52-24.2 6.58-37.19a64.13 64.13 0 0 1 3.05-23.27c1.2-3.94 2.64-7.81 3.8-11.77 1-3.47 2.17-7 1.38-10.67a36.31 36.31 0 0 0 -6.78-14.12zm-278.42 158.35c6.22.92 11.76 1.21 17.3 1.66a166.89 166.89 0 0 0 36.58-1.07c14.71-2 29.43-3.46 44.26-4.07a182.86 182.86 0 0 0 21.95-2c15.71-2.56 30.3-8.7 44.83-14.93 1.19-.51 2.68-1 3.36-1.94 2-2.78 4.9-4.11 7.7-5.65a2.38 2.38 0 0 0 1.53-2.32c0-8.88.41-17.8-1-26.61-1.78-11-2.14-21.86 1-32.67a10.83 10.83 0 0 1 3.29-5.66c4.53-3.72 8.86-7.66 13.74-11 10.46-7.07 19.26-16 27.82-25.17 11.64-12.42 17.65-28 22.95-43.85a20.68 20.68 0 0 0 .19-12c-1.05-3.93-2.2-4.57-6.13-3.29-1.62.53-3.19 1.22-4.78 1.84-7.18 2.81-13.92 6.6-21.42 8.75-7.81 2.25-15.17 5.94-23.21 7.55a4.45 4.45 0 0 0 -2.13 1.07c-3.11 2.74-6.26 5.42-9.36 8.17-8.47 7.5-16.41 15.58-25.32 22.61-18.8 14.83-37.42 29.89-55.37 45.75a12.9 12.9 0 0 0 -4.55 7.49c-3.75 17-10.58 32.92-19.06 48.11a27.22 27.22 0 0 1 -4.21 5.53c-2.76 2.87-6 4.14-10.14 2.95-7.35-2.11-14.71-4.17-21.86-6.88-1.64-.62-2.7-.59-4 .71-8.07 8.09-16.42 15.91-23.89 24.57-3.38 4-6.52 8-10.07 12.35zm3.42-92.28c-.49-.17-.68-.31-.83-.28a70.1 70.1 0 0 1 -33.18-1.86c-9.18-2.64-17.88-6.19-25.45-12.17a19.53 19.53 0 0 1 -6.48-8.2 75.08 75.08 0 0 1 -3.58-41.28c3.71-18.82 14.27-33.12 29.31-44.4 16.07-12 34.33-18.2 54.2-20.25 12.68-1.31 24.82-.13 36.68 5 22.65 9.7 35.52 34.21 33 55.48-.09.82 0 1.65 0 2.85 13.77-10.79 26.93-21.47 39.79-32.53.51-.44 1.26-.83 1-1.7-1.13-3.56-1-7.35-2.24-10.92-3.73-10.9-10.54-19.62-18.78-27.43-16.71-15.85-36.71-25.38-58.8-30.69-13.09-3.16-26.24-6-39-10.6-15.35-5.5-29.7-13-43.6-21.39-3.11-1.88-3.23-1.9-3.88 1.72a84.66 84.66 0 0 1 -6.54 19.71c-8.42 18.68-18.65 36.41-28.49 54.35-5.65 10.32-11.75 20.46-14.61 32.05a153.33 153.33 0 0 0 -3.47 22.36c-2 21.69 1.72 41.78 15.93 59.05 4.44 5.4 8.93 11.24 15.23 14.14 13.25 6.12 27.17 10.21 42.12 8.19 8.53-1.14 15.57-5.05 21.67-11.2zm76.85-72.21a35.35 35.35 0 0 0 -.83-10.8c-6-25.75-27.68-38.33-49.73-39.17-9.71-.37-19.28 1.15-28.71 3.54-18.69 4.75-34.82 13.92-47.24 28.75-13.61 16.27-16.93 35.2-12.53 55.66 1.16 5.41 2.35 10.95 7.11 14.59 10.36 7.92 22.33 11.67 35.11 13.28a64.6 64.6 0 0 0 21.92-1.31c4.36-1 8.93-1.16 12.75-4.12 18.26-14.16 36.52-28.33 55-42.21 4.3-3.23 6.85-6.89 7.13-12.16.11-2.01.02-4.03.02-6.05zm-97 90.21c-1.89.16-3.74.34-5.6.47-11.61.77-22.54-2.35-33.34-6-1.91-.65-3.81-.76-5.09.28-4.79 3.91-10.66 4.48-16.28 5.87-7.6 1.88-15.41 3-22.7 6-4.16 1.73-4.91 3.89-2.85 7.88a23.56 23.56 0 0 0 15.13 12.09c12.61 3.57 25.61 4.34 38.41 6.08 2.33.3 4-.09 5-2.51a8.41 8.41 0 0 1 2.2-2.43c2.4-2.29 5.06-4.36 7.2-6.86 5.36-6.28 10-13.17 16.4-18.56.67-.53 1.57-1.02 1.54-2.31zm150.69-121.94c3.91-3.65 7.43-7 11-10.24.93-.85 1.19-1.52.13-2.44-5.56-4.83-12.23-7.45-19.83-10.37 4.25 7.65 7.74 14.63 8.7 23.05zm-199.95 111.87c-2-1.79-4-3.5-5.92-5.27s-3.86-3.63-6.15-5.79a64.5 64.5 0 0 0 1.91 13.14c.17.83.64 1.38 1.44 1.12 2.92-.95 6.18-.99 8.72-3.2z" fill="#455a64"/><path d="m436.27 159a36.31 36.31 0 0 1 6.82 14.1c.79 3.69-.37 7.2-1.38 10.67-1.16 4-2.6 7.83-3.8 11.77a64.13 64.13 0 0 0 -3.05 23.27c.94 13-2 25.23-6.58 37.19a58.78 58.78 0 0 0 -2.72 33 15.69 15.69 0 0 1 -1 10.08 52.29 52.29 0 0 1 -2.41 5.2 41 41 0 0 0 -6.28 23.84 34 34 0 0 1 -7 21.76c-9.57 12.67-18.94 25.52-31.94 35-10.88 8-22.92 13.87-35.16 19.38a251 251 0 0 1 -62.77 19.33 138.13 138.13 0 0 1 -33.2 1.64c-11.18-.89-22.39-1.26-33.57-2.11-24-1.82-48.08-4-71.17-11.22-27.9-8.75-51.48-24.76-71.85-45.58a209.12 209.12 0 0 1 -23.85-29c-9.59-14.18-14.68-30.13-18.3-46.65-3.39-15.44-6.23-31-8.39-46.64a165.06 165.06 0 0 1 -.26-42.6c.93-7.6 1.6-15.23 2.53-22.83.71-5.83 3.1-11.22 4.84-16.78a285.35 285.35 0 0 1 13-34.72c10.51-22.72 26.52-40.87 46.08-56.1 4-3.11 7.92-6.27 11.89-9.39.1-.08.35 0 .62 0 .08 1.42-.87 2.43-1.46 3.52-6.91 12.77-13.72 25.62-20.91 38.21a118 118 0 0 0 -15.34 48.56c-1.35 14.49-.57 28.57 3.83 42.43a39.93 39.93 0 0 0 5.22 11.52c3.22 4.47 3.71 9.42 3.89 14.58a65.35 65.35 0 0 0 2.15 14.62c.68 2.54-.14 3.18-2.27 3.55a89.23 89.23 0 0 0 -14.86 3.89c-4.88 1.75-9.31 4.08-10.16 10-.51 3.53.77 6.55 2.44 9.46 4.65 8.12 11.94 12.65 20.8 14.9 10.18 2.58 20.6 3.68 31 4.89a123.79 123.79 0 0 0 14.78 1.26c2.82 0 4.38-1 5-4 .78-3.75 3.86-6.3 6-9.27 9.63-13.11 21.31-24.29 33.51-34.94 28.85-25.22 60.45-46.94 90.21-71 18.71-15.12 37.58-30 55-46.71a43.66 43.66 0 0 1 5.09-4.28c2.76-1.94 2.5-5.41-.53-6.76-2.15-1-3.25-3-5-4.26-8.15-5.84-17.33-9.39-26.82-12.25a12.79 12.79 0 0 1 -5.84-3.53c-17.5-18-38.84-29.27-63-35.34-15.79-4-31.8-7.14-46.94-13.4-3.89-1.61-7.77-3.27-12.27-5.16a131.88 131.88 0 0 1 17.69-5.65c15.2-3.81 30.42-7.45 45.89-10.29 14.61-2.63 29.12-1.76 43.6 1.05 17.27 3.37 34.55 6.66 51.5 11.51 29.86 8.55 55.51 24.54 79.14 44.2 1.26 1 1.31 2 .85 3.42-2.75 8.39-6.94 16.07-11.58 23.52-9.15 14.67-19.94 27.87-33.7 38.57-9 7-17.18 15-25.58 22.78-12 11-25.18 20.58-37.75 30.9-17.82 14.62-35.15 29.81-52.29 45.22-20.52 18.45-41 36.92-60.14 56.88a261.62 261.62 0 0 0 -18.83 22.56c-2.91 3.8-2.32 5.59 1.93 6.37 5.06.91 10.14 1.74 15.25 2.21a245.39 245.39 0 0 0 27.26.77c11.13-.2 22.1-1.79 33.09-3.32 6.61-.92 13.25-1.24 19.9-1.61 15.9-.89 31.88-1.21 47.25-6.1 9-2.88 17.79-6.39 26.6-9.83 7.24-2.82 13.5-7 19.82-11.35 8.59-5.85 18-10.37 26.88-15.68q8.19-4.87 16.25-10c8.66-5.45 13.71-13.16 14.27-23.29.37-6.69 3.91-11 8.64-14.89 2-1.66 4.1-3.27 6.19-4.86 8.69-6.62 11.9-15.4 8.59-25.68-2.38-7.39-.78-12.53 5.25-17.07 7.73-5.78 9.94-14.05 9.41-23.44z" fill="#1ebbee"/><path d="m157.85 317.35c3.55-4.35 6.69-8.38 10-12.25 7.47-8.66 15.82-16.48 23.89-24.57 1.29-1.3 2.35-1.33 4-.71 7.15 2.71 14.51 4.77 21.86 6.88 4.12 1.19 7.38-.08 10.14-2.95a27.22 27.22 0 0 0 4.21-5.53c8.48-15.19 15.31-31.09 19.06-48.11a12.9 12.9 0 0 1 4.55-7.49c17.95-15.86 36.57-30.92 55.37-45.75 8.91-7 16.85-15.11 25.32-22.61 3.1-2.75 6.25-5.43 9.36-8.17a4.45 4.45 0 0 1 2.13-1.07c8-1.61 15.4-5.3 23.21-7.55 7.5-2.15 14.24-5.94 21.42-8.75 1.59-.62 3.16-1.31 4.78-1.84 3.93-1.28 5.08-.64 6.13 3.29a20.68 20.68 0 0 1 -.19 12c-5.28 15.83-11.29 31.38-22.93 43.83-8.56 9.13-17.36 18.1-27.82 25.17-4.88 3.29-9.21 7.23-13.74 11a10.83 10.83 0 0 0 -3.29 5.66c-3.12 10.81-2.76 21.69-1 32.67 1.44 8.81 1 17.73 1 26.61a2.38 2.38 0 0 1 -1.53 2.32c-2.8 1.54-5.72 2.87-7.7 5.65-.68 1-2.17 1.43-3.36 1.94-14.53 6.23-29.12 12.37-44.83 14.93a182.86 182.86 0 0 1 -21.95 2c-14.83.61-29.55 2-44.26 4.07a166.89 166.89 0 0 1 -36.53.98c-5.54-.44-11.08-.73-17.3-1.65z" fill="#0f9d58"/><path d="m161.27 225.07c-6.1 6.15-13.14 10.06-21.63 11.2-14.95 2-28.87-2.07-42.12-8.19-6.3-2.9-10.79-8.74-15.23-14.14-14.21-17.27-18-37.36-15.93-59.05a153.33 153.33 0 0 1 3.47-22.36c2.86-11.59 9-21.73 14.61-32 9.84-17.94 20.07-35.67 28.49-54.35a84.66 84.66 0 0 0 6.54-19.71c.65-3.62.77-3.6 3.88-1.72 13.9 8.41 28.25 15.89 43.6 21.39 12.72 4.55 25.87 7.44 39 10.6 22.05 5.26 42.05 14.79 58.77 30.6 8.24 7.81 15 16.53 18.78 27.43 1.22 3.57 1.11 7.36 2.24 10.92.28.87-.47 1.26-1 1.7-12.86 11.06-26 21.74-39.79 32.53 0-1.2-.08-2 0-2.85 2.48-21.27-10.39-45.78-33-55.48-11.86-5.09-24-6.27-36.68-5-19.87 2.05-38.13 8.2-54.2 20.25-15 11.28-25.6 25.58-29.31 44.4a75.08 75.08 0 0 0 3.58 41.28 19.53 19.53 0 0 0 6.48 8.2c7.57 6 16.27 9.53 25.45 12.17a70.1 70.1 0 0 0 33.18 1.86c.14.01.33.15.82.32zm-49.42-119.25c9.66 0 18.33-3.52 24.26-9.8a9.06 9.06 0 0 0 2.36-9.47c-1.09-3.24-3.6-5.09-7.15-5.73a27 27 0 0 0 -15.93 1.87c-5.85 2.55-11.6 5.16-14.5 11.52-2.38 5.22-.23 9.82 5.34 11a22 22 0 0 0 5.62.61z" fill="#db4437"/><path d="m238.12 152.86c0 2 .09 4 0 6-.28 5.27-2.83 8.93-7.13 12.16-18.48 13.88-36.74 28.05-55 42.21-3.82 3-8.39 3.17-12.75 4.12a64.6 64.6 0 0 1 -21.92 1.31c-12.78-1.61-24.75-5.36-35.11-13.28-4.76-3.64-6-9.18-7.11-14.59-4.4-20.46-1.1-39.39 12.53-55.66 12.42-14.83 28.55-24 47.24-28.75 9.43-2.39 19-3.91 28.71-3.54 22.05.84 43.69 13.42 49.73 39.17a35.35 35.35 0 0 1 .81 10.85zm-73.48 43.39c7.06 0 12.61-3.75 14-9.73a19 19 0 0 0 -2.71-15.32c-1-1.43-1.08-2.24 0-3.76 3.59-4.93 2.56-12.42-1.84-15.18-1.93-1.21-3.88-1.43-5.39.57-1.38 1.8-.59 3.32.9 4.76a4.47 4.47 0 0 1 -1.89 7.78c-3.43 1.07-5.86-.55-7.81-3.09-1.2-1.56-2.61-2.29-4.45-1.62s-2.34 2.13-2.18 3.9c.2 2.31-1 4.06-2.27 5.76a4.61 4.61 0 0 1 -4.71 2c-2.09-.39-2.89-2-3.28-3.88a19.85 19.85 0 0 1 -.13-6 3.16 3.16 0 0 0 -2.68-3.79c-2-.35-3.25.73-3.89 2.58a12.87 12.87 0 0 0 -.6 5.08c.53 8.31 4.78 13.1 11.79 12.82 2.43-.1 2.75.63 2.79 2.77.17 8.52 6.11 14.36 14.35 14.35zm6.09-67.06c0 4.26 1.92 8.14 2.48 12.3.51 3.87 2.78 6.58 5.89 8.73 3.27 2.25 7.17 1.23 8.73-2.44a14.69 14.69 0 0 0 1.07-8.57c-.84-4.33-1.86-8.62-2.94-12.9a13.88 13.88 0 0 0 -2.3-5.2c-3.42-4.46-8.6-4.11-11.28.79a14.73 14.73 0 0 0 -1.65 7.29zm-41.08 35a33 33 0 0 0 -4.65-16.68c-2.13-3.8-6.28-4.64-8.79-1.9a11.8 11.8 0 0 0 -3.05 5.46c-1.74 7.94 1.37 14.75 5.28 21.11 2.61 4.24 8.75 3 10.62-1.72.72-1.86.49-3.77.59-6.23z" fill="#fefefe"/><path d="m141.14 243.07c0 1.29-.87 1.78-1.51 2.31-6.37 5.39-11 12.28-16.4 18.56-2.14 2.5-4.8 4.57-7.2 6.86a8.41 8.41 0 0 0 -2.24 2.43c-1 2.42-2.66 2.81-5 2.51-12.79-1.74-25.79-2.51-38.38-6.1a23.56 23.56 0 0 1 -15.13-12.09c-2.06-4-1.31-6.15 2.85-7.88 7.29-3 15.1-4.13 22.7-6 5.62-1.39 11.49-2 16.28-5.87 1.28-1 3.18-.93 5.09-.28 10.8 3.68 21.73 6.8 33.34 6 1.86-.11 3.71-.29 5.6-.45z" fill="#fff"/><path d="m242.77 234.75a169.35 169.35 0 0 1 -17.5 41.25c-2.64 4.51-3.8 4.75-8.72 3.3-5.67-1.68-11.31-3.47-17.65-5.42 14.61-13.66 28.83-26.83 43.54-39.46a2.57 2.57 0 0 0 .33.33z" fill="#4285f4"/><path d="m242.44 234.42.36-.44c.31.27.21.53 0 .77a2.57 2.57 0 0 1 -.36-.33z" fill="#fefefe"/><g fill="#455a64"><path d="m111.85 105.82a22 22 0 0 1 -5.62-.58c-5.57-1.21-7.72-5.81-5.34-11 2.9-6.36 8.65-9 14.5-11.52a27 27 0 0 1 15.93-1.87c3.55.64 6.06 2.49 7.15 5.73a9.06 9.06 0 0 1 -2.36 9.42c-5.93 6.3-14.6 9.86-24.26 9.82zm.58-6.67c7.11-.34 13.21-2.54 18.23-7.36.81-.77 1.62-1.6 1.3-2.86-.36-1.43-1.6-1.23-2.68-1.4-8.14-1.23-14.63 2.28-20.59 7.21-.91.75-1.85 1.92-1.57 3.11.31 1.34 1.89.63 2.87 1a10.3 10.3 0 0 0 2.44.3z"/><path d="m164.64 196.25c-8.24 0-14.18-5.83-14.33-14.33 0-2.14-.36-2.87-2.79-2.77-7 .28-11.26-4.51-11.79-12.82a12.87 12.87 0 0 1 .6-5.08c.64-1.85 1.88-2.93 3.89-2.58a3.16 3.16 0 0 1 2.68 3.79 19.85 19.85 0 0 0 .13 6c.39 1.88 1.19 3.49 3.28 3.88a4.61 4.61 0 0 0 4.71-2c1.29-1.7 2.47-3.45 2.27-5.76-.16-1.77.41-3.27 2.18-3.9s3.25.06 4.45 1.62c2 2.54 4.38 4.16 7.81 3.09a4.47 4.47 0 0 0 1.89-7.78c-1.49-1.44-2.28-3-.9-4.76 1.51-2 3.46-1.78 5.39-.57 4.4 2.76 5.43 10.25 1.84 15.18-1.11 1.52-1 2.33 0 3.76a19 19 0 0 1 2.71 15.32c-1.41 5.96-6.96 9.7-14.02 9.71zm7.5-14.17c0-.3 0-.6 0-.9-.18-5.71-2.22-7.91-7.87-8.69a8.19 8.19 0 0 1 -3.15-.94c-2.25-1.42-3.39 0-3.54 1.72-.32 3.55-1.25 7.12-.09 10.74 1.26 3.93 4.45 6.11 8.48 5.5 4.18-.63 6.22-3.06 6.17-7.43z"/><path d="m170.73 129.19a14.73 14.73 0 0 1 1.65-7.29c2.68-4.9 7.86-5.25 11.28-.79a13.88 13.88 0 0 1 2.3 5.2c1.08 4.28 2.1 8.57 2.94 12.9a14.69 14.69 0 0 1 -1.07 8.57c-1.56 3.67-5.46 4.69-8.73 2.44-3.11-2.15-5.38-4.86-5.89-8.73-.56-4.16-2.5-8.04-2.48-12.3z"/><path d="m129.65 164.23c-.1 2.46.13 4.37-.62 6.23-1.87 4.7-8 6-10.62 1.72-3.91-6.36-7-13.17-5.28-21.11a11.8 11.8 0 0 1 3.05-5.46c2.51-2.74 6.66-1.9 8.79 1.9a33 33 0 0 1 4.68 16.72z"/></g><path d="m112.43 99.15a10.3 10.3 0 0 1 -2.44-.32c-1-.35-2.56.36-2.87-1-.28-1.19.66-2.36 1.57-3.11 6-4.93 12.45-8.44 20.59-7.21 1.08.17 2.32 0 2.68 1.4.32 1.26-.49 2.09-1.3 2.86-5.02 4.84-11.12 7.04-18.23 7.38z" fill="#ffcd40"/><path d="m172.14 182.08c.05 4.37-2 6.8-6.18 7.43-4 .61-7.22-1.57-8.48-5.5-1.16-3.62-.23-7.19.09-10.74.15-1.71 1.29-3.14 3.54-1.72a8.19 8.19 0 0 0 3.15.94c5.65.78 7.69 3 7.87 8.69.01.3.01.6.01.9z" fill="#fefefe"/><path d="m277.94 311.87c15.71-2.56 30.3-8.7 44.83-14.93 1.19-.51 2.68-1 3.36-1.94 2-2.78 4.9-4.11 7.7-5.65a2.38 2.38 0 0 0 1.53-2.32c0-8.88.41-17.8-1-26.61-1.78-11-2.14-21.86 1-32.67a10.83 10.83 0 0 1 3.29-5.66c4.53-3.72 8.86-7.66 13.74-11 10.46-7.07 19.26-16 27.82-25.17 11.64-12.42 17.65-28 22.95-43.85a20.68 20.68 0 0 0 .19-12c-1.05-3.93-2.2-4.57-6.13-3.29-1.62.53-3.19 1.22-4.78 1.84-7.18 2.81-13.92 6.6-21.42 8.75-7.81 2.25-15.17 5.94-23.21 7.55a4.45 4.45 0 0 0 -2.13 1.07c-3.11 2.74-6.26 5.42-9.36 8.17-8.47 7.5-16.41 15.58-25.32 22.61-18.8 14.83-37.42 29.89-55.37 45.75a12.9 12.9 0 0 0 -4.55 7.49c-3.75 17-10.58 32.92-19.06 48.11a27.22 27.22 0 0 1 -4.21 5.53 11.63 11.63 0 0 1 -3.6 2.63l8.45 29.11q11.65-1.12 23.38-1.62a182.86 182.86 0 0 0 21.9-1.9z" fill="#fff"/><path d="m135.54 243.54c-11.61.77-22.54-2.35-33.34-6-1.91-.65-3.81-.76-5.09.28a21.71 21.71 0 0 1 -8 3.93 75.3 75.3 0 0 1 2.19 18.22 76.88 76.88 0 0 1 -1.19 13.53c6.23.83 12.49 1.44 18.72 2.27 2.33.3 4-.09 5-2.51a8.41 8.41 0 0 1 2.17-2.46c2.4-2.29 5.06-4.36 7.2-6.86 5.36-6.28 10-13.17 16.4-18.56.64-.53 1.54-1 1.51-2.31-1.86.16-3.71.34-5.57.47z" fill="#0f9d58"/><path d="m356 164.74a63.94 63.94 0 0 1 -5.26-20.41c-1 .26-2 .49-3 .69a4.45 4.45 0 0 0 -2.13 1.07c-3.11 2.74-6.26 5.42-9.36 8.17-8.47 7.5-16.41 15.58-25.32 22.61-18.8 14.83-37.42 29.89-55.37 45.75a12.9 12.9 0 0 0 -4.55 7.49c-3.75 17-10.58 32.92-19.06 48.11a27.22 27.22 0 0 1 -4.21 5.53 11.63 11.63 0 0 1 -3.6 2.63l8.45 29.11q11.65-1.12 23.38-1.62a182.86 182.86 0 0 0 21.95-2c15.71-2.56 30.3-8.7 44.83-14.93 1.19-.51 2.68-1 3.36-1.94 2-2.78 4.9-4.11 7.7-5.65a2.38 2.38 0 0 0 1.53-2.32c0-8.88.41-17.8-1-26.61-1.78-11-2.14-21.86 1-32.67a10.83 10.83 0 0 1 3.29-5.66c4.53-3.72 8.86-7.66 13.74-11 8.87-6 16.55-13.37 23.9-21a60.73 60.73 0 0 1 -20.27-25.35z" fill="#ffcd40"/><path d="m83.5 241.69c5.3 9.25 8.58 24.92-.77 32.87-2.42 2.06 1.08 5.53 3.49 3.49 11-9.41 7.92-27.7 1.53-38.85-1.57-2.75-5.83-.27-4.25 2.49z" fill="#455a64"/><path d="m219.67 286.49 8.89 30.42c.89 3 5.64 1.74 4.75-1.31l-8.89-30.42c-.89-3-5.64-1.74-4.75 1.31z" fill="#455a64"/><path d="m349.13 139.52c.69 10.25 1.53 20.63 5.87 30.09s11.22 17.11 18 24.7c2.12 2.37 5.6-1.12 3.49-3.48-5.91-6.61-11.95-13.33-16.05-21.26-4.81-9.32-5.69-19.75-6.38-30-.21-3.14-5.14-3.17-4.93 0z" fill="#455a64"/></svg>