<svg viewBox="0 0 512 512" xmlns="http://www.w3.org/2000/svg"><path d="m173.23 176.05a7.7 7.7 0 0 0 -7.7 7.7v194.25a7.7 7.7 0 0 0 15.4 0v-194.25a7.7 7.7 0 0 0 -7.7-7.7z"/><path d="m385.45 127.34h-1.62v-43.64a7.7 7.7 0 0 0 -7.7-7.7h-220.2c-22.11 0-37 13.23-37.08 33v296.6a30.44 30.44 0 0 0 30.41 30.4h236.19a7.7 7.7 0 0 0 7.7-7.7v-293.3a7.7 7.7 0 0 0 -7.7-7.66zm-229.52-35.94h212.5v35.93h-69c-4.17-9.2-12.14-14-23.17-14h-74.81a7.38 7.38 0 0 0 -7.7 7.33 7.61 7.61 0 0 0 4 6.64h-41.82c-9.89 0-21.68-3.15-21.68-18.14 0-11.16 8.1-17.76 21.68-17.76zm67.7 36.94h52.61c5.75 0 11.08 1.82 11.08 15v101.8l-21.51-19a15.16 15.16 0 0 0 -19.78 0l-21.51 19v-102.66s.31-9.61-.89-14.14zm154.12 292.26h-228.49a15 15 0 0 1 -15-15v-268c5.83 3.31 13.16 5.1 21.68 5.1h53.21v1.43 111.65c0 8.92 6.62 11.13 9.86 11.13a11.61 11.61 0 0 0 7.72-3.19l28.92-26 29.5 26a11.61 11.61 0 0 0 7.72 3.19c4.9 0 9.87-3.82 9.87-11.13v-111.63c0-.51-.09-.94-.09-1.43h75.12z"/></svg>