<svg viewBox="0 0 512 512" xmlns="http://www.w3.org/2000/svg"><path d="m191.83 157.16c3.07 2.87 8.18 2.52 11.46-1.08s2.4-8.21-1-11c-3.23-2.6-12.85-12.13-1.14-25.42 9.4-10.61 20.3-26.67 6.68-43.73a8.45 8.45 0 0 0 -11.48-1.49 7.58 7.58 0 0 0 -1.55 11c3.67 4.58 6.2 10.24-6.17 24.2-7.09 7.98-18.86 26.89 3.2 47.52z"/><path d="m287.38 157.16c3.07 2.87 8.18 2.52 11.45-1.08s2.41-8.21-1-11c-3.23-2.6-12.85-12.13-1.13-25.42 9.37-10.59 20.3-26.66 6.65-43.66a8.46 8.46 0 0 0 -11.49-1.49 7.58 7.58 0 0 0 -1.55 11c3.66 4.58 6.21 10.24-6.16 24.2-7.06 7.91-18.83 26.82 3.23 47.45z"/><path d="m239.35 157.16c3.07 2.87 8.17 2.52 11.45-1.08s2.4-8.21-1-11c-3.22-2.6-12.85-12.13-1.12-25.42 9.32-10.59 20.26-26.66 6.63-43.66a8.46 8.46 0 0 0 -11.49-1.49 7.59 7.59 0 0 0 -1.55 11c3.66 4.58 6.21 10.24-6.16 24.2-7.06 7.91-18.82 26.82 3.24 47.45z"/><path d="m389 265.89c0-12.34-11.73-20.21-20.21-19.34v38.69c9.41.07 20.21-6.73 20.21-19.35z"/><path d="m157.5 222.54a7.78 7.78 0 0 0 -7.78 7.78v97.48a7.79 7.79 0 1 0 15.57 0v-97.48a7.78 7.78 0 0 0 -7.79-7.78z"/><path d="m379.45 329.86a65.47 65.47 0 0 0 1.44-127.62v-5.88a19.41 19.41 0 0 0 -19.19-19.1h-239.34a19.06 19.06 0 0 0 -19 19.1v118.93a74.12 74.12 0 0 0 27.79 57.84h-33.43c-8.31 0-16.72 6.6-16.72 19 0 25.91 25.86 47 57.65 47h214.35c31.81 0 57.67-21.08 57.67-47 0-12.8-8.5-19-16.75-19h-40.82a74.28 74.28 0 0 0 26.35-43.27zm14.43 59.65c2.57 18.25-17.66 33.25-40.92 33.25h-214.31c-23.52 0-43.88-15.25-40.93-33.25zm-87.2-16.35h-129.06a58 58 0 0 1 -57.85-57.87v-118.93a2.8 2.8 0 0 1 2.59-2.72h239.34a3 3 0 0 1 2.8 2.72v20.49c18.9-1.6 50.12 14.67 50.12 49 0 37.27-36.55 51.15-50.12 49 0 32.28-26.01 58.31-57.82 58.31z"/></svg>