<svg viewBox="0 0 512 512" xmlns="http://www.w3.org/2000/svg"><path d="m392 251a25 25 0 0 0 -25 25v131h-262v-262h147a25 25 0 0 0 0-50h-172a25 25 0 0 0 -25 25v312a25 25 0 0 0 25 25h312a25 25 0 0 0 25-25v-156a25 25 0 0 0 -25-25z"/><path d="m457 79.83c0-.36 0-.71 0-1.06s0-.43-.05-.64 0-.39 0-.58l-.09-.77-.06-.43c0-.28-.09-.55-.14-.82l-.06-.38-.18-.82-.09-.37c-.06-.26-.14-.52-.21-.78l-.11-.41-.24-.71-.15-.46-.24-.64-.21-.52c-.07-.19-.16-.37-.24-.55s-.17-.4-.26-.59-.16-.31-.23-.47l-.33-.64-.23-.4c-.12-.22-.25-.44-.38-.66s-.15-.25-.23-.37l-.42-.67-.25-.35-.45-.64-.31-.39-.44-.57-.43-.49c-.12-.14-.24-.29-.37-.43a24.08 24.08 0 0 0 -1.75-1.75l-.42-.37c-.17-.14-.33-.29-.51-.43l-.55-.44-.4-.31-.63-.44c-.12-.09-.24-.18-.37-.26l-.66-.42c-.12-.08-.24-.16-.37-.23s-.43-.26-.66-.38l-.48-.19-.63-.32-.47-.24-.58-.26c-.19-.08-.37-.17-.56-.24l-.51-.21-.65-.24-.4-.19-.73-.24-.39-.11-.79-.21-.37-.09-.82-.18-.38-.06-.82-.14-.44-.06-.76-.09h-.57-.65c-.35 0-.7 0-1.06 0h-98.22a25 25 0 0 0 0 50h37.64l-153.32 153.2a25 25 0 0 0 35.36 35.36l153.32-153.32v37.64a25 25 0 0 0 50 0z"/></svg>