<svg viewBox="0 0 512 512" xmlns="http://www.w3.org/2000/svg"><path d="m256 41.45c-121.55 0-220 98.5-220 220a220 220 0 0 0 150.42 208.72c11 2.07 15-4.73 15-10.58 0-5.22-.19-19.06-.28-37.4-61.19 13.28-74.1-29.51-74.1-29.51-10-25.39-24.48-32.18-24.48-32.18-19.92-13.64 1.55-13.36 1.55-13.36 22.09 1.54 33.69 22.66 33.69 22.66 19.62 33.64 51.5 23.92 64.08 18.29 2-14.22 7.64-23.92 13.93-29.42-48.81-5.5-100.17-24.42-100.17-108.67 0-24 8.53-43.63 22.64-59-2.47-5.56-9.9-27.92 1.93-58.23 0 0 18.42-5.9 60.5 22.55a207.55 207.55 0 0 1 110 0c41.8-28.45 60.22-22.55 60.22-22.55 11.83 30.31 4.4 52.67 2.2 58.23 14 15.4 22.55 35 22.55 59 0 84.52-51.42 103.13-100.37 108.54 7.7 6.6 14.85 20.09 14.85 40.7 0 29.44-.28 53.09-.28 60.24 0 5.77 3.85 12.65 15.13 10.45a219.24 219.24 0 0 0 150.99-208.48c0-121.5-98.51-220-220-220"/></svg>