<svg viewBox="0 0 512 512" xmlns="http://www.w3.org/2000/svg"><path d="m476 266.12a196.79 196.79 0 0 0 -24.76-95.85c67.22-152.13-72-129.85-79.78-128.33a354.46 354.46 0 0 0 -82 26.78c-3.71-.2-7.44-.32-11.21-.32-93.95 0-172.6 65.53-192.73 153.38 49.52-55.55 84.18-78 104.93-86.94q-5 4.44-9.74 9c-1.06 1-2.09 2-3.13 3-2.11 2-4.21 4-6.26 6.09-1.22 1.21-2.4 2.44-3.6 3.66-1.82 1.85-3.64 3.7-5.41 5.57-1.26 1.32-2.49 2.64-3.73 4-1.66 1.77-3.31 3.55-4.92 5.33q-1.89 2.08-3.73 4.17-2.3 2.58-4.55 5.18c-1.24 1.43-2.48 2.87-3.69 4.3-1.42 1.68-2.83 3.36-4.21 5-1.23 1.49-2.46 3-3.66 4.45s-2.57 3.21-3.84 4.81-2.46 3.09-3.66 4.64-2.25 2.94-3.37 4.41c-1.26 1.66-2.54 3.32-3.77 5-.88 1.18-1.72 2.35-2.58 3.53-7.82 10.66-15 21.11-21.4 31.15v.08c-1.7 2.64-3.33 5.25-4.94 7.83-.09.14-.18.28-.26.42-1.61 2.6-3.16 5.14-4.67 7.67-.06.08-.11.17-.17.26-4.06 6.79-7.83 13.33-11.23 19.49-17.84 32.25-26.51 54.8-26.88 56.12-56.24 201 119.27 116.14 143.76 103.47a197.84 197.84 0 0 0 273.81-111.14h-103.89c-15.37 26-45 43.56-79 43.56-49.81 0-90.19-37.74-90.19-84.3h282.8a200.07 200.07 0 0 0 1.66-25.47zm-36.94-194.57c17 11.5 30.68 29.54 7.23 90.32a198.46 198.46 0 0 0 -96.56-80.15c18.27-8.84 63.61-27.53 89.33-10.17zm-361.85 371.53c-13.87-14.22-16.32-48.86 14.28-112a198.28 198.28 0 0 0 86.09 105.22c-19.81 10.9-72.4 35.45-100.37 6.76zm113.91-205.57c1.58-45.25 41-81.48 89.35-81.48s87.77 36.23 89.35 81.48z"/></svg>