<svg viewBox="0 0 512 512" xmlns="http://www.w3.org/2000/svg"><path d="m134.2 301a8 8 0 0 0 -1.4 11.19l64.93 83.31a8 8 0 0 0 12.58-9.8l-64.93-83.31a7.94 7.94 0 0 0 -11.18-1.39z"/><path d="m440.94 143.9c6.37-5.91 10.44-14.32 10-23.21-.71-16.13-12.26-30.87-30-29.76-15.13.94-154.5 10-173 11.2.15-14.92-10.83-26.06-24.14-26.06a24 24 0 0 0 -21 12.65 23.33 23.33 0 0 0 -11.4-3.07 24.1 24.1 0 0 0 -23.17 18.44l-29.46.24c-12.67.8-22.77 12.31-22 25.13a23.17 23.17 0 0 0 6.04 14.54 23.91 23.91 0 0 0 -6 15.11c-.34 12.6 9.56 23.74 22.14 24.21l28.39.17v73.51h-84.86a21.19 21.19 0 0 0 -19.35 11.94c-3.75 7.81-2.47 17.5 3.27 24.68l99.73 128c7 8.79 18 14.39 28.11 14.39h92.76c10.82 0 22.85-6.29 29.27-15.3l90.48-127.46a23.74 23.74 0 0 0 2.16-24.68 21.44 21.44 0 0 0 -19.23-11.57h-174.25v-46.71a23.48 23.48 0 0 0 8.35 1.6 24.29 24.29 0 0 0 24.07-23.76s157.78 7.87 173.15 8.8c16.87 1 29.39-13.72 29.91-30a30.24 30.24 0 0 0 -9.97-23.03zm-301.16-23.65 27.6-.2v16h-27.25a7.91 7.91 0 0 1 -7.47-7.5 8.06 8.06 0 0 1 7.12-8.3zm-.69 47.15c-3.14-.13-6.41-3.7-6.29-8s3.38-7.43 6.68-7.42h27.9v15.54zm250.59 105.49c5.58 0 7.4 6.31 4 11.05l-90.44 127.44c-3.37 4.73-10.69 8.62-16.24 8.62h-92.76c-5.57 0-12-3.74-15.54-8.25l-99.84-128.13c-3.63-4.54-2-10.73 3.62-10.73h100.85v-162.67a8.1 8.1 0 1 1 16.16 0v162.67zm-156.91-85.46a9 9 0 1 1 -17.94 0v-86.91a9 9 0 1 1 17.94 0zm189.07-6.43-173.92-8.83v-20.17h174.39c6.55.52 12.92 6.95 12.7 14.42s-6.26 14.58-13.17 14.58zm.39-45h-174.31v-17.9l174.87-11.28c7.32-.48 12.31 7.12 12.64 14.61s-6.21 13.99-13.2 14.57z"/></svg>