<svg viewBox="0 0 512 512" xmlns="http://www.w3.org/2000/svg"><path d="m434 157.37a73.24 73.24 0 0 0 -27.09-28.72l-2.14-1.18c0 .23.26.47.26.72q9.33 17.44 9.31 44.16c0 40.14-16.69 72.42-50 97.14s-80 37.05-140 37.05h-14c-10.52 0-21.06 8.42-23.44 18.68l-16.84 72.71c-2.32 10.28-12.92 18.71-23.47 18.71h-32.8l-2.36 10.68c-2.37 10.3 4.31 18.68 14.82 18.68h49.15l.19-.28c10.45 0 20.91-8.32 23.27-18.53l16.87-72.91c2.37-10.47 13-18.78 23.49-18.78h14.25c59.84 0 106.62-12.33 139.87-36.8 33.49-24.71 50.1-57 50.1-97.13 0-17.57-3.07-32.32-9.44-44.2z"/><path d="m132.76 402.76c10.58 0 21.15-8.33 23.51-18.56l16.8-72.66c2.38-10.21 13-18.51 23.4-18.51h14c59.85 0 106.66-12.11 139.91-36.82q50.17-36.7 50.09-96.89 0-26.52-9.24-44.28c-5.94-11.82-15.22-21.43-26.87-28.79-12.1-7.46-26.11-12.68-42.5-15.67s-35.69-4.58-57.78-4.58h-102.36c-10.55 0-21.06 8.38-23.45 18.72l-69.27 299.93c-2.34 10.3 4.32 18.68 14.82 18.68h49.18zm63.93-192.14 14.73-63.62c2.34-10.27 12.89-18.65 23.43-18.65h16.06-.3c18.77 0 33 3.19 42.52 9.58s14.25 16 14.25 29.14q0 29.86-22.08 46.1c-14.73 10.74-35.41 16.17-61.75 16.17h-12.13c-10.42-.05-17.1-8.46-14.73-18.72z"/></svg>