<svg viewBox="0 0 512 512" xmlns="http://www.w3.org/2000/svg"><path d="m410.49 168h-57.09l9.47-9.47a51.51 51.51 0 0 0 -72.87-72.82l-34 34.06-34.05-34a51.5 51.5 0 1 0 -72.84 72.82l9.47 9.48h-57.09a25.51 25.51 0 0 0 -25.49 25.45v38.74a25.45 25.45 0 0 0 17.27 24 25.42 25.42 0 0 0 -2.21 10.31v149.3a25.51 25.51 0 0 0 25.48 25.5h278.9a25.53 25.53 0 0 0 25.5-25.5v-149.29a25.11 25.11 0 0 0 -2.23-10.31 25.44 25.44 0 0 0 17.29-24v-38.75a25.53 25.53 0 0 0 -25.51-25.52zm-249.27-70.16a34.35 34.35 0 0 1 48.56 0l46.22 46.21 46.21-46.21a34.34 34.34 0 0 1 48.55 48.57l-21.65 21.59h-36.78l40-40a8.33 8.33 0 1 0 -11.79-11.78l-51.78 51.78h-25.6l-51.78-51.78a8.33 8.33 0 0 0 -11.78 11.78l40 40h-36.76l-21.62-21.61a34.35 34.35 0 0 1 0-48.55zm62.83 326.87h-107.51a8.85 8.85 0 0 1 -8.82-8.84v-149.29a8.84 8.84 0 0 1 8.82-8.83h107.51zm0-183.63h-122.56a8.83 8.83 0 0 1 -8.82-8.82v-38.74a8.83 8.83 0 0 1 8.82-8.83h122.56zm47.22 183.63h-30.55v-240h30.55zm133-8.84a8.86 8.86 0 0 1 -8.84 8.84h-107.5v-167h107.51a8.85 8.85 0 0 1 8.84 8.83zm15.05-183.61a8.85 8.85 0 0 1 -8.84 8.82h-122.55v-56.39h122.56a8.85 8.85 0 0 1 8.84 8.83z"/></svg>