<svg viewBox="0 0 512 512" xmlns="http://www.w3.org/2000/svg"><path d="m122.56 246.76c2.89 0 5.54-1.63 7.44-4.6a19.51 19.51 0 0 0 0-19.6c-1.9-3-4.55-4.6-7.44-4.6s-5.54 1.63-7.44 4.6a19.51 19.51 0 0 0 0 19.6c1.88 2.97 4.55 4.6 7.44 4.6z"/><path d="m148 313c48 0 96-24.91 96-79.68 0-32.62-19.2-62.4-52.8-77.76-43.2-22.56-34.2-34.56-43.2-34.56s0 12-43.2 34.56c-33.6 15.36-52.8 45.14-52.8 77.76 0 54.77 48 79.68 96 79.68zm0-147.84c7.95 0 14.4 4.51 14.4 10.08s-6.4 10.08-14.4 10.08-14.4-4.51-14.4-10.08 6.45-10.08 14.4-10.08zm0 34.56c37.11 0 67.2 23.21 67.2 51.84s-30.09 51.84-67.2 51.84-67.2-23.21-67.2-51.84 30.09-51.84 67.2-51.84z"/><path d="m121 272.15a8.94 8.94 0 0 1 4.36 5.83 18.12 18.12 0 0 0 2.23 5.44c1.82 2.93 5.45 6.61 12.34 7.55a22.74 22.74 0 0 0 4.49.43 24.55 24.55 0 0 0 7.34-1.11c4.3-1.34 10.38-4.61 14.92-12.59a40.1 40.1 0 0 1 2.48-4.05l.66-.07c5.88-.71 11.31-3.61 16.14-8.61a7 7 0 0 0 .25-9.29 5.88 5.88 0 0 0 -8.83-.28c-3.29 3.41-6.7 5.07-10.42 5.07a15.94 15.94 0 0 1 -6.44-1.5 31.41 31.41 0 0 1 -9.34-6.76 6 6 0 0 0 -4.49-2.09h-.37a6.11 6.11 0 0 0 -4.6 2.66c-3.67 5.31-7.44 8.07-11.19 8.2h-.29c-6 0-11.13-6.34-11.17-6.39a5.91 5.91 0 0 0 -8.8-.75 7 7 0 0 0 -.69 9.27 33.24 33.24 0 0 0 11.42 9.04zm19.9-.86a28 28 0 0 0 3.61-2.55 5.23 5.23 0 0 1 3.32-1.19 4.57 4.57 0 0 1 2.56.74 38.4 38.4 0 0 0 5.08 2.82l.11.05a8.42 8.42 0 0 1 -1.67 2.72 12.46 12.46 0 0 1 -5.29 3.55 13 13 0 0 1 -4.2.68 11.78 11.78 0 0 1 -2.11-.18 5.68 5.68 0 0 0 -.68-.13c-1.9-.23-3.17-.82-3.76-1.77a4.69 4.69 0 0 1 -.61-1.72c.06-.31.82-1.31 3.64-3.02z"/><path d="m173.44 246.76c2.89 0 5.54-1.63 7.44-4.6a19.51 19.51 0 0 0 0-19.6c-1.9-3-4.55-4.6-7.44-4.6s-5.54 1.63-7.44 4.6a19.51 19.51 0 0 0 0 19.6c1.9 2.97 4.55 4.6 7.44 4.6z"/><path d="m305.39 304.82c1.28 3.56 4 7.95 9.66 8.17 2.31.09 6.35-.53 9.8-5.1 10.82 1.1 23.67 1.64 39.15 1.64s28.33-.54 39.15-1.64c3.26 4.31 7 5.11 9.39 5.11h.46c5.66-.22 8.38-4.61 9.66-8.17 12.87-3 22.06-7.54 28.07-14 6.27-6.69 9.27-15.63 9.27-27.3a62.93 62.93 0 0 0 -16.87-42.89c-.41-16.41-3.72-27.56-7.72-35.1a42.12 42.12 0 0 0 -5.88-52.2 42.12 42.12 0 0 0 -59.57 0l-6 6-6-6a42.12 42.12 0 0 0 -59.57 0 42.12 42.12 0 0 0 -5.88 52.2c-4 7.54-7.31 18.69-7.72 35.1a62.93 62.93 0 0 0 -16.79 42.89c0 11.67 3.05 20.61 9.32 27.33 6.01 6.42 15.2 11 28.07 13.96zm126.77-139.18a4.8 4.8 0 1 1 -4.8-4.8 4.8 4.8 0 0 1 4.8 4.8zm-32.41-35a32.51 32.51 0 0 1 30.13 20.29 4.8 4.8 0 0 1 -8.9 3.6 22.92 22.92 0 0 0 -21.23-14.29 4.8 4.8 0 0 1 0-9.6zm-107.39 95.59a4.72 4.72 0 0 0 1.57-3.5c.31-29.23 10.26-39.15 14.51-42.06 3.82-2.6 6.82-2.45 7.88-2 3.54 1.51 10 13.22 13.88 23.21a4.51 4.51 0 0 0 5.44 2.79c12.42-3.53 28.2-3.58 28.36-3.58s15.91 0 28.36 3.58a4.51 4.51 0 0 0 5.44-2.79c3.84-10 10.34-21.7 13.88-23.21 1.06-.45 4.06-.6 7.88 2 4.25 2.91 14.2 12.83 14.51 42.06a4.78 4.78 0 0 0 1.56 3.49 53.65 53.65 0 0 1 15.27 37.31c0 9.25-2.15 15.86-6.77 20.81-5.09 5.44-13.6 9.32-26 11.86a4.63 4.63 0 0 0 -3.57 3.67c-.12.61-.8 3.69-1.95 3.74-1.31.06-2.45-1.57-3.18-2.93a4.53 4.53 0 0 0 -4-2.45 4.07 4.07 0 0 0 -.5 0 365.42 365.42 0 0 1 -40.93 1.91 365.42 365.42 0 0 1 -40.93-1.88 4.48 4.48 0 0 0 -4.49 2.42c-.73 1.36-1.86 3-3.18 2.93-1.15-.05-1.83-3.13-1.95-3.74a4.63 4.63 0 0 0 -3.57-3.67c-12.41-2.54-20.92-6.42-26-11.86-4.62-4.95-6.77-11.56-6.77-20.81a53.65 53.65 0 0 1 15.25-37.3z"/><path d="m305.92 275.08c11.93 0 21.6-8.23 21.6-20.16s-9.67-23-21.6-23-21.6 11.11-21.6 23 9.68 20.16 21.6 20.16z"/><path d="m422.08 274.6c11.93 0 21.6-8.23 21.6-20.16s-9.67-23-21.6-23-21.6 11.11-21.6 23 9.67 20.16 21.6 20.16z"/><path d="m331.84 236c1.77.31 3.59-.64 5.15-2.67a18 18 0 0 0 2.61-14.8c-.77-2.44-2.16-4-3.92-4.27s-3.59.64-5.15 2.67a18 18 0 0 0 -2.61 14.8c.77 2.47 2.16 3.99 3.92 4.27z"/><path d="m392.32 236c1.77.31 3.59-.64 5.15-2.67a18 18 0 0 0 2.61-14.8c-.77-2.44-2.16-4-3.92-4.27s-3.59.64-5.15 2.67a18 18 0 0 0 -2.61 14.8c.77 2.47 2.16 3.99 3.92 4.27z"/><path d="m350.19 252.82c.51 9 2.75 15.33 6.67 18.88a10.52 10.52 0 0 0 7 2.9h.3a10.52 10.52 0 0 0 7-2.9c4-3.61 6.23-10.12 6.69-19.36 4-1 6.74-3 8.27-6.05 3.27-6.54.58-11.21-2.21-15.08a4.32 4.32 0 0 0 -7 5c2.57 3.58 2.39 4.38 1.5 6.18-.62 1.23-3.06 1.93-6.69 1.93-.79-.07-3.37-2.76-3.37-8.16a4.32 4.32 0 1 0 -8.64 0c0 5.94-4.42 8.16-7.2 8.16-1.34 0-3.36 0-3.36-4.32a8 8 0 0 1 1.55-4.69 4.32 4.32 0 0 0 -6.11-6.11c-2.82 2.81-4.08 7.45-4.08 10.8-.03 7.06 3.71 11.85 9.68 12.82zm13.26-4.41a11.41 11.41 0 0 0 5.71 4.21c-.64 10.37-3.77 13.18-5 13.34h-.32c-1.27-.16-4.56-3.15-5-14.34a16.25 16.25 0 0 0 4.61-3.21z"/><path d="m162.49 363.14a13.37 13.37 0 0 0 2.78-8.6 14.64 14.64 0 0 0 -1.64-7.25 13.22 13.22 0 0 0 -4.37-4.69 18.43 18.43 0 0 0 -6.18-2.53 33.89 33.89 0 0 0 -7.08-.74h-19.19v50.32h11.87v-20h4.15l10.92 20h14.25l-13.15-21.54a15 15 0 0 0 7.64-4.97zm-10.06-5.26a5.57 5.57 0 0 1 -2.1 1.85 10.18 10.18 0 0 1 -2.86.89 20.34 20.34 0 0 1 -3.07.24h-5.79v-11.72h6.5a19.74 19.74 0 0 1 2.82.21 8.33 8.33 0 0 1 2.64.82 5.1 5.1 0 0 1 1.93 1.7 5 5 0 0 1 .75 2.88 5.45 5.45 0 0 1 -.82 3.13z"/><path d="m193.9 339.33-21.11 50.32h13.21l3.7-9.88h19.47l3.91 9.88h13.52l-20.9-50.32zm-.71 30.7 6.4-17.27 6.25 17.24z"/><path d="m267.67 372.17h-.22l-20.18-32.84h-13.86v50.32h11.8l-.29-32.91h.21l20.26 32.91h13.79v-50.32h-11.8z"/><path d="m335.68 345.08a25.45 25.45 0 0 0 -8.7-5.25 31.47 31.47 0 0 0 -10.98-1.83 31.12 31.12 0 0 0 -10.91 1.85 25.5 25.5 0 0 0 -8.67 5.25 23.88 23.88 0 0 0 -5.72 8.29 27.59 27.59 0 0 0 -2.06 10.91 28 28 0 0 0 2.06 10.91 24.73 24.73 0 0 0 5.72 8.45 25.47 25.47 0 0 0 8.67 5.44 30.25 30.25 0 0 0 10.91 1.9 30.59 30.59 0 0 0 11-1.92 25.41 25.41 0 0 0 8.7-5.44 24.89 24.89 0 0 0 5.73-8.45 28.16 28.16 0 0 0 2.06-10.91 27.77 27.77 0 0 0 -2.06-10.91 24 24 0 0 0 -5.75-8.29zm-6.29 25.49a14.7 14.7 0 0 1 -3 4.94 13.92 13.92 0 0 1 -4.55 3.23 15.11 15.11 0 0 1 -11.66 0 13.55 13.55 0 0 1 -4.51-3.23 15 15 0 0 1 -2.95-4.94 18 18 0 0 1 -1.07-6.29 17.79 17.79 0 0 1 1-6.12 13.9 13.9 0 0 1 2.94-4.87 14.07 14.07 0 0 1 10.41-4.37 14.32 14.32 0 0 1 5.87 1.18 13.55 13.55 0 0 1 4.54 3.19 14.54 14.54 0 0 1 2.95 4.87 17.34 17.34 0 0 1 1.07 6.12 18 18 0 0 1 -1.04 6.29z"/><path d="m397.56 339.33h-15.21l-17.98 20.47h-.22v-20.47h-11.87v50.32h11.87v-23.17h.15l18.69 23.17h15.85l-22.96-27.15z"/><path d="m446.22 345.08a25.49 25.49 0 0 0 -8.71-5.25 33.21 33.21 0 0 0 -21.86 0 25.5 25.5 0 0 0 -8.67 5.25 24 24 0 0 0 -5.72 8.29 27.77 27.77 0 0 0 -2.06 10.91 28.16 28.16 0 0 0 2.06 10.91 24.87 24.87 0 0 0 5.72 8.45 25.47 25.47 0 0 0 8.67 5.44 32.07 32.07 0 0 0 21.86 0 25.46 25.46 0 0 0 8.71-5.44 24.87 24.87 0 0 0 5.72-8.45 28.16 28.16 0 0 0 2.06-10.91 27.77 27.77 0 0 0 -2.06-10.91 24 24 0 0 0 -5.72-8.29zm-6.29 25.49a14.72 14.72 0 0 1 -3 4.94 13.82 13.82 0 0 1 -4.55 3.23 15.09 15.09 0 0 1 -11.65 0 13.49 13.49 0 0 1 -4.52-3.23 15.14 15.14 0 0 1 -3-4.94 18 18 0 0 1 -1.06-6.29 17.79 17.79 0 0 1 1-6.12 13.77 13.77 0 0 1 2.95-4.87 14.07 14.07 0 0 1 10.37-4.37 14.28 14.28 0 0 1 5.87 1.18 13.59 13.59 0 0 1 4.55 3.19 14.7 14.7 0 0 1 2.95 4.87 17.34 17.34 0 0 1 1.06 6.12 18 18 0 0 1 -.97 6.29z"/><path d="m104.91 380a19.21 19.21 0 0 0 2.7-2.66 19.86 19.86 0 0 0 2.42-3.66 21.09 21.09 0 0 0 1.7-4.59 21.85 21.85 0 0 0 .64-5.43 26.24 26.24 0 0 0 -2-10.42 23.74 23.74 0 0 0 -5.65-8.1 26.12 26.12 0 0 0 -8.6-5.26c-10.82-5.6-8.56-8.86-10.82-8.86s0 3.25-10.78 8.84h-.06a25.94 25.94 0 0 0 -8.67 5.3 24.07 24.07 0 0 0 -5.72 8.17 26.29 26.29 0 0 0 -2.07 10.52 29 29 0 0 0 2 11 22.68 22.68 0 0 0 5.48 8.1 22.94 22.94 0 0 0 8.49 5 33.53 33.53 0 0 0 11 1.71h30.53v-9.66l-10.59.22zm-6.47-9.77a14.3 14.3 0 0 1 -3 4.83 13.23 13.23 0 0 1 -4.55 3.13 15.34 15.34 0 0 1 -11.41 0 13 13 0 0 1 -4.48-3.19 14.3 14.3 0 0 1 -2.91-4.83 17.84 17.84 0 0 1 -1-6.22 16.7 16.7 0 0 1 1.06-6 13.91 13.91 0 0 1 3-4.76 13.44 13.44 0 0 1 4.51-3.09 14.2 14.2 0 0 1 5.63-1.1 14.64 14.64 0 0 1 5.76 1.11 13 13 0 0 1 4.51 3.09 13.76 13.76 0 0 1 2.92 4.8 18.42 18.42 0 0 1 0 12.26z"/></svg>