<svg viewBox="0 0 512 512" xmlns="http://www.w3.org/2000/svg"><path d="m478.62 117.61a186.27 186.27 0 0 1 -52.62 14.44 92.38 92.38 0 0 0 40.3-50.72 189.33 189.33 0 0 1 -58.24 22 91.61 91.61 0 0 0 -158.51 62.54 93.65 93.65 0 0 0 2.36 20.94c-76.17-3.55-143.68-40.12-188.91-95.42a89.82 89.82 0 0 0 -12.4 46.09 91.65 91.65 0 0 0 40.75 76.29 91.28 91.28 0 0 1 -41.45-11.47v1.13a91.68 91.68 0 0 0 73.49 89.9 92.44 92.44 0 0 1 -41.2 1.59 91.93 91.93 0 0 0 85.75 63.63 183.77 183.77 0 0 1 -113.65 39.21 194.39 194.39 0 0 1 -21.79-1.25 260.67 260.67 0 0 0 140.74 41.14c168.63 0 260.76-139.65 260.76-260.48 0-3.89 0-7.82-.28-11.73a185 185 0 0 0 45.78-47.44z"/></svg>