<svg viewBox="0 0 1200 540" xmlns="http://www.w3.org/2000/svg"><ellipse cx="102.5" cy="254.2" fill="#1ebbee" rx="8.43" ry="10.73" transform="matrix(.59482279 -.80385686 .80385686 .59482279 -162.81 185.42)"/><g fill="#455a64"><path d="m801.85 358.41c-.47 2.77-1 5.38-1.34 8-1.4 10.27-5.55 14.79-17.88 13.15-24.41-3.25-48.84-6.76-72.84-12.52a89.87 89.87 0 0 1 -9.39-3.13c-10.75-3.87-15.49-12.38-17.13-22.94-3.71-23.83 4.22-44.64 17.05-64.13 3.71-5.63 12-8.62 18.69-4.31 8.61 5.56 18.92 7.37 28.7 10.07 15 4.13 29.39 9.91 44.15 14.64 8.2 2.62 13.3 7.24 13.16 16.36 0 1.27.27 2.54.35 3.81.45 6.58.78 6.84 7.24 6 2.27-.31 1.46-2 1.45-3.21a35.4 35.4 0 0 1 3.64-15.86c3.33-7 8.89-11 16.39-12.41 1.32-.25 2.54-.12 2.06-2.15-4.08-17.37-1.17-32.64 14-44.42a151.23 151.23 0 0 1 -26-12 105.06 105.06 0 0 1 -31.18-27.93c-9.06-12.3-10.85-26.4-7.71-41.11 3.94-18.48 14.28-33.32 27.28-46.52 10.76-10.93 24-18.42 36.74-26.67 23.74-15.39 47.32-31 70.22-47.63a50.07 50.07 0 0 1 6.07-3.95c2.65-1.4 5.41-.45 5.83 2.24 1.48 9.32 8.62 13.8 15.19 18.76 4.17 3.15 8.67 5.84 13 8.81 1.41 1 2.13 1 2.61-.88 3-11.86 10.82-19.86 21.38-25a101.76 101.76 0 0 1 35.8-10.19c13.1-1.14 25 3.6 34.8 12.17 6.82 6 14 8.06 22.75 7.36q18.53-1.48 37.14-1.35c12.45.08 26.74 7.74 30.52 24.09 4.19 18.12-6.49 26.73-19.94 31.22-3.48 1.17-7.18 1.67-11.24 2.58 4.73 3.1 2.11 8.89 5.08 12.77.91 1.19 1.39 2.39 3 3.12 2.84 1.32 3.5 3.77 1.54 6.29a5.46 5.46 0 0 0 -1.21 4.17 49.8 49.8 0 0 1 -3.35 22.84 45.44 45.44 0 0 0 -1.57 4.7c-1.51 5.51-.18 8.73 4.79 11.94 11.57 7.48 21.46 16.48 26.39 29.8 6.51 17.62-2.26 33.08-20.66 37-9.12 1.91-17.2.65-24-6.14a41.18 41.18 0 0 0 -4.19-3.34c-3.64-2.8-5.11-2.75-8.46.64-8.22 8.32-11.58 18.92-14.09 30-1.7 7.44-.7 13.92 2.83 21 6.77 13.51 6.62 28.55 7.17 43.38a80.16 80.16 0 0 1 -12.06 45.85c-8.76 14.25-20.56 25.47-37.36 29.74a88.85 88.85 0 0 1 -36.06 1.31c-1.32-.2-2.74-1-3.64.8s1 2.07 1.73 2.85c4.88 5.07 6.3 11.58 7.29 18.13a172.92 172.92 0 0 1 .4 50c-3.23 23.11-18.84 37.77-42.41 38.11a23.83 23.83 0 0 1 -15.09-4.56c-6-4.5-7.86-11.75-4.75-19.22a66.47 66.47 0 0 1 6-11.5c6.72-10.06 5.42-21.16 4.62-32.21a33.79 33.79 0 0 0 -1.4-5.93c-1.6-6-1.61-5.87-7.57-6.14-8.08-.35-15.72-3-23.39-5.22a91 91 0 0 0 -31-3.31c-2.63.15-4.17.83-4.73 3.71-1 5.32-5.47 7.83-9.61 10.29-16.42 9.74-34 14.54-53.29 13.05-8.11-.63-16.26-.83-24.22-2.7a30.57 30.57 0 0 1 -5.78-1.9c-12.07-5.56-13.5-19.3-2.94-27.47 6.16-4.76 13.48-5.81 20.87-6.48 8.39-.77 16.86-.75 25.17-2.29 1.44-.26 4.65-.14 2-2.86-10.06-10.18-10.14-22.45-7.85-35.3a68.59 68.59 0 0 1 1.66-8.21c.91-3-.12-3.91-3-3.91a130.71 130.71 0 0 1 -28.42-3.75zm100.45-96.35.68-.86c.35-.09.77-.33.44-.66s-.52.11-.63.43l-.93.64-.78.69c-5.49 4.75-10.12 10.42-16.14 14.62a7.29 7.29 0 0 1 -8.21.48 27.32 27.32 0 0 1 -4.9-3.64c-4.45-3.7-7.49-8.55-10.76-13.71-3.24 10.07-6.36 19.6-8.8 29.34-.56 2.22-1.15 4.3.38 6.51.87 1.27.85 3.34-.52 4.23-3.44 2.24-2.58 5.69-3.35 9.18 14.2-6.62 28.32-12.18 42.64-17.25 1.16-.41 1.89-.79 1.84-2.34a42.66 42.66 0 0 1 8.38-26.81zm5.21-5.55c.62-.09 1.24-.2 1.27-1a17.65 17.65 0 0 0 6.2-3.79c-3.63-.94-5.29.86-6.19 3.81-.76-.2-1.31 0-1.52.82-.31.09-.74.25-.41.59s.55-.09.65-.43zm-34.31-170.35q-16.46 10.38-32.91 20.78a121 121 0 0 0 -23.29 18.53c-10.41 10.95-18.76 23.17-22.81 37.93a44.82 44.82 0 0 0 2.81 32.2c.23-2.36.47-4.25.57-6.16 1.14-20.06 8.42-37.68 23-51.43 27.22-25.7 59.5-34.58 95.89-25 27.47 7.22 49.26 23.54 66.34 46 12.26 16.12 17 34.51 14.25 54.67a48.56 48.56 0 0 1 -8 20.65 2.3 2.3 0 0 0 2.41.4c22.25-5.42 37.79-18.35 44.42-40.67 2.61-8.81 1.74-17.9.19-26.91-2.22-12.84-6.24-24.86-14.42-35.26-11.33-14.42-25.89-25.31-40-36.67-11.94-9.61-25.27-17.27-37.82-26-7-4.89-14-9.86-18.36-17.56-1.11-2-1.83-.41-2.54.08-5.63 4-11.15 8.07-16.83 12-6.34 4.34-12.82 8.48-19.24 12.7 3.42.52 6.56.12 9.69.22 8.76.28 17.26 1.39 24 8 5.67 5.54 5.08 12.54-1.76 16.53-10.87 6.35-22.49 7.12-34.3 3.53-9.21-2.8-12.47-8.71-10.92-18.09a4.32 4.32 0 0 0 .23-.74c-.43-.36-.53-.04-.6.27zm45.47 156.49c8.63.08 18.06-1.7 27.51-3.14 9.61-1.47 19.6-.45 28.72-5.65 3.81-2.17 7.1-4.09 9.11-8a35.66 35.66 0 0 0 3.27-8.13c4.41-18.95.67-36.39-10.36-52.2-8.49-12.17-19.44-21.86-31.81-30-26.09-17.22-53.92-22.37-84-12.5-36.65 12-57.27 41.76-55.12 79.39a13.87 13.87 0 0 0 4.65 10c11.82 10.86 25.54 18.28 40.43 24.13 18.93 7.43 38.9 3.67 58.22 6.54 2.71.41 5.59-.23 9.38-.44zm-6.22 43.49 2.64-.15c4.16-.24 6.55 1.1 6.83 3.85s-1.84 4.56-6 5a94.54 94.54 0 0 0 -26.68 7.52c-8.38 3.57-17.3 5.76-25.57 9.7-1.89.91-2.81 1.54-1.88 3.93 3.77 9.7 7.63 19.37 10.61 29.36.35 1.19.85 2.13 2.41 1.72 8.47-2.27 17.35-2.64 25.71-5.49a31.5 31.5 0 0 0 7.46-3.46c4.34-2.85 9.55-4.11 14.77-4.65a5.07 5.07 0 0 1 4.62 2.31c5.62 7.93 13.56 13.45 20.6 19.91a91.76 91.76 0 0 0 30.67 19.06c4.17 1.53 8.32 3.06 12.58 4.36 2.14.65 2.43.3 2.8-1.75 2-10.72 2.2-21.56 1.8-32.36-.59-16.21-.87-32.52-6.64-48-1.29-3.46-1-7.06-1.07-10.67-.2-7-4-13.24-4.77-20.08-.47-4.22-2.38-5-6-4.63-10.14 1.13-20 3.52-29.9 6-9.41 2.36-18.58 5.29-27 10.23-3.29 1.91-6.21 4.2-7.99 8.29zm76.8 115.11c-3.85 1.23-6.48-.86-9.41-1.38a96.7 96.7 0 0 1 -13.66-3.4c-11.52-3.89-21.24-11-31.17-17.65-11.21-7.54-21.2-16.34-27.9-28.34-.75-1.33-1.79-1.3-2.93-1a312.39 312.39 0 0 1 -42.06 8.5c-4 .48-8.11.31-12.14.68-6 .55-6.7 1.23-8 7-.55 2.48-1.24 4.94-1.64 7.44-1.8 11.22-2.58 21.78 6 31.57 10.2 11.57 23.11 14.84 37.12 13.88 9.41-.64 18.72-1.76 28.08-.49s18.24 4.44 27.36 6.66c18.78 4.56 41.7-5.82 50.35-23.47zm48.13-334.35a16.77 16.77 0 0 0 -8.94-4.67 54.34 54.34 0 0 0 -20.44 1.19c-9.24 2.09-17.52 6.09-24.33 12.81-3.3 3.27-3.16 7 .2 9.71 8.13 6.59 16.37 13.07 24.32 19.87 12.17 10.43 23.38 21.72 29.83 36.81a97.17 97.17 0 0 1 6.81 24.15c2.37 16 1.62 31.51-7.46 45.7a72.49 72.49 0 0 1 -17.66 18.92c-.95.73-1.81 1.39-1.76 2.7s1.25 1.16 1.94 1.26c7.85 1.19 14.74 4.72 21.63 8.76 3.52-7.61 9.61-12.84 15.9-17.91a87.22 87.22 0 0 0 11.4-10.76c3.76-4.37 3.83-4.37 0-8.51-6.9-7.43-11.2-15.84-11.57-26.28-.63-17.55 11.06-24.8 24.81-26 6.18-.54 6.09-.28 7.08-6.34 2.19-13.49-1.07-24.9-12-33.8-4.51-3.67-8.92-5.17-14.7-3.06-10.43 3.8-20.76 3.55-30.42-2.59-10-6.34-15-19-7.07-30.83a33.81 33.81 0 0 1 12.43-11.13zm99.2 15.8c-.83-13.41-8.19-21.14-21-22.41-8-.8-16 .39-24.08.51-7.15.11-14.29.49-21.43.65-9.23.22-16.08-4.62-22.61-10.44-6-5.32-6.65-5-9.13 2.35-.7 2.07-.62 3.35 1.58 4.55a18 18 0 0 1 6.78 6.61c2.48 4.11 1.46 7.35-3 9.14a26.92 26.92 0 0 0 -7.84 4.63c-9.48 8.26-7.56 20.08 4 25 5.39 2.3 11.14 2.9 16.41.79 12.08-4.84 21.85-2 30.23 7.42a6.82 6.82 0 0 0 1.1 1 2.84 2.84 0 0 0 1.32.66c4.65.41 9.26 1.1 13.94-.36 2-.64 2.26-1 1.7-3-1.64-5.75.4-8.55 6.48-9.35 7-.91 13.85-2 19.75-6.29 4.09-2.97 6.58-6.66 5.8-11.46zm-52.41 80.75c-16.24.69-20.26 9.54-17.65 22.72 1.37 6.91 6 11.94 10.45 17 4.84 5.49 4.88 9.47.47 15.31-3.31 4.39-3.24 4.28 1.61 7.42 2.57 1.66 4.31 2.25 7-.31 6-5.65 11-5.54 17.75-.52a31.24 31.24 0 0 1 4.76 3.84c4.45 4.94 10 5.81 16.08 4.54 6.23-1.31 12.06-3.63 15.1-9.83 3.79-7.75 1.29-14.93-2.72-21.71-4.84-8.19-11.84-14.25-19.79-19.34-9.26-5.91-11.76-12.8-8.34-23.17.83-2.53.94-3.82-2.28-3.25a12.14 12.14 0 0 1 -6.05-.55c-3.32-1.14-4.12-.33-3.31 3.06.91 3.76-1.55 6.2-5.4 5.48a31.17 31.17 0 0 0 -7.68-.69zm-60 139.22c2.35 1.21 4 1.94 5.47 2.81 12.38 7.19 17.38 24.06 9.91 35a14.47 14.47 0 0 0 -2.51 10.19c1.06 12.73 2 25.47 3 38.2.23 3.06 1.24 4.53 4.3 2.2 1.31-1 2.84-1.7 4.2-2.64 16.33-11.36 25.16-27.41 28.54-46.61 2.2-12.45.44-25-.79-37.38a51 51 0 0 0 -6.76-21.31c-.69-1.17-1-2.51-3.09-1.63-14.25 6.11-27.89 13.42-42.25 21.17zm-25.24 138.07a102.59 102.59 0 0 0 -.67-10.69c-.83-5.1-1.16-10.42-4.38-14.84-.49-.67-.91-2-1.84-1.49s-1.77 1.75-2.64 2.67c2.35 2-.39 2.32-1.14 2.92a65.88 65.88 0 0 1 -23.49 12.25c-2.25.65-4.54 1.13-3.11 4.9 2.74 7.24 2.72 15 2.86 22.64.14 8.16-1.39 15.9-5.82 23a86.3 86.3 0 0 0 -5.92 11.11c-2.33 5.31-.42 9.39 5 11.15a22.14 22.14 0 0 0 9.78 1.21c16.78-2.27 27.75-11.31 30.85-31.21 1.72-11.12 1.15-22.36.52-33.62zm3.29-135.09c20.27-11.84 39.92-23.23 61-32.2-.89-1.2-1.55-2.13-2.26-3-6.9-8.66-16-14.44-25.5-19.8-14-7.93-28.61-10.68-44.28-5.24-2.27.78-2.25 1.4-1.72 3.42 4.85 18.39 10.94 36.53 12.76 56.82zm-205.76 13.65a33.16 33.16 0 0 1 -.24-5c.52-5-2.18-7.19-6.57-8.64-9.17-3-18.19-6.54-27.33-9.66-15.86-5.42-32.52-8.31-47.76-15.68-2.09-1-5.08-1.81-7.1 1.33-10.16 15.81-17.54 32.44-16.29 51.85 1 16.09 5.1 21.14 20.87 25.14 16.89 4.28 34.16 6.54 51.32 9.32 6.9 1.12 13.78 2.35 20.71 3.18 2.88.35 6.53.8 7.29-3.44 2.9-15.98 5.98-31.99 5.1-48.4zm36.12 125.36c18.3-.58 31.19-6.36 43.41-14 1-.6 2.75-1.21 2.17-2.7-.36-.93-2-.83-3.15-.93-9.35-.81-18.39-2.62-26.13-8.42a2.84 2.84 0 0 0 -3.76-.1c-3.29 2.09-7.07 2.75-10.92 3.07-9 .75-18.06 1.49-27.08 2.33a19.74 19.74 0 0 0 -10.85 4.24c-5.15 4.22-4.53 9.6 1.41 12.37a25.14 25.14 0 0 0 6.15 1.94 172.73 172.73 0 0 0 28.75 2.2zm173.42-91.56a2.8 2.8 0 0 0 -.26.88c.86 13.5 1.49 27-3.78 39.91-.68 1.67.62 2 1.78 2.13 8.63.86 17.25 1.37 25.87-.31 1.91-.37 2.41-1 2.22-3-1.27-13.33-2.77-26.65-3.14-40.05-.07-2.24-.57-2.79-2.92-2-6.46 2.07-13.03 3.51-19.77 2.44zm-1.67-23.34h.25c.21 3.81.49 7.63.61 11.45.06 2.13.74 3.21 3.1 3.35 7.45.42 14.44-1 20.66-5.16a11.68 11.68 0 0 0 5.35-11.11c-.59-9.59-7-16.85-16.56-18-3.76-.45-7.5-.15-10.83 2.51s-3.64 5.92-3 9.73a67.19 67.19 0 0 1 .37 7.23zm-102.38-42c3.76-8.86 7.27-13.31 13.33-16.93a85.5 85.5 0 0 1 18.33-8.3 268 268 0 0 1 44.94-10c2.15-.28 2.92-1.42 2-2.91s.86-5.27-3.34-4.65c-3.65.54-7.39.52-11 1.18-10.43 1.87-21.39.32-31.33 5.43-6.66 3.42-13.65 6.33-19.78 10.61-8.47 5.92-12.62 14.31-13.2 25.6zm-68.95 55.33c.34 4.74 2.69 6.74 7.81 7.51 6.63 1 13.23.13 19.83-.53 3.06-.31 4.06-1.48 2.8-4.65-2.62-6.61-4.86-13.36-7.35-20-3.61-9.67-3.85-9.81-11.7-3-6.55 5.69-10.71 12.83-11.39 20.67zm154.43 50.15c3-5.39 3-5.38-2.09-6.81-1.1-.3-2.18-.69-3.26-1-24.08-7.62-42.19-23.65-59.08-41.43-1-1.08-1.63-1.72-3.44-1.19-7 2-5.5 2.61-2.57 7.47a32.77 32.77 0 0 0 2.6 3.3c10.05 12.48 23.56 20.57 36.92 28.78 7.61 4.69 15.91 8 24.94 8.75 2.2.23 4.23.46 6 2.13zm-87.86-141.64c-11.52-2.26-22.48.16-33.7-2.69 3 8 6.75 14.21 12.5 19.14 1.31 1.12 2.38 1.8 3.89.32 5.54-5.43 11.14-10.8 17.31-16.77zm.58-153.79a19.89 19.89 0 0 0 8.24-1.4c2.53-1 6.79-1.63 6.73-4.14-.08-3.11-4-4.75-7.07-5.38-7.35-1.49-14.78-4-22.1.61-1.63 1-4.18.77-4.19 3.52s2.06 4 4.2 4.88a28.74 28.74 0 0 0 14.19 1.91zm-77.57 223.64c-.09 1.14.51 3.3 2.08 2.87 2.36-.63 4.76 3.3 7-.48a33.07 33.07 0 0 1 7.38-8.25c.75-.63 1.94-1.06 1.49-2.36-1-2.8-.17-5.52.24-8.27.73-5 .1-5.62-4.93-4.69-.5.1-1 .33-1.46.45-8.83 2.09-11.59 12.01-11.8 20.73zm-18.37 21.21c-.3 1.82-.54 3.32-.8 4.82-.23 1.31.16 2.31 1.52 2.64a88.78 88.78 0 0 0 22 2.88c-.68-1.62-1.47-2.74-1.6-3.93-.3-2.84-1.7-3.39-4.46-3.71-5.48-.64-11.17-.22-16.66-2.7zm298.79-205.58c-1.18 1.09-4-1.13-4.59 1.38-.45 2.08-1.21 4.82.95 6.69 3.49 3 7.7 2.74 11.91 2.35 1.36-.12 1.6-1.16 1.69-2.16.2-2.4.26-4.81.42-7.21.13-1.87-.66-2.51-2.49-2.14-2.5.49-4.89 1.31-7.89 1.09zm-34.79 91.34a39.83 39.83 0 0 1 -3.09 2.55c-3.08 2.05-3.14 4.26-.68 6.88s4.85 5.48 8 7.78c1.36-2.73 2.49-5.41 4-7.86 1.17-1.92 1.19-2.93-1-4.12-2.66-1.41-5.7-2.32-7.25-5.23zm-66.38-172.35c3-.73 5.7-1.39 8.4-2 .8-.18 1-.73.91-1.4a22.84 22.84 0 0 1 .94-7.49c.39-1.61-.29-2.31-1.76-1.66-4 1.78-9.54.6-11.56 6.17-.4 1.11-3 1.16-1.89 3.08a7.58 7.58 0 0 0 4.96 3.3zm48.1 190.9c5.57 3.24 11 6.44 16.51 9.6.81.47 1.89 1.55 2.56.15.39-.82 1.36-2.16-.08-3-5.73-3.49-9.69-8.78-14-13.84a20 20 0 0 0 -4.99 7.12zm-24.24-193.77c1-.83 3.09 1.51 4-1 .82-2.38 1.73-4.73 2.58-7.11.18-.52.76-1.2-.16-1.57-2.71-1.07-5.53-2.19-8.42-1.56-2.18.47-2.64 2.71-3.1 4.76-1.47 6.43-1.52 6.41 5.1 6.48zm-172.1 201.46c-10.44 7.93-11.34 18.84-9.69 31.63 3.44-11.23 6.56-21.43 9.69-31.63zm241.41-131.55c2 5.83 2.24 6 8.07 5.47a18.59 18.59 0 0 0 4.47-.84c1.1-.39 3.9.9 2.9-1.88-.72-2-.35-5.63-4.31-4.93-3.68.65-7.36 1.45-11.13 2.18zm-103.49-63c-2.39-2.65-3.92-5.47-3.65-9.23-3.18 1.52-6.62 2.6-7.63 5.64a5.38 5.38 0 0 0 2.53 5.9c3.74 2.12 5.79-1.21 8.79-2.31zm-165.32 273.16c-6.45-.53-12.78-.9-19.06-1.65-2-.23-2.24.46-2.2 1.91 0 1-.47 2.34 1.6 2.13 5.09-.5 10.09.71 15.11 1.26 2.71.3 4.5-.12 4.55-3.65zm147.14-269.09a8.66 8.66 0 0 0 -2.67 5.3c-.16 1.85-1.16 3.27-1.83 4.89s1.56 1.87 2.51 2.7c.57.51 1.57 1 1.79-.1.53-2.66 2.81-4.28 3.7-6.46 1.08-2.63-3.11-3.33-3.5-6.33z"/><path d="m212.43 295.49-2.91 1.81c-2.48 1.55-5 2.61-7.84.78s-3.41-4.68-3.26-7.72a38 38 0 0 1 2.58-10.72c3.57-10 8.86-19.19 14.34-28.25a118.44 118.44 0 0 0 6.31-10.81c3-6.39 1.34-9.24-5.48-10.37s-13-3.65-15.25-10.49c-2.32-7 1.58-12.9 6.16-17.94 4-4.36 9-7.54 13.88-10.76a186.48 186.48 0 0 0 22.83-17.32 46.28 46.28 0 0 0 7.89-8.81 18.4 18.4 0 0 1 10-7.89 3.76 3.76 0 0 0 2.81-2.73c7.94-25.29 22.28-47.1 37.22-68.63 11.67-16.82 25-31.93 42-43.55 8.69-5.93 17.94-10.3 28.63-10.45 13.1-.19 23.41 6 31.45 15.69 11.88 14.3 17.9 30.7 15 49.59-.37 2.41.68 2.67 2.58 3.09 20 4.38 36.36 14.78 49.64 30.32 9.29 10.86 13.67 23.7 15.93 37.44 1.28 7.8 2.57 15.6 2.2 23.58a38.87 38.87 0 0 1 -2.45 12.27c-5.43 14.26-14.39 25.28-28.22 32.32-16.44 8.37-32.72 17.07-49 25.79-11.32 6.07-21.74 13.36-29.71 23.67-1.83 2.36-13.77 18.6-15.87 28.32-2.19 11.31 3.07 19.54 12.26 25.47 11.16 7.19 23.66 10.2 36.76 11.5 11.95 1.18 22.11-3.85 32.43-8.44 26.74-11.91 52.49-25.83 78.63-39a178 178 0 0 1 41-15.16c11.69-2.62 23.53-3.16 35.39-2.93 9.79.18 19.62.31 29.34 1.91a48 48 0 0 1 16.46 5.78c3.29 1.9 4.94 4.58 3.34 8.27-.89 2 .39 2.4 1.57 3.08 7.12 4.18 12.26 10.3 16.72 17.08 1.4 2.14 2.19 4.45.48 6.76s-4.38 2.26-6.66 1.45c-13-4.66-26.6-3.95-40.06-4.33-36.7-1-68.85 11.43-98.18 32.7-15.17 11-29.5 23.14-45.15 33.47-23.69 15.67-49.54 25.67-78.15 26.56-23.16.7-45.46-4.57-67.11-12.64a12.53 12.53 0 0 0 -3.23-1.12c-3.8-.29-6.72-5.8-11.31-1.68-3 2.73-7 4-9.61 7.75-8.09 11.5-25.16 13.73-38.06 4.95a50.51 50.51 0 0 1 -21.31-31.53c-2.32-10.22-3.27-20.64-4.3-31a5 5 0 0 0 -3.28-4.57c-5.61-2.56-9.12-7.3-12-12.48-3.49-6.24-7.07-12.35-12.29-17.42-4.09-4-5.05-9.29-5.1-14.79-.03-2.45-.03-4.87-.04-7.87zm46.14-125.06c-3.81 5.35-8.82 9.51-13.72 13.78-8.78 7.64-18.93 13.36-28.11 20.45a21.72 21.72 0 0 0 -6.64 7.77c-1.9 4-1.14 5.93 2.86 8 2.45 1.24 5.17 1.24 7.74 1.9 7.48 1.93 10.45 5.65 10.63 13.27a22.78 22.78 0 0 1 -4 12.92c-7.07 11.2-14.22 22.36-18.56 35-.41 1.19-1.56 2.44-.4 4 1-.59 2-1.17 3-1.73 5.17-3 9.48-.76 9.85 5.12a48.46 48.46 0 0 1 -.08 6.49c-.49 6.92-.22 13.43 5.92 18.36 3.49 2.81 5.4 7 7.67 10.87 1.68 2.85 3.25 5.77 5.13 8.47.91 1.31 1.78 3 4.07 3.28a369 369 0 0 1 -1.13-49.58c.86-17.78 1.91-35.59 4.72-53.17 2.21-13.8 2.46-27.89 6.06-41.48 2-7.61 3.88-15.25 5.81-22.88.45-.58.67-1.16.06-1.78zm394.89 147.67c.16.13.43.41.46.38.44-.34.13-.54-.17-.74-1.19-2.22-3.23-3.55-5.24-4.88-2.56-1.68-5.19-3.25-7.73-5s-3.66-4.08-2-6.88c1.05-1.73.25-2.14-1.07-2.72a37.56 37.56 0 0 0 -9.52-2.66c-10-1.47-20.05-1.51-30.1-1.77a126.94 126.94 0 0 0 -29.32 2.27c-15.55 3.22-30.1 9.25-44.16 16.45-25.92 13.29-51.69 26.85-78.32 38.72-11.36 5.07-22.72 9.48-35.64 7.92-14.08-1.71-27.56-5.07-39.51-13-16.53-10.92-20.88-28.41-11.84-46.1a113.42 113.42 0 0 1 8.94-13.77c5.79-8.16 12.28-15.65 20.38-21.65 11.62-8.6 24.61-14.83 37.27-21.65 11.86-6.4 24.54-11.43 35.5-19.33 12.73-9.19 19.63-21.76 19-37.9-.29-6.78-1.56-13.41-2.64-20.09-2.75-17.18-11.69-30.7-25.13-41.38a81.42 81.42 0 0 0 -40.62-17.09c-12.05-1.65-23.88-2.86-36.06-1.31-24 3-45 12.9-64.48 26.79a31.08 31.08 0 0 0 -11.33 14.84c-8.13 21.31-14.13 43.23-19.54 65.35-4.84 19.86-10.11 39.61-10.62 60.3-.58 23.49-.83 46.95 1 70.4.42 5.2 1.71 9.86 5.52 13.8 3.46 3.56 6.64 7.41 10.31 10.79 9.27 8.53 19.85 15.13 30.95 21 2 1 4.63-.2 6.06 1.79 1.79 2.5 4.51 3.15 7.05 4.2a196.67 196.67 0 0 0 27.19 8.82c20.6 5.13 41.42 7.44 62.4 2.76a158 158 0 0 0 60.24-27.61c17-12.57 33.33-26.05 51.3-37.32 26.23-16.43 54.41-25.5 85.61-25.13 11.98.19 23.93.17 35.86 1.4zm-352.64 88.31c-18.4-4.81-27.11-15.43-31.51-28.74-5.86-17.72-7.82-36.09-8.26-54.62-.3-12.37-.21-24.76-.1-37.13.09-10.32.28-20.65 1.74-30.88 2.49-17.52 7-34.61 11.35-51.72 7-27.38 14.81-54.44 27.69-79.85 11.25-22.19 26.08-41.09 46.65-55.23 17.52-12 32.82-11.47 49.52 1.53 5.25 4.1 9.11 9.34 13.07 15.69-1.57-12.65-5.7-23.25-13.39-32.14-6.89-8-15.16-13.65-26.45-13-8.3.52-15.36 4.08-22.12 8.61-16.27 10.93-28.52 25.59-40 41.24-21.83 29.66-37.66 61.84-44.77 98.18-5.18 26.47-9.33 53-11.34 80a487.75 487.75 0 0 0 -1.34 55.79c.59 15.07 2.29 30.05 4.15 45 1.09 8.8 2.3 17.74 7.37 25.46 5.69 8.64 12.36 16.08 23.5 17.15a17.24 17.24 0 0 0 14.24-5.34zm13.42-286.2c1.18-.73 2.35-1.46 3.54-2.18 21.22-13 44-20.92 69.07-21.69a86.31 86.31 0 0 1 14.47.69c3 .4 4-.61 3.22-3.54a22.72 22.72 0 0 0 -3.54-7.55c-13.08-17.78-29.38-23.71-48.78-9.87a136.42 136.42 0 0 0 -15 12.45c-9.54 9.11-17.56 19.4-22.98 31.69zm-37.91 250.84c.44 1.43.84 2.88 1.32 4.31 4.19 12.21 12.48 19.79 25.22 22.45 2.33.48 3.83.21 4.88-2.19 1.17-2.68-1.22-2.65-2.37-3.34-9.83-6-19.37-12.35-27.45-20.66-.35-.36-.65-1.12-1.6-.57z"/><path d="m17.27 393c-.69-16.1 4.37-30.85 11.35-45 6.47-13.08 14.29-25.35 25.46-35.08 6.31-5.5 13.41-9.28 22.1-8.9 8.47.37 12.16 5.49 9.95 13.61-1.66 6.07-5.11 11.06-9.3 15.61-5.55 6-10.82 12.21-13.32 20.28-.93 3-.55 3.74 2.7 3.16s7.17-1.06 9.22 2.69.9 7-1.51 10.27c-3.73 5.05-8.69 9-12.29 14.16-3.91 5.61-5.63 10.77-1.07 17.34 5.54 8 1.83 17.52-6.79 22-6.77 3.51-13 3.85-19.88.5-7.27-3.57-11.46-9.57-14.14-16.8a39.06 39.06 0 0 1 -2.48-13.84zm47.29-27.29c-1.25.23-2.49.55-3.75.69-5.37.59-8.46-2.71-7.55-8.07.19-1.12.6-2.2.87-3.31 2.44-10.2 7.81-18.71 15-26.21 3.44-3.59 6.68-7.37 8.34-12.2 1.15-3.35.61-4.18-2.91-4a22.72 22.72 0 0 0 -14.88 7c-19.38 19.19-31.44 42.12-33.9 69.48a30.82 30.82 0 0 0 5.78 21.71c4.66 6.17 11.09 7.73 18.16 4.58 4.62-2 6.25-6.14 3.31-10.16-6.71-9.19-4.4-17.58 1.31-26.07 3.15-4.7 7.61-8.24 10.85-12.83l.34-.76z"/><path d="m162.25 327.4c.45 7.28-2.86 17.05-8.38 26.17-3.55 5.87-9.64 8.34-15.31 6.37-4.38-1.53-8.48-9.12-8.55-14.35-.18-12.8 7.72-20.78 16.25-28.49a9.86 9.86 0 0 1 1.92-1.24c7.82-4.29 13.82-.86 14.07 11.54zm-8.79-.37c-.32-1.2.44-2.73-.75-3.25s-2.07.73-2.85 1.51c-3 3-6 6-8.12 9.63a18 18 0 0 0 -2.09 13.9c1 3.79 4.29 4.22 6.36.95 4.41-6.96 7.44-14.45 7.45-22.77z"/><path d="m109.09 270.71a21.8 21.8 0 0 1 -22.39-16.42c-.93-3.93-.33-7.62 2.5-10.68 2-2.16 4.48-2.66 6.79-.67 2.05 1.75 2.12 4 .25 6.06-1.7 1.86-1 3.9-.35 5.75 1.53 4.19 8.79 8.11 13.24 7.44 2-.31 2.63-1.59 2.09-3.28-1.61-5-3.42-9.85-9-11.82-2.77-1-5-2.55-3.92-5.88s3.79-3.25 6.63-2.43c7.4 2.13 15.8 14.06 15.34 21.82-.37 6.14-4.38 9.76-11.18 10.11z"/><path d="m151.21 248.4c-4.56.1-8.39-1.34-11.15-5.27a22.46 22.46 0 0 1 -4.23-11.27c-.24-3.09 1.41-5 4.56-4.64 1.64.17 2-.23 2.57-1.62 2.73-6.38 8.16-8.55 14.66-6a17.83 17.83 0 0 1 9.7 8.74c3.27 6.48 1.41 12.74-4.95 16.26a28.86 28.86 0 0 1 -11.16 3.8zm-6.87-17.76c1.85 10.26 5.4 10.49 13.5 6.61 1.42-.68 2.69-1.79 2.26-3.53a8.41 8.41 0 0 0 -5.08-5.78c-1.55-.69-3-.74-4 .84-1.59 2.4-3.85 2.56-6.68 1.86z"/><path d="m662.11 241.14c6.54-.44 12.1 4 12.33 9.81.25 6.31-5.75 11.76-13 11.71a16.71 16.71 0 0 1 -4.51-.64c-4.79-1.38-8.73-6.12-8.6-10.12.12-3.59 5.11-8.64 10-10.05 1.24-.35 2.53-.48 3.78-.71zm-.29 12.75c1.45-.16 3.65-.46 3.83-2.42.16-1.68-1.87-1.61-3.26-1.51-1.82.13-3.88.53-4 2.64-.01 1.57 1.84 1.31 3.43 1.29z"/><path d="m1158.08 25.88c13-.33 17.21 6.81 19 16.6.51 2.74-.6 5.25-3.71 5.71s-4.36-1.74-5-4.54c-1.47-6.88-3-8.53-7.84-9.22-1.63-.24-3 .4-4.44.81-2.49.69-4.68.43-5.73-2.21s.33-4.68 2.73-5.89a9.49 9.49 0 0 1 4.99-1.26z"/><path d="m1122.23 279c-4.46.36-8.79-.95-12.94-3-2.53-1.26-3.73-3.23-2.44-5.9s3.55-3.06 6.15-1.93a33.94 33.94 0 0 0 5.72 2c4.88 1.19 8.49-.45 11.14-4.47 1.71-2.61 3.74-4.62 6.82-2.5s1.94 4.95.32 7.43c-3.42 5.17-8.13 8.25-14.77 8.37z"/><path d="m1168.52 52.56c.2 3.45-.27 6-2.16 8.18-1.52 1.72-3.41 2.29-5.48 1.16a3.91 3.91 0 0 1 -1.88-4.9c.53-1.75 1.13-3.44.24-5.17-.81-1.58-1.55-3.16-4-2.52a3.78 3.78 0 0 1 -4.82-2.7c-.83-2.49.47-4.19 2.51-5.37a7.26 7.26 0 0 1 8-.06c4.44 2.82 7.07 6.76 7.59 11.38z"/><path d="m1122.2 264.4a13.93 13.93 0 0 1 -10.75-5c-1.59-1.82-1.92-4-.11-5.87s3.83-1.64 5.88-.29c4.69 3.09 5.65 3.13 10.48-.37 2.57-1.86 5-2.91 7.27.09 1.75 2.28.68 5.27-2.59 7.31s-6.38 3.84-10.18 4.13z"/></g><path d="m918.67 242.65c-3.79.21-6.66.85-9.39.44-19.32-2.87-39.29.89-58.22-6.54-14.89-5.85-28.61-13.27-40.43-24.13a13.87 13.87 0 0 1 -4.65-10c-2.15-37.66 18.47-67.42 55.12-79.42 30.09-9.87 57.92-4.72 84 12.5 12.37 8.17 23.32 17.86 31.81 30 11 15.81 14.77 33.25 10.36 52.2a35.66 35.66 0 0 1 -3.27 8.13c-2 3.91-5.3 5.83-9.11 8-9.12 5.2-19.11 4.18-28.72 5.65-9.44 1.52-18.87 3.25-27.5 3.17zm-57.78-64.45c.8-2.72 2.65-4.19 4-6s1.59-3.8 0-5.57-3.8-2.09-5.52-.6c-4.11 3.56-7.67 7.53-7.08 13.62.25 2.63 1.39 5.21 3.71 5.8 4.73 1.2 4.73 4.51 4.76 8.13a29.48 29.48 0 0 0 .33 4.2c1.23 8.32 3.73 16.14 9.62 22.42 4.58 4.88 9.61 3.95 12.39-2.11a42.55 42.55 0 0 0 3.75-13.53c.34-3.46 1.79-5.09 5.44-5.91 9.21-2.07 13.26-14.57 7.42-22-1.53-1.92-3.5-2.72-5.73-1.44-2 1.16-2.57 3.06-1.75 5.29a16.73 16.73 0 0 1 1 2.85c.49 2.92.43 5.71-3 7-6.48 2.39-14-3.69-12.92-10.61.34-2.25.12-4.11-1.85-5.36-2.17-1.36-4.09-.59-5.92.94a12 12 0 0 1 -8.65 2.88zm48.59-6.51c-.4 4.06 2 7.1 4 10.11 1.75 2.61 4.46 3.13 7.45 1.67 2.33-1.15 3.57-3.16 4.78-5.29 4.62-8.1 4.42-17.12 4.65-26 .13-5-2.82-8.51-6.47-9.29-4.59-1-7 2.2-9.41 5.19a9.61 9.61 0 0 0 -1.42 2.69c-2.57 6.77-3.33 13.81-3.58 20.92zm-73.36-8.36a34.67 34.67 0 0 0 .24 3.82c.46 2.82 1.87 5.08 4.69 6s5-.19 6.93-2.13a19.54 19.54 0 0 0 2.28-3c4.69-7.28 6.31-15.49 6.93-23.93.31-4.29-1.71-7.3-4.88-8.17-4.81-1.32-8.27-.06-10.59 4.4-3.72 7.14-6.14 14.74-5.6 23.01z" fill="#fdfdfe"/><path d="m873.55 86.5c-1.55 9.37 1.71 15.28 10.92 18.08 11.81 3.59 23.43 2.82 34.3-3.53 6.84-4 7.43-11 1.76-16.53-6.75-6.58-15.25-7.69-24-8-3.13-.1-6.27.3-9.69-.22 6.42-4.22 12.9-8.36 19.24-12.7 5.68-3.88 11.2-8 16.83-12 .71-.49 1.43-2 2.54-.08 4.33 7.7 11.35 12.67 18.36 17.56 12.55 8.76 25.88 16.42 37.82 26 14.09 11.36 28.65 22.25 40 36.67 8.18 10.4 12.2 22.42 14.42 35.26 1.55 9 2.42 18.1-.19 26.91-6.63 22.32-22.17 35.25-44.42 40.67a2.3 2.3 0 0 1 -2.41-.4 48.56 48.56 0 0 0 8-20.65c2.75-20.16-2-38.55-14.25-54.67-17.08-22.45-38.87-38.77-66.34-46-36.39-9.56-68.67-.68-95.89 25-14.55 13.75-21.83 31.37-23 51.43-.1 1.91-.34 3.8-.57 6.16a44.82 44.82 0 0 1 -2.81-32.2c4-14.76 12.4-27 22.81-37.93a121 121 0 0 1 23.28-18.53q16.46-10.3 32.94-20.64z" fill="#db4437"/><path d="m912.45 286.14c1.78-4.09 4.7-6.38 8-8.32 8.41-4.94 17.58-7.87 27-10.23 9.88-2.47 19.76-4.86 29.9-6 3.61-.41 5.52.41 6 4.63.76 6.84 4.57 13.09 4.77 20.08.11 3.61-.22 7.21 1.07 10.67 5.77 15.53 6.05 31.84 6.64 48 .4 10.8.16 21.64-1.8 32.36-.37 2.05-.66 2.4-2.8 1.75-4.26-1.3-8.41-2.83-12.58-4.36a91.76 91.76 0 0 1 -30.65-19c-7-6.46-15-12-20.6-19.91a5.07 5.07 0 0 0 -4.62-2.31c-5.22.54-10.43 1.8-14.77 4.65a31.5 31.5 0 0 1 -7.46 3.46c-8.36 2.85-17.24 3.22-25.71 5.49-1.56.41-2.06-.53-2.41-1.72-3-10-6.84-19.66-10.61-29.36-.93-2.39 0-3 1.88-3.93 8.27-3.94 17.19-6.13 25.57-9.7a94.54 94.54 0 0 1 26.68-7.52c4.17-.47 6.29-2.32 6-5s-2.67-4.09-6.83-3.85z" fill="#ffcd40"/><path d="m989.25 401.25c-8.65 17.65-31.57 28-50.3 23.47-9.12-2.22-18-5.39-27.36-6.66s-18.67-.15-28.08.49c-14 1-26.92-2.31-37.12-13.88-8.63-9.79-7.85-20.35-6-31.57.4-2.5 1.09-5 1.64-7.44 1.3-5.77 2-6.45 8-7 4-.37 8.12-.2 12.14-.68a312.39 312.39 0 0 0 42.06-8.5c1.14-.3 2.18-.33 2.93 1 6.7 12 16.69 20.8 27.9 28.34 9.93 6.68 19.65 13.76 31.17 17.65a96.7 96.7 0 0 0 13.66 3.4c2.88.52 5.51 2.61 9.36 1.38z" fill="#0f9d58"/><path d="m1136.58 82.7c.78 4.8-1.71 8.49-5.81 11.5-5.9 4.31-12.79 5.38-19.75 6.29-6.08.8-8.12 3.6-6.48 9.35.56 2 .34 2.38-1.7 3-4.68 1.46-9.29.77-13.94.36a2.84 2.84 0 0 1 -1.32-.66 6.82 6.82 0 0 1 -1.1-1c-8.38-9.38-18.15-12.26-30.23-7.42-5.27 2.11-11 1.51-16.41-.79-11.58-4.93-13.5-16.75-4-25a26.92 26.92 0 0 1 7.84-4.63c4.46-1.79 5.48-5 3-9.14a18 18 0 0 0 -6.78-6.61c-2.2-1.2-2.28-2.48-1.58-4.55 2.48-7.32 3.17-7.67 9.13-2.35 6.53 5.82 13.38 10.66 22.61 10.44 7.14-.16 14.28-.54 21.43-.65 8-.12 16-1.31 24.08-.51 12.82 1.23 20.18 8.96 21.01 22.37z" fill="#b0bec5"/><path d="m1084.17 163.45a31.17 31.17 0 0 1 7.7.72c3.85.72 6.31-1.72 5.4-5.48-.81-3.39 0-4.2 3.31-3.06a12.14 12.14 0 0 0 6.05.55c3.22-.57 3.11.72 2.28 3.25-3.42 10.37-.92 17.26 8.34 23.17 8 5.09 15 11.15 19.79 19.34 4 6.78 6.51 14 2.72 21.71-3 6.2-8.87 8.52-15.1 9.83-6.05 1.27-11.63.4-16.08-4.54a31.24 31.24 0 0 0 -4.76-3.84c-6.71-5-11.76-5.13-17.75.52-2.71 2.56-4.45 2-7 .31-4.85-3.14-4.92-3-1.61-7.42 4.41-5.84 4.37-9.82-.47-15.31-4.48-5.09-9.08-10.12-10.45-17-2.63-13.2 1.39-22.06 17.63-22.75z" fill="#b0bec5"/><path d="m1024.19 302.67c14.36-7.75 28-15.06 42.24-21.21 2-.88 2.4.46 3.09 1.63a51 51 0 0 1 6.76 21.31c1.23 12.42 3 24.93.79 37.38-3.38 19.2-12.21 35.25-28.54 46.61-1.36.94-2.89 1.64-4.2 2.64-3.06 2.33-4.07.86-4.3-2.2-1-12.73-1.91-25.47-3-38.2a14.47 14.47 0 0 1 2.51-10.19c7.47-10.9 2.47-27.77-9.91-35-1.49-.83-3.09-1.56-5.44-2.77z" fill="#ffcd40"/><path d="m998.93 440.74c.63 11.21 1.2 22.5-.52 33.58-3.1 19.9-14.07 28.94-30.85 31.21a22.14 22.14 0 0 1 -9.78-1.21c-5.42-1.76-7.33-5.84-5-11.15a86.3 86.3 0 0 1 5.92-11.11c4.43-7.06 6-14.8 5.82-23-.14-7.65-.12-15.4-2.86-22.64-1.43-3.77.86-4.25 3.11-4.9a65.88 65.88 0 0 0 23.49-12.25c.75-.6 3.49-.92 1.14-2.92.87-.92 1.58-2.12 2.64-2.67s1.35.82 1.84 1.49c3.22 4.42 3.55 9.74 4.38 14.84a102.59 102.59 0 0 1 .67 10.73z" fill="#fdfdfe"/><path d="m1002.22 305.65c-1.82-20.29-7.91-38.43-12.75-56.85-.53-2-.55-2.64 1.72-3.42 15.67-5.44 30.25-2.69 44.28 5.24 9.46 5.36 18.6 11.14 25.5 19.8.71.9 1.37 1.83 2.26 3-21.09 9-40.74 20.39-61.01 32.23z" fill="#db4437"/><path d="m796.46 319.3c.88 16.41-2.2 32.42-5.1 48.43-.76 4.24-4.41 3.79-7.29 3.44-6.93-.83-13.81-2.06-20.71-3.18-17.16-2.78-34.43-5-51.32-9.32-15.77-4-19.84-9.05-20.87-25.14-1.25-19.41 6.13-36 16.29-51.85 2-3.14 5-2.34 7.1-1.33 15.24 7.37 31.9 10.26 47.76 15.68 9.14 3.12 18.16 6.62 27.33 9.66 4.39 1.45 7.09 3.62 6.57 8.64a33.16 33.16 0 0 0 .24 4.97zm-23.35 43.51 2.3-.13c9.28-.66 12.43-3.36 13.77-12.63a72.59 72.59 0 0 0 -.13-24.34c-2.09-10.79-6.7-16.11-16.8-18-18.19-3.44-35.91-8.23-52.38-17-2-1-4.08-1.11-5.6.71-3.76 4.48-7.65 8.88-9.68 14.56-3.93 11-5.09 22.17-2.06 33.42 2.13 7.92 5.83 15.16 15 17.24 18.26 4.16 36.89 5.5 55.58 6.17z" fill="#90a4ae"/><path d="m832.58 444.66a172.73 172.73 0 0 1 -28.75-2.19 25.14 25.14 0 0 1 -6.15-1.94c-5.94-2.77-6.56-8.15-1.41-12.37a19.74 19.74 0 0 1 10.85-4.24c9-.84 18-1.58 27.08-2.33 3.85-.32 7.63-1 10.92-3.07a2.84 2.84 0 0 1 3.76.1c7.74 5.8 16.78 7.61 26.13 8.42 1.16.1 2.79 0 3.15.93.58 1.49-1.22 2.1-2.17 2.7-12.22 7.63-25.11 13.41-43.41 13.99z" fill="#fdfdfe"/><path d="m901.64 262.91a42.66 42.66 0 0 0 -8.38 26.81c0 1.55-.68 1.93-1.84 2.34-14.32 5.07-28.44 10.63-42.64 17.25.77-3.49-.09-6.94 3.35-9.18 1.37-.89 1.39-3 .52-4.23-1.53-2.21-.94-4.29-.38-6.51 2.44-9.74 5.56-19.27 8.8-29.34 3.27 5.16 6.31 10 10.76 13.71a27.32 27.32 0 0 0 4.9 3.64 7.29 7.29 0 0 0 8.21-.48c6-4.2 10.65-9.87 16.14-14.62z" fill="#0f9d58"/><path d="m1006 353.1c6.79 1.07 13.36-.37 19.77-2.47 2.35-.77 2.85-.22 2.92 2 .37 13.4 1.87 26.72 3.14 40.05.19 2-.31 2.64-2.22 3-8.62 1.68-17.24 1.17-25.87.31-1.16-.11-2.46-.46-1.78-2.13 5.27-12.93 4.64-26.41 3.78-39.91a2.8 2.8 0 0 1 .26-.85z" fill="#0f9d58"/><path d="m1004.28 329.76a67.19 67.19 0 0 0 -.45-7.25c-.61-3.81-.36-7 3-9.73s7.07-3 10.83-2.51c9.59 1.16 16 8.42 16.56 18a11.68 11.68 0 0 1 -5.35 11.11c-6.22 4.2-13.21 5.58-20.66 5.16-2.36-.14-3-1.22-3.1-3.35-.12-3.82-.4-7.64-.61-11.45z" fill="#4285f4"/><path d="m901.9 287.79c.58-11.29 4.73-19.68 13.1-25.53 6.13-4.28 13.12-7.19 19.78-10.61 9.94-5.11 20.9-3.56 31.33-5.43 3.62-.66 7.36-.64 11-1.18 4.2-.62 2.33 3.08 3.34 4.65s.19 2.63-2 2.91a268 268 0 0 0 -44.94 10 85.5 85.5 0 0 0 -18.33 8.3c-6.01 3.58-9.52 8.03-13.28 16.89z" fill="#fdfdfe"/><path d="m833 343.09c.66-7.84 4.82-15 11.39-20.68 7.85-6.82 8.09-6.68 11.7 3 2.49 6.66 4.73 13.41 7.35 20 1.26 3.17.26 4.34-2.8 4.65-6.6.66-13.2 1.53-19.83.53-5.1-.76-7.45-2.76-7.81-7.5z" fill="#fdfdfe"/><path d="m987.45 393.24c-1.77-1.67-3.8-1.9-6.05-2.09-9-.78-17.33-4.06-24.94-8.75-13.36-8.21-26.87-16.3-36.92-28.78a32.77 32.77 0 0 1 -2.6-3.3c-2.93-4.86-4.46-5.42 2.57-7.47 1.81-.53 2.41.11 3.44 1.19 16.94 17.74 35.09 33.77 59.15 41.35 1.08.35 2.16.74 3.26 1 5.07 1.47 5.07 1.46 2.09 6.85z" fill="#fdfdfe"/><path d="m899.57 251.6c-6.17 6-11.77 11.34-17.31 16.77-1.51 1.48-2.58.8-3.89-.32-5.75-4.93-9.55-11.12-12.5-19.14 11.22 2.85 22.18.43 33.7 2.69z" fill="#4285f4"/><path d="m894.93 249.11c-3.9 2.45-7.43 4.66-10.93 6.88a2 2 0 0 1 -2.41-.07 17.85 17.85 0 0 1 -7.51-7.47c6.92 1 13.74-.1 20.85.66z" fill="#fdfdfe"/><path d="m900.15 97.81a28.74 28.74 0 0 1 -14.15-1.91c-2.14-.92-4.22-2.12-4.2-4.88s2.56-2.5 4.19-3.52c7.32-4.56 14.75-2.1 22.1-.61 3.06.63 7 2.27 7.07 5.38.06 2.51-4.2 3.14-6.73 4.14a19.89 19.89 0 0 1 -8.28 1.4z" fill="#ffcd40"/><path d="m822.58 321.45c.21-8.72 3-18.64 11.77-20.73.49-.12 1-.35 1.46-.45 5-.93 5.66-.31 4.93 4.69-.41 2.75-1.21 5.47-.24 8.27.45 1.3-.74 1.73-1.49 2.36a33.07 33.07 0 0 0 -7.38 8.25c-2.21 3.78-4.61-.15-7 .48-1.54.43-2.14-1.73-2.05-2.87z" fill="#fdfdfe"/><path d="m804.21 342.66c5.49 2.48 11.18 2.06 16.66 2.7 2.76.32 4.16.87 4.46 3.71.13 1.19.92 2.31 1.6 3.93a88.78 88.78 0 0 1 -22-2.88c-1.36-.33-1.75-1.33-1.52-2.64.26-1.48.5-3 .8-4.82z" fill="#b0bec5"/><path d="m1103 137.08c3 .22 5.41-.6 7.89-1.09 1.83-.37 2.62.27 2.49 2.14-.16 2.4-.22 4.81-.42 7.21-.09 1-.33 2-1.69 2.16-4.21.39-8.42.67-11.91-2.35-2.16-1.87-1.4-4.61-.95-6.69.52-2.46 3.39-.29 4.59-1.38z" fill="#b0bec5"/><path d="m1068.19 228.42c1.55 2.91 4.59 3.82 7.19 5.23 2.18 1.19 2.16 2.2 1 4.12-1.5 2.45-2.63 5.13-4 7.86-3.11-2.3-5.46-5.11-8-7.78s-2.4-4.83.68-6.88a39.83 39.83 0 0 0 3.13-2.55z" fill="#b0bec5"/><path d="m1001.83 56.07a7.58 7.58 0 0 1 -5-3.33c-1.15-1.92 1.49-2 1.89-3.08 2-5.57 7.57-4.39 11.56-6.17 1.47-.65 2.15 0 1.76 1.66a22.84 22.84 0 0 0 -.94 7.49c.06.67-.11 1.22-.91 1.4-2.66.64-5.36 1.3-8.36 2.03z" fill="#b0bec5"/><path d="m1049.93 247a20 20 0 0 1 5-7.12c4.27 5.06 8.23 10.35 14 13.84 1.44.87.47 2.21.08 3-.67 1.4-1.75.32-2.56-.15-5.45-3.16-10.95-6.36-16.52-9.57z" fill="#b0bec5"/><path d="m1025.69 53.2c-6.62-.07-6.57-.05-5.13-6.52.46-2 .92-4.29 3.1-4.76 2.89-.63 5.71.49 8.42 1.56.92.37.34 1.05.16 1.57-.85 2.38-1.76 4.73-2.58 7.11-.88 2.55-2.92.21-3.97 1.04z" fill="#b0bec5"/><path d="m853.59 254.66c-3.13 10.2-6.25 20.4-9.69 31.63-1.65-12.79-.75-23.7 9.69-31.63z" fill="#0f9d58"/><path d="m1095 123.11c3.73-.73 7.41-1.53 11.13-2.18 4-.7 3.59 2.95 4.31 4.93 1 2.78-1.8 1.49-2.9 1.88a18.59 18.59 0 0 1 -4.47.84c-5.79.58-6.07.36-8.07-5.47z" fill="#b0bec5"/><path d="m991.55 60.11c-3 1.1-5 4.43-8.75 2.31a5.38 5.38 0 0 1 -2.53-5.9c1-3 4.45-4.12 7.63-5.64-.27 3.76 1.26 6.58 3.65 9.23z" fill="#b0bec5"/><path d="m826.19 333.27c-.05 3.53-1.84 4-4.55 3.65-5-.55-10-1.76-15.11-1.26-2.07.21-1.57-1.12-1.6-2.13 0-1.45.24-2.14 2.2-1.91 6.28.75 12.61 1.12 19.06 1.65z" fill="#b0bec5"/><path d="m973.33 64.18c.39 3 4.58 3.7 3.5 6.33-.89 2.18-3.17 3.8-3.7 6.46-.22 1.1-1.22.61-1.79.1-1-.83-3.23-1-2.51-2.7s1.67-3 1.83-4.89a8.66 8.66 0 0 1 2.67-5.3z" fill="#b0bec5"/><path d="m908.78 255.48c0 .83-.65.94-1.27 1l-.24-.2c.21-.81.76-1 1.52-.81z" fill="#0f9d58"/><path d="m902.79 261c.11-.31.29-.77.63-.42s-.09.57-.44.66z" fill="#fdfdfe"/><path d="m901.86 261.61.93-.64s.19.23.19.23l-.68.86c-.15-.16-.3-.31-.44-.45z" fill="#0f9d58"/><path d="m901.08 262.3.78-.69c.15.14.29.29.44.45l-.66.85z" fill="#0f9d58"/><path d="m873.2 86.16c.07-.31.17-.63.58-.41a4.32 4.32 0 0 1 -.23.74z" fill="#fdfdfe"/><path d="m653.46 318.1c-11.93-1.23-23.88-1.21-35.86-1.36-31.2-.37-59.38 8.7-85.61 25.13-18 11.27-34.3 24.75-51.3 37.32a158 158 0 0 1 -60.24 27.61c-21 4.68-41.8 2.37-62.4-2.76a196.67 196.67 0 0 1 -27.16-8.86c-2.54-1.05-5.26-1.7-7.05-4.2-1.43-2-4.1-.75-6.06-1.79-11.1-5.87-21.68-12.47-30.95-21-3.67-3.38-6.85-7.23-10.31-10.79-3.81-3.94-5.1-8.6-5.52-13.8-1.86-23.45-1.61-46.91-1-70.4.51-20.69 5.78-40.44 10.62-60.3 5.38-22.12 11.4-44 19.51-65.35a31.08 31.08 0 0 1 11.33-14.84c19.45-13.89 40.46-23.74 64.48-26.79 12.18-1.55 24-.34 36.06 1.31a81.42 81.42 0 0 1 40.65 17.09c13.44 10.71 22.35 24.2 25.12 41.45 1.08 6.68 2.35 13.31 2.64 20.09.67 16.14-6.23 28.71-19 37.9-11 7.9-23.64 12.93-35.5 19.33-12.66 6.82-25.65 13-37.27 21.65-8.1 6-14.59 13.49-20.38 21.65a113.42 113.42 0 0 0 -8.94 13.77c-9 17.69-4.69 35.18 11.84 46.1 11.95 7.9 25.43 11.26 39.51 13 12.92 1.56 24.28-2.85 35.64-7.92 26.63-11.87 52.4-25.43 78.32-38.72 14.06-7.2 28.61-13.23 44.16-16.45a126.94 126.94 0 0 1 29.32-2.27c10 .26 20.12.3 30.1 1.77a37.56 37.56 0 0 1 9.52 2.66c1.32.58 2.12 1 1.07 2.72-1.69 2.8-.57 5.17 2 6.88s5.17 3.28 7.73 5c2 1.33 4 2.66 5.24 4.88zm-285.46-153.16a66.08 66.08 0 0 0 -16.45 2.49c-18.45 5-32.74 15-40.48 33.07-6.95 16.2-6.72 32.67-1.59 49.26 2.89 9.32 5.7 18.58 17 21.63 3.53.95 5.45.6 7.25-2.46a69.82 69.82 0 0 1 12-15.78c13-12.19 27.62-22.14 43-31 7.81-4.47 15.07-9.57 21.07-16.28 10.49-11.72 8.67-24.87-4.58-33.36-11.16-7.08-23.52-8.51-37.22-7.57z" fill="#1ebbee"/><path d="m300.82 406.41a17.24 17.24 0 0 1 -14.28 5.35c-11.14-1.07-17.81-8.51-23.5-17.15-5.07-7.72-6.28-16.66-7.37-25.46-1.86-14.95-3.56-29.93-4.15-45a487.75 487.75 0 0 1 1.34-55.79c2-26.92 6.16-53.49 11.34-80 7.11-36.34 22.94-68.52 44.77-98.18 11.52-15.61 23.77-30.27 40.03-41.18 6.76-4.53 13.82-8.09 22.12-8.61 11.29-.7 19.56 5 26.45 13 7.69 8.89 11.82 19.49 13.39 32.14-4-6.35-7.82-11.59-13.07-15.69-16.7-13-32-13.58-49.52-1.53-20.57 14.14-35.4 33-46.65 55.23-12.87 25.34-20.72 52.4-27.72 79.78-4.37 17.11-8.86 34.2-11.35 51.72-1.46 10.23-1.65 20.56-1.74 30.88-.11 12.37-.2 24.76.1 37.13.44 18.53 2.4 36.9 8.26 54.62 4.44 13.33 13.15 23.93 31.55 28.74z" fill="#ffcd40"/><path d="m259.41 171.25c-1.93 7.63-3.79 15.27-5.81 22.88-3.6 13.59-3.85 27.68-6.06 41.48-2.81 17.58-3.86 35.39-4.72 53.17a369 369 0 0 0 1.18 49.58c-2.29-.26-3.16-2-4.07-3.28-1.88-2.7-3.45-5.62-5.13-8.47-2.27-3.83-4.18-8.06-7.67-10.87-6.14-4.93-6.41-11.44-5.92-18.36a48.46 48.46 0 0 0 .08-6.49c-.37-5.88-4.68-8.08-9.85-5.12-1 .56-2 1.14-3 1.73-1.16-1.57 0-2.82.4-4 4.34-12.64 11.49-23.8 18.56-35a22.78 22.78 0 0 0 4-12.92c-.18-7.62-3.15-11.34-10.63-13.27-2.57-.66-5.29-.66-7.74-1.9-4-2-4.76-4-2.86-8a21.72 21.72 0 0 1 6.64-7.77c9.18-7.09 19.33-12.81 28.11-20.45 4.9-4.27 9.91-8.43 13.72-13.78z" fill="#1ebbee"/><path d="m258.57 170.43.9-1c.61.62.39 1.2-.06 1.78z" fill="#1ebbee"/><path d="m653.75 317.74c.3.2.61.4.17.74 0 0-.3-.25-.46-.38z" fill="#fdfdfe"/><path d="m65.18 366.28c-3.24 4.59-7.7 8.13-10.85 12.83-5.71 8.49-8 16.88-1.31 26.07 2.94 4 1.31 8.11-3.31 10.16-7.07 3.15-13.5 1.59-18.16-4.58a30.82 30.82 0 0 1 -5.78-21.71c2.46-27.36 14.52-50.29 33.9-69.48a22.72 22.72 0 0 1 14.88-7c3.52-.2 4.06.63 2.91 4-1.66 4.83-4.9 8.61-8.34 12.2-7.18 7.5-12.55 16-15 26.21-.27 1.11-.68 2.19-.87 3.31-.91 5.36 2.18 8.66 7.55 8.07 1.26-.14 2.5-.46 3.75-.69z" fill="#1ebbee"/><path d="m64.56 365.66 1-.14c-.12.25-.23.51-.34.76z" fill="#fdfdfe"/><path d="m153.46 327c0 8.29-3 15.78-7.45 22.74-2.07 3.27-5.31 2.84-6.36-.95a18 18 0 0 1 2.09-13.9c2.09-3.67 5.14-6.66 8.12-9.63.78-.78 1.71-2 2.85-1.51s.43 2.08.75 3.25z" fill="#1ebbee"/><path d="m144.34 230.64c2.83.7 5.09.54 6.68-1.86 1-1.58 2.45-1.53 4-.84a8.41 8.41 0 0 1 5.08 5.78c.43 1.74-.84 2.85-2.26 3.53-8.1 3.88-11.65 3.65-13.5-6.61z" fill="#1ebbee"/><path d="m661.82 253.89c-1.59 0-3.44.28-3.39-1.29.08-2.11 2.14-2.51 4-2.64 1.39-.1 3.42-.17 3.26 1.51-.22 1.96-2.42 2.26-3.87 2.42z" fill="#1ebbee"/><path d="m860.89 178.2a12 12 0 0 0 8.68-2.87c1.83-1.53 3.75-2.3 5.92-.94 2 1.25 2.19 3.11 1.85 5.36-1 6.92 6.44 13 12.92 10.61 3.4-1.26 3.46-4.05 3-7a16.73 16.73 0 0 0 -1-2.85c-.82-2.23-.27-4.13 1.75-5.29 2.23-1.28 4.2-.48 5.73 1.44 5.84 7.4 1.79 19.9-7.42 22-3.65.82-5.1 2.45-5.44 5.91a42.55 42.55 0 0 1 -3.75 13.53c-2.78 6.06-7.81 7-12.39 2.11-5.89-6.28-8.39-14.1-9.62-22.42a29.48 29.48 0 0 1 -.33-4.2c0-3.62 0-6.93-4.76-8.13-2.32-.59-3.46-3.17-3.71-5.8-.59-6.09 3-10.06 7.08-13.62 1.72-1.49 3.91-1.14 5.52.6s1.44 3.72 0 5.57-3.23 3.27-4.03 5.99zm14.92 34.72c2-5 2.42-9.42 3.4-13.74a1.63 1.63 0 0 0 -1-2.11c-4.47-2.34-7.19-6.18-9.07-10.77-.07 9.21.76 18.14 6.67 26.62z" fill="#455a64"/><path d="m909.48 171.69c.25-7.11 1-14.15 3.56-20.88a9.61 9.61 0 0 1 1.42-2.69c2.43-3 4.82-6.19 9.41-5.19 3.65.78 6.6 4.32 6.47 9.29-.23 8.84 0 17.86-4.65 26-1.21 2.13-2.45 4.14-4.78 5.29-3 1.46-5.7.94-7.45-1.67-2.01-3.05-4.38-6.09-3.98-10.15z" fill="#455a64"/><path d="m836.12 163.33c-.54-8.27 1.86-15.87 5.6-23.07 2.32-4.46 5.78-5.72 10.59-4.4 3.17.87 5.19 3.88 4.88 8.17-.62 8.44-2.24 16.65-6.93 23.93a19.54 19.54 0 0 1 -2.28 3c-1.9 1.94-4.23 3-6.93 2.13s-4.23-3.17-4.69-6a34.67 34.67 0 0 1 -.24-3.76z" fill="#455a64"/><path d="m773.11 362.81c-18.69-.67-37.32-2-55.63-6.17-9.12-2.08-12.82-9.32-15-17.24-3-11.25-1.87-22.46 2.06-33.42 2-5.68 5.92-10.08 9.68-14.56 1.52-1.82 3.62-1.76 5.6-.71 16.47 8.75 34.19 13.54 52.38 17 10.1 1.91 14.71 7.23 16.8 18a72.59 72.59 0 0 1 .13 24.34c-1.34 9.27-4.49 12-13.77 12.63zm-42.79-32.2c.53 6.9-.24 5.5 6.1 6.85a92.46 92.46 0 0 0 14.4 1.44c7.27.39 8.88 2.24 8.92-7.88 0-3.66-1-4.08-4.24-4.21-7-.29-14 .5-20.94-1.17-4.49-1.08-4.47-1.16-4.31 3.44.01.51.05 1.02.07 1.53zm-15.08-25.48c-1.67 1.06-1.93 2.48-2.42 3.74a49.34 49.34 0 0 0 -2.35 26.61c1.21 7.23 2 7.65 8.37 4.28 2.59-1.37 3.63-2.91 3.21-5.93a47 47 0 0 1 0-13.35 4.56 4.56 0 0 0 -.66-3.6 60 60 0 0 1 -6.15-11.75zm8.45-3.05c4.82 12.67 7.95 15.44 18.86 15.73 5.73.15 11.51 0 17.18.75 3.61.46 6.12-1.1 9-2.53-15.3-3.03-30.17-7.03-45.04-13.95zm56.21 49.72c1.28-3.33 1.25-6.27 1.37-9.1.26-6.23.29-12.49-1.67-18.52-.26-.8 0-2.69-2.34-1.86-8.25 2.94-8.57 3.2-9.13 11.83-.09 1.26 0 2.54-.19 3.8-.08.68-.2 1.28.52 1.61 5.24 2.44 7.72 7.55 11.44 12.24zm-58.85-3.09a332.4 332.4 0 0 0 49.69 5.52 20.82 20.82 0 0 0 -5.38-6.52c-.91-.69-1.62-1.53-3-1.16-9.75 2.62-19.48.89-29-1-4.77-.92-8.31-.2-12.31 3.16z" fill="#455a64"/><path d="m368 164.94c13.74-1 26.1.49 37.22 7.62 13.25 8.49 15.07 21.64 4.58 33.36-6 6.71-13.26 11.81-21.07 16.28-15.41 8.81-30 18.76-43 31a69.82 69.82 0 0 0 -12 15.78c-1.8 3.06-3.72 3.41-7.25 2.46-11.27-3.05-14.08-12.31-17-21.63-5.13-16.59-5.36-33.06 1.59-49.26 7.74-18 22-28.09 40.48-33.07a66.08 66.08 0 0 1 16.45-2.54zm-53.47 64.61c-.08 3.78.77 7.4 1.5 11 1.3 6.36 3.09 12.61 6.4 18.24 2.37 4 4.82 4 7.35.2a69.28 69.28 0 0 1 10.47-12.63c13.74-12.7 29.11-23.11 45.3-32.35a67 67 0 0 0 18.43-14.68c5.87-6.94 4.81-14-2.76-19.08s-16.09-6.74-25-7c-15.14-.45-29.61 2.48-42 11.44-15.06 10.95-20.16 26.84-19.73 44.86z" fill="#455a64"/><path d="m875.81 212.92c-5.91-8.48-6.74-17.41-6.69-26.62 1.88 4.59 4.6 8.43 9.07 10.77a1.63 1.63 0 0 1 1 2.11c-.96 4.32-1.38 8.82-3.38 13.74z" fill="#fdfdfe"/><path d="m730.33 330.61c0-.51-.07-1-.08-1.53-.16-4.6-.18-4.52 4.31-3.44 6.89 1.67 14 .88 20.94 1.17 3.21.13 4.25.55 4.24 4.21 0 10.12-1.65 8.27-8.92 7.88a92.46 92.46 0 0 1 -14.4-1.44c-6.34-1.35-5.57.05-6.09-6.85z" fill="#546e7a"/><path d="m715.24 305.13a60 60 0 0 0 6.11 11.75 4.56 4.56 0 0 1 .66 3.6 47 47 0 0 0 0 13.35c.42 3-.62 4.56-3.21 5.93-6.41 3.37-7.16 2.95-8.37-4.28a49.34 49.34 0 0 1 2.35-26.61c.53-1.26.79-2.68 2.46-3.74z" fill="#546e7a"/><path d="m723.69 302.08c14.87 6.92 29.74 10.95 45 13.95-2.89 1.43-5.4 3-9 2.53-5.67-.73-11.45-.6-17.18-.75-10.87-.29-14-3.06-18.82-15.73z" fill="#546e7a"/><path d="m779.9 351.8c-3.72-4.69-6.2-9.79-11.44-12.24-.72-.33-.6-.93-.52-1.61.15-1.26.1-2.54.19-3.8.56-8.63.88-8.89 9.13-11.83 2.31-.83 2.08 1.06 2.34 1.86 2 6 1.93 12.29 1.67 18.52-.12 2.83-.09 5.77-1.37 9.1z" fill="#546e7a"/><path d="m721.05 348.71c4-3.36 7.54-4.08 12.3-3.14 9.53 1.87 19.26 3.6 29 1 1.38-.37 2.09.47 3 1.16a20.82 20.82 0 0 1 5.38 6.52 332.4 332.4 0 0 1 -49.68-5.54z" fill="#78909c"/><path d="m872.17 245.66c-1.22 6.39 3 13.08 9.57 14.12s12.76-4.23 13.48-10.6c.49-4.39-6.28-5.89-6.77-1.47-.3 2.68-2.3 5.47-5.31 5.28-2.85-.18-4.7-3.25-4.2-5.86.83-4.38-5.94-5.86-6.77-1.47z" fill="#455a64"/><path d="m907.51 256.51-.24-.19c-.31.09-.74.25-.41.59s.55-.06.65-.4z" fill="#ffcd40"/><path d="m901.08 262.3c-5.49 4.75-10.12 10.42-16.14 14.62a7.07 7.07 0 0 1 -6.43 1.19 58.34 58.34 0 0 0 1.54 18.11c3.78-1.43 7.56-2.82 11.37-4.16 1.16-.41 1.89-.79 1.84-2.34a42.66 42.66 0 0 1 8.38-26.81z" fill="#ffcd40"/><path d="m908.8 255.47a17.4 17.4 0 0 0 6.18-3.78c-3.62-.94-5.28.85-6.18 3.78z" fill="#ffcd40"/><path d="m979.84 399.87a96.7 96.7 0 0 1 -13.66-3.4c-11.52-3.89-21.24-11-31.17-17.65-11.21-7.54-21.2-16.34-27.9-28.34-.75-1.33-1.79-1.3-2.93-1-7.14 1.88-14.3 3.62-21.52 5.1 1.82 15.62 6.37 40.9 17.58 62.94a73.2 73.2 0 0 1 11.35.54c9.33 1.27 18.24 4.44 27.36 6.66 18.73 4.56 41.65-5.82 50.3-23.47-3.85 1.23-6.48-.86-9.41-1.38z" fill="#ffcd40"/><path d="m877.73 274-1.73 24.4c-.32 4.44 6.6 4 6.92-.38l1.77-24.43c.32-4.43-6.6-4-6.92.39z" fill="#455a64"/><path d="m878.58 352.57a198.66 198.66 0 0 0 20.79 71.11c2 4 7.77.12 5.77-3.83a189.18 189.18 0 0 1 -19.64-67.66c-.43-4.43-7.35-4.06-6.92.38z" fill="#455a64"/></svg>