<svg viewBox="0 0 588 96" xmlns="http://www.w3.org/2000/svg"><g fill="#37474f"><path d="m576.28 89.71c-2.76-.17-6 .07-9.24-.73a14.54 14.54 0 0 1 -7.1-4.21c-5.54-5.8-9.86-12.55-14.64-18.94-2-2.64-2.6-5.91-3.32-9.1-.2-.92-.13-2.26-1.82-2-1.41.23-3.09 0-3.26 2.06a62.78 62.78 0 0 0 .81 17.47c.19 1 1 1.37 1.72 1.84a26.19 26.19 0 0 1 6.33 5.45 6.43 6.43 0 0 1 .63.77c1.05 1.76 2.5 3.52 1.27 5.69s-3.57 1.89-5.56 1.58c-5.14-.8-10.35-.75-15.49-1.45-3.67-.51-7.27.52-10.9.93a50.57 50.57 0 0 1 -8 .2c-2.61-.12-3.92-2.3-3.11-4.88a5.78 5.78 0 0 1 2.69-3.39 18.71 18.71 0 0 1 3.55-1.78c2.69-.83 3.78-2.76 4-5.34.56-8 1.57-15.91 1-23.92-.71-10.23-1.21-20.47-.92-30.73a3.93 3.93 0 0 0 -2.5-4.18 15.81 15.81 0 0 1 -4.9-3.38 7.17 7.17 0 0 1 -1.77-2.86c-1.09-3.63.92-5.88 4.7-5.36 3.55.48 7.07 1.38 10.69 1a106 106 0 0 1 18.75-.66c7.66.58 15.41 1.29 22.78 3.48a21 21 0 0 1 12.8 29.73c-2.82 5.76-7.17 10.22-12.12 14.12-1.36 1.07-1.44 1.65-.21 2.85a18.92 18.92 0 0 1 4.06 5.64c3.17 6.92 8.32 12.31 13.51 17.66a18.23 18.23 0 0 0 2.77 1.93 19.32 19.32 0 0 1 2.42 1.8 5.36 5.36 0 0 1 1.61 6c-.81 2.13-2.89 2.62-4.94 2.74s-3.87-.03-6.29-.03zm-21.7-59.88c.18-5.66-2.14-9.27-7.17-11.28-2.75-1.1-5.68-1.24-8.57-1.57-1.05-.12-1.32.36-1.07 1.28a18.55 18.55 0 0 1 .29 4.76c0 5.45.05 10.9 0 16.35 0 1.53.35 2.21 2 2.45a18 18 0 0 0 5.53-.1c4.92-.8 7.45-3.23 8.63-8.07a36.52 36.52 0 0 0 .36-3.82z"/><path d="m188.45 43.68c2.41 1.61 4.62 3.06 6.82 4.54a29.35 29.35 0 0 1 8.63 9.29c4.72 7.83 2.26 19.63-5.35 24.95-4.8 3.35-9.86 6.35-15.86 7.06a64.43 64.43 0 0 1 -13.95.35c-11.06-1.06-22.11-2.28-33.26-1.72-3.25.16-4.36-1.5-3.12-4.54a11.19 11.19 0 0 1 6.95-6.45 3.55 3.55 0 0 0 2.45-3.25c2-14.43 1.85-28.94 1.39-43.45-.11-3.46-.5-6.91-.53-10.37 0-2.65-1-4.29-3.55-5.19a10.8 10.8 0 0 1 -7.4-7.48c-.69-2.47.45-4 3-4.13s5.28.58 7.9 1c5.21.72 10.36 0 15.53-.31 9.3-.56 18.62-1.3 27.93-.49a25 25 0 0 1 11.86 4.31c6.78 4.62 9.24 12.71 6.47 20.87-1.9 5.59-5.22 10-10.7 12.49-1.66.77-3.33 1.61-5.21 2.52zm-18.36 34.15c4.53.83 7.57-1.31 9.86-4.92a20 20 0 0 0 3.29-9.69c.16-3.29-.83-6.36-4.05-8.07-4.12-2.15-8.64-2.33-13.19-2.45-1.1 0-1.57.43-1.55 1.69a90.09 90.09 0 0 1 -.32 13.14c-.3 2.5-.42 5-.7 7.53-.17 1.49 0 2.44 1.86 2.44 1.62 0 3.21.21 4.8.33zm10.45-51.83c0-.6 0-1.2 0-1.8-.25-3.5-1.83-5.76-4.72-6-3.64-.3-7.3-.5-10.93-.91-1.39-.15-1.63.37-1.48 1.69a57.69 57.69 0 0 1 .49 12.53c-.25 2.38-.33 4.77-.57 7.15-.12 1.15.27 1.54 1.4 1.45a21.77 21.77 0 0 0 8.36-2.4c4.69-2.45 7.64-6.08 7.45-11.71z"/><path d="m215.74 39.49v-17.79c0-.73 0-1.46-.05-2.2-.07-1.71-.48-2.9-2.45-3.65a10.34 10.34 0 0 1 -6.74-7.34c-.85-3.37.62-5.39 4.14-5.58a39.43 39.43 0 0 1 7 .52 61.33 61.33 0 0 0 17.48-.71 14.24 14.24 0 0 1 6.13.27 5.64 5.64 0 0 1 4.34 4.72c.36 2.18-1 3.68-2.57 4.83a21.88 21.88 0 0 1 -4 2.31 3.32 3.32 0 0 0 -2.21 3.67c.17 4.39.09 8.79.13 13.19.06 7.27-.69 14.49-1.05 21.74a48.35 48.35 0 0 0 .78 12.72 11.47 11.47 0 0 0 8.38 9 25.55 25.55 0 0 0 13.21.39c5.28-1.24 7.35-5.53 8.65-10.24 1.19-4.27 1.06-8.73 1.09-13.09.07-11.13 1.28-22.22 1-33.35 0-1.51-.44-2.25-1.86-2.75a57.53 57.53 0 0 1 -5.65-2.47 7.28 7.28 0 0 1 -3.89-4.81c-.78-2.72.6-4.86 3.4-5.11a12 12 0 0 1 3.78.1c5.55 1.35 11.13.73 16.7.48a29 29 0 0 1 7.56.18c1.93.43 3.51 1.34 4.07 3.37s-.34 3.39-1.62 4.65a19.38 19.38 0 0 1 -6.21 4.29c-2.57 1-3.15 2.9-3.15 5.35v31.79a80.54 80.54 0 0 1 -2.85 20.26 14.37 14.37 0 0 1 -4.84 7.8c-7.25 6.08-15.54 8.82-24.93 9.81-17.63 1.87-30.07-13.2-32.59-25.3a49.86 49.86 0 0 1 -1.18-10.47c0-5.53 0-11.06 0-16.6z"/><path d="m464.86 28.74c0 3.4.05 6.8 0 10.19 0 1.19.32 1.6 1.56 1.67 2.25.14 4.51.29 6.77.38a3.69 3.69 0 0 0 3.72-2.11c.61-1.11 1.2-2.22 1.82-3.32a13.59 13.59 0 0 1 3-3.7 5 5 0 0 1 5-1.13c1.82.63 2.42 2.4 2.44 4 .09 8.06.44 16.13-.37 24.16a3.65 3.65 0 0 1 -2.87 3.47 4.48 4.48 0 0 1 -4.73-1.9 35 35 0 0 1 -3-5.17 4 4 0 0 0 -4-2.39c-1.73 0-3.46 0-5.19 0-2.28 0-2.86.5-2.92 2.83-.07 3.19-.08 6.4.11 9.59a64.68 64.68 0 0 1 .16 8.58c-.11 1.45.38 2 1.77 2.23a23.81 23.81 0 0 0 6.95.14 12.81 12.81 0 0 1 4.18-.13c3.19.66 4.75-.83 6-3.52a48.32 48.32 0 0 1 4.45-7.08c1.34-1.88 3.05-3.63 5.65-2.85s3.49 3.19 3.81 5.62c.7 5.35.33 10.77.62 16.16.13 2.44-1.64 4-4.23 4-3.08.08-6-.92-9.1-1-7.05-.28-14.1-.39-21.16 0-4.92.3-9.87.24-14.77.63a54.83 54.83 0 0 1 -11.53-.45c-1.72-.23-3.35-.74-4.05-2.46s-.11-3.37 1-4.83c1.51-2 3.69-2.75 5.87-3.59 1-.38 1.78-.74 1.86-2.18.77-14.37 1.3-28.74 1.13-43.14-.05-4.46-.3-8.92-.38-13.38a1.8 1.8 0 0 0 -1.46-2 14.05 14.05 0 0 1 -6.57-4.34c-1.3-1.5-2.3-3.29-1.45-5.3s2.67-2.56 4.72-2.81c4-.48 8 .45 11.95.47 11.46 0 22.91.5 34.37.49 3.72 0 7.44.32 11.17.21 2.49-.07 4.23 1.77 4.44 4.44a15.47 15.47 0 0 1 -.81 6.47q-1.79 5.14-3.51 10.21c-.68 2-1.79 3.57-4 3.65s-3.59-1.55-4.37-3.55-1.34-4-2.11-6c-.86-2.16-2.17-3.54-4.83-3.73a149.67 149.67 0 0 0 -15.57.24c-1.14 0-1.58.6-1.55 1.79.07 3.46 0 6.93 0 10.39z"/><path d="m311.32 90.15c-3.38-.25-6.79.27-10.16-.35-5.64-1-9-5.15-8.82-10.8s2-10.81 3.5-16.08a7.27 7.27 0 0 1 2.31-3.44c2.37-2 6.17-.73 6.51 2.18a72.47 72.47 0 0 0 2.57 11 7.23 7.23 0 0 0 6.95 5.78 39.14 39.14 0 0 0 10.13-.44c5.39-1 5.75-5.37 5.29-9.32-.53-4.52-4-6.86-7.13-9.43-4.71-3.92-10.22-6.75-14.79-10.85s-9.18-7.71-12.4-12.92c-3.36-5.42-4-10.88-1.26-16.82 4.26-9.07 11.35-14.14 21.11-15.66a71.91 71.91 0 0 1 13.67-1.28 77.5 77.5 0 0 1 16.67 2.67c3.32.86 4.59 3.21 3.74 7-1.34 6-2.54 12.06-3.55 18.14-.32 1.87-1.84 2.37-3.28 2.82a3.75 3.75 0 0 1 -4.12-1.33 15.33 15.33 0 0 1 -2.9-5.41c-.64-2-1.42-4-1.89-6.07-.54-2.38-2.13-3.28-4.28-3.41a36.1 36.1 0 0 0 -10.31.8c-4.37 1-6.11 4.47-4.39 8.64a13.57 13.57 0 0 0 5.51 6.63c4.08 2.5 8.44 4.47 12.66 6.69 8.11 4.28 13.85 11 18.22 18.79 4.21 7.52 2.68 22.2-8.89 27.49a59 59 0 0 1 -19.14 5 66.73 66.73 0 0 1 -11.53-.02z"/><path d="m403.45 32.05c.63 13.67-.62 25.89-.87 38.14a10.8 10.8 0 0 1 -.08 1.39c-.54 3.58.21 6.18 4.19 7.46 2.74.87 4.6 3.33 6.55 5.43a2.93 2.93 0 0 1 .84 3.28 3.18 3.18 0 0 1 -3.08 1.88c-2.55.16-5-.49-7.5-.9-7.22-1.19-14.45-.81-21.69-.35-2.53.16-5 .63-7.56.58-2 0-3.55-.75-4.33-2.61s.16-3.36 1.4-4.67a12 12 0 0 1 5.33-3c3.32-1 4.29-3.27 4.25-6.48-.16-10.46 1.23-20.86 1.28-31.33 0-7.85-.53-15.7-.14-23.56.05-1.06-.24-1.64-1.43-1.57s-2.54-.06-3.8 0a7.3 7.3 0 0 0 -6.49 4.18c-2.05 4-3.75 8.22-6.35 12-.79 1.14-1.67 2.23-2.56 3.31-.65.79-1.67 1.25-2.47.61-1.25-1-2.86-2-3.15-3.64-1.4-7.64-3-15.25-3.23-23-.1-3.86 1.38-5.44 5.26-5.33 6.52.2 13 1 19.55.77 9-.3 18-.43 27-.75 7.61-.28 15.15.65 22.71 1.24 3.67.29 5.05 2 5.46 5.65.57 5.17-1.18 10-2.25 14.88a51.45 51.45 0 0 1 -1.84 6.7c-1.35 3.69-4.36 4.19-7.06 1.31a10.16 10.16 0 0 1 -2.09-3.81c-1.13-3.33-2.3-6.64-3.69-9.87-1-2.35-2.53-3.81-5.27-3.67-1.67.08-3.34 0-5 0-1.32 0-1.66.61-1.68 1.84-.08 5.03-.57 10.15-.21 13.89z"/><path d="m34.64 88.39c-6 0-11.9 1.16-17.91 1a45 45 0 0 1 -11.57-1.68c-3.3-.95-4-3.45-2.11-6.31a8.93 8.93 0 0 1 5.8-3.58c2.15-.46 2.7-1.69 3-3.54a71.34 71.34 0 0 0 .54-12q-.27-10-.11-20c.14-8.53-.82-17-.76-25.54 0-1.11-.69-1.25-1.42-1.56-3.03-1.18-5.79-2.78-7.68-5.5a9 9 0 0 1 -1.26-2.47 2.85 2.85 0 0 1 2.84-3.85c2.21-.12 4.33.58 6.51.81a52.34 52.34 0 0 0 10.17-.09c6.84-.6 13.7.57 20.53-.55a3.75 3.75 0 0 1 4.07 4.78c-.61 2.38-2.28 3.89-4.28 5.13a15.46 15.46 0 0 1 -4 2.13c-2.79.76-3.2 2.74-3.23 5.12a144 144 0 0 0 .92 15.54 147 147 0 0 1 .13 20.13c-.27 6.32-.2 12.65-.23 19a2.67 2.67 0 0 0 2.1 2.77 13.08 13.08 0 0 1 6.85 4.58c1.77 2.33 1.26 4-1.42 5.12-2.44 1.02-4.97.52-7.48.56z"/></g><path d="m104 52.47a166.92 166.92 0 0 0 -25.9 1.91q-.5.06-1 .09c-3.49.2-3.49.2-2.79 3.72.28 1.36.52 2.73.87 4.08 2 7.38 7.56 10.57 14.35 12.24 8.13 2 16.08.78 23.9-1.78 1.76-.58 3.48-1.29 5.24-1.85 2-.65 4.07-.59 5.58 1s1.44 3.84.73 5.85a16.88 16.88 0 0 1 -6.84 8.59 26.57 26.57 0 0 1 -8.93 3.78c-5 1.13-9.82 2.73-14.85 3.67a30.26 30.26 0 0 1 -14.94-1.06 86.09 86.09 0 0 1 -18.28-8.3 28 28 0 0 1 -11.14-13.2c-2.8-6.44-5.32-13.08-5.57-20.21-.49-14.17 2.57-27.26 12.72-37.81 3.93-4.07 9.2-6 14.43-7.79 7.69-2.62 15.64-2.86 23.65-2.19 3.9.32 7.85.3 11.6 1.65 10.73 3.84 17.37 11 19 22.59.82 5.71 1.49 11.33.26 17a27.43 27.43 0 0 1 -1.06 3.41c-1.12 3.15-3.44 4.59-6.73 4.59zm7.67-4.66h5.2c3.72 0 3.88-.12 4.81-3.76.07-.26.09-.53.14-.79 1-5.25.42-10.45-.42-15.65a22.44 22.44 0 0 0 -18.97-19.17 98 98 0 0 0 -10.53-.9 48.2 48.2 0 0 0 -19.27 2.28c-4.57 1.6-9.14 3.31-12.62 6.94-7.44 7.74-10.17 17.33-11.01 27.7-.77 9 1.79 17.25 5.32 25.25a23.35 23.35 0 0 0 9.32 10.93 83.23 83.23 0 0 0 17.19 7.8 25.87 25.87 0 0 0 12.57 1c5.76-1 11.34-2.74 17-4.25a14.92 14.92 0 0 0 8.77-5.9c.78-1.16 2.39-2.54 1.46-3.75-.74-1-2.39.41-3.65.73-.12 0-.23.13-.36.17-9.15 3.32-18.48 5-28.12 2.5-6.91-1.76-13-4.86-16.2-11.74-1.94-3.96-2.53-8.2-2.94-12.4-.26-2.81.89-4.4 3.65-4.64 5.09-.44 10.17-1 15.26-1.6 7.73-.82 15.57-.33 23.35-.75z" fill="#455a64"/><path d="m111.62 47.81c-7.78.42-15.6-.07-23.35.75-5.09.55-10.17 1.16-15.26 1.6-2.76.24-3.91 1.83-3.65 4.64.41 4.24 1 8.44 2.85 12.35 3.25 6.88 9.29 10 16.2 11.74 9.64 2.46 19 .82 28.12-2.5.13 0 .24-.14.36-.17 1.26-.32 2.91-1.7 3.65-.73.93 1.21-.68 2.59-1.46 3.75a14.92 14.92 0 0 1 -8.77 5.9c-5.62 1.51-11.2 3.24-17 4.25a25.87 25.87 0 0 1 -12.57-1 83.23 83.23 0 0 1 -17.19-7.8 23.35 23.35 0 0 1 -9.32-10.93c-3.53-8-6.09-16.27-5.32-25.25.89-10.37 3.62-20 11.06-27.7 3.48-3.63 8.05-5.34 12.62-6.94a48.2 48.2 0 0 1 19.31-2.23 98 98 0 0 1 10.53.9 22.44 22.44 0 0 1 18.92 19.17c.84 5.2 1.42 10.4.42 15.65 0 .26-.07.53-.14.79-.93 3.64-1.09 3.76-4.81 3.76zm-38.9-14c-.32 2.26.26 4.49.32 6.75a2.35 2.35 0 0 0 3.34 2.26 8.5 8.5 0 0 1 2.33-.36c5.19-.41 10.39-.35 15.58-.4 4.57-.05 7.74-2.78 8.3-7.29s-.66-8.57-1.93-12.68c-2.66-8.39-10.48-11.35-18.06-6.77-6.93 4.18-10.22 10.41-9.88 18.53z" fill="#1ebbee"/><path d="m72.72 33.85c-.34-8.12 3-14.35 9.88-18.53 7.58-4.58 15.44-1.62 18.06 6.81 1.27 4.11 2.48 8.31 1.93 12.68s-3.73 7.24-8.3 7.29c-5.19 0-10.39 0-15.58.4a8.5 8.5 0 0 0 -2.33.36 2.35 2.35 0 0 1 -3.38-2.26c0-2.26-.6-4.49-.28-6.75zm4.62-.58v3.6c0 .75.09 1.19 1.1 1.09 4.72-.44 9.46-.18 14.19-.28a15.14 15.14 0 0 0 2.76-.3 3 3 0 0 0 2.73-3 27.2 27.2 0 0 0 -3-13.64 6.33 6.33 0 0 0 -7.45-2.74c-6.43 1.94-10.29 7.62-10.33 15.27z" fill="#455a64"/></svg>