<svg viewBox="0 0 372 94" xmlns="http://www.w3.org/2000/svg"><g fill="#253b80"><path d="m139.82 22.13h-20.4a2.83 2.83 0 0 0 -2.8 2.39l-8.25 52.3a1.7 1.7 0 0 0 1.68 2h9.74a2.84 2.84 0 0 0 2.8-2.39l2.22-14.11a2.84 2.84 0 0 1 2.8-2.39h6.46c13.43 0 21.19-6.5 23.21-19.39.92-5.63 0-10.06-2.6-13.17-2.9-3.44-8.04-5.24-14.86-5.24zm2.35 19.1c-1.12 7.32-6.71 7.32-12.12 7.32h-3.05l2.16-13.67a1.68 1.68 0 0 1 1.67-1.43h1.42c3.68 0 7.15 0 9 2.09 1 1.26 1.33 3.12.92 5.69z"/><path d="m200.78 41h-9.78a1.69 1.69 0 0 0 -1.68 1.44l-.44 2.73-.68-1c-2.11-3.07-6.83-4.09-11.53-4.09-10.8 0-20 8.17-21.81 19.64-.93 5.72.39 11.19 3.64 15 3 3.51 7.23 5 12.3 5a18.68 18.68 0 0 0 13.52-5.59l-.44 2.71a1.7 1.7 0 0 0 1.68 2h8.8a2.83 2.83 0 0 0 2.8-2.4l5.3-33.44a1.7 1.7 0 0 0 -1.68-2zm-13.61 19a10.89 10.89 0 0 1 -11 9.33 7.56 7.56 0 0 1 -8.09-9.5 10.93 10.93 0 0 1 10.92-9.4 8.25 8.25 0 0 1 6.52 2.66 8.51 8.51 0 0 1 1.65 6.91z"/><path d="m252.8 41h-9.8a2.85 2.85 0 0 0 -2.35 1.25l-13.55 19.93-5.74-19.18a2.84 2.84 0 0 0 -2.72-2h-9.64a1.7 1.7 0 0 0 -1.61 2.25l10.81 31.75-10.2 14.32a1.7 1.7 0 0 0 1.42 2.68h9.8a2.82 2.82 0 0 0 2.33-1.22l32.65-47.12a1.7 1.7 0 0 0 -1.4-2.66z"/></g><path d="m285.3 22.13h-20.4a2.83 2.83 0 0 0 -2.8 2.39l-8.25 52.3a1.7 1.7 0 0 0 1.68 2h10.47a2 2 0 0 0 2-1.67l2.34-14.83a2.84 2.84 0 0 1 2.8-2.39h6.45c13.44 0 21.19-6.5 23.22-19.39.92-5.63 0-10.06-2.6-13.17-2.95-3.44-8.09-5.24-14.91-5.24zm2.35 19.1c-1.11 7.32-6.71 7.32-12.12 7.32h-3.07l2.16-13.67a1.69 1.69 0 0 1 1.68-1.43h1.41c3.68 0 7.16 0 9 2.09 1.02 1.26 1.35 3.12.94 5.69z" fill="#179bd7"/><path d="m346.26 41h-9.76a1.7 1.7 0 0 0 -1.68 1.44l-.43 2.73-.69-1c-2.11-3.07-6.82-4.09-11.53-4.09-10.79 0-20 8.17-21.8 19.64-.93 5.72.39 11.19 3.63 15 3 3.51 7.24 5 12.31 5a18.68 18.68 0 0 0 13.51-5.59l-.43 2.71a1.69 1.69 0 0 0 1.68 2h8.8a2.83 2.83 0 0 0 2.79-2.4l5.28-33.44a1.7 1.7 0 0 0 -1.68-2zm-13.61 19a10.89 10.89 0 0 1 -11 9.33 7.57 7.57 0 0 1 -8.1-9.5 11 11 0 0 1 11-9.4 8.23 8.23 0 0 1 6.45 2.66 8.41 8.41 0 0 1 1.65 6.91z" fill="#179bd7"/><path d="m357.77 23.56-8.37 53.26a1.7 1.7 0 0 0 1.68 2h8.41a2.84 2.84 0 0 0 2.81-2.39l8.25-52.3a1.7 1.7 0 0 0 -1.68-2h-9.42a1.73 1.73 0 0 0 -1.68 1.43z" fill="#179bd7"/><path d="m23.67 89 1.56-10h-3.48-16.59l11.53-73.15a1 1 0 0 1 .31-.57.91.91 0 0 1 .61-.23h28c9.29 0 15.7 1.94 19.05 5.75a13.26 13.26 0 0 1 3 5.72 20.86 20.86 0 0 1 0 7.88v.23 2l1.57.89a11.06 11.06 0 0 1 3.2 2.48 11.21 11.21 0 0 1 2.57 5.74 24.43 24.43 0 0 1 -.36 8.39 29.73 29.73 0 0 1 -3.44 9.49 19.6 19.6 0 0 1 -5.44 6 22.06 22.06 0 0 1 -7.33 3.31 36.7 36.7 0 0 1 -9.16 1.07h-2.18a6.54 6.54 0 0 0 -6.48 5.52l-.16.9-2.75 17.41-.13.64a.56.56 0 0 1 -.17.37.49.49 0 0 1 -.29.11z" fill="#253b80"/><path d="m70.74 24.87c-.09.53-.18 1.07-.29 1.64-3.69 18.94-16.31 25.49-32.45 25.49h-8.19a4 4 0 0 0 -3.94 3.38l-4.2 26.62-1.19 7.55a2.1 2.1 0 0 0 2.07 2.45h14.56a3.51 3.51 0 0 0 3.46-3l.14-.74 2.74-17.39.18-1a3.5 3.5 0 0 1 3.46-3h2.18c14.1 0 25.14-5.73 28.37-22.3 1.35-6.92.65-12.7-2.92-16.76a13.74 13.74 0 0 0 -3.98-2.94z" fill="#179bd7"/><path d="m66.88 23.33q-.85-.25-1.74-.45c-.6-.13-1.22-.25-1.85-.35a45.34 45.34 0 0 0 -7.24-.53h-21.92a3.35 3.35 0 0 0 -1.51.35 3.48 3.48 0 0 0 -1.95 2.65l-4.67 29.5-.14.87a4 4 0 0 1 3.95-3.37h8.19c16.12 0 28.74-6.55 32.43-25.48.11-.57.2-1.11.29-1.64a19.4 19.4 0 0 0 -3-1.28z" fill="#222d65"/><path d="m30.67 25a3.5 3.5 0 0 1 3.46-3h21.92a46.59 46.59 0 0 1 7.24.52c.63.1 1.25.22 1.85.35s1.17.29 1.74.45l.83.26a19.28 19.28 0 0 1 3 1.28c1.1-7 0-11.77-3.79-16.09-4.15-4.77-11.68-6.77-21.31-6.77h-28a4 4 0 0 0 -3.95 3.38l-11.66 73.86a2.41 2.41 0 0 0 2.4 2.76h17.27l4.33-27.5z" fill="#253b80"/></svg>