<svg viewBox="0 0 512 512" xmlns="http://www.w3.org/2000/svg"><g fill="#1565c0"><path d="m171.77 369c-8.94-.21-17.09-1-24.91-4.44-9.92-4.38-17.12-11.58-23-20.32-7.51-11.07-10.9-23.61-9.07-36.57 2.54-18 7.32-35.54 18.74-50.43 2.29-3 4.17-6.29 6.58-9.16 1.27-1.51.36-1.83-.56-2.47-11.65-8.1-21.53-18.21-31.31-28.32a46.92 46.92 0 0 1 -13.36-32 15.15 15.15 0 0 1 19.61-14.5c13.25 3.84 21.74 13.2 28.4 24.69 2.11 3.64 4.57 7.08 7.29 11.25 2-8.33 8.37-13.82 9.26-22.05 1.1-10.22 1.58-19.53-6.87-27.72-7.6-7.35-14.34-15.63-21.71-23.28-7.09-7.37-13.27-15.48-15.25-26.11-1.31-7 4.66-15.75 11.82-16.13a42.61 42.61 0 0 1 26.88 7.67c1.15.78 2.33 1.52 3.73 2.42 2.41-15.93 9.09-29.74 18.92-42 5.22-6.49 12.28-10.94 19.32-15.33 9.65-6 20.25-9.92 30.54-14.53 2.8-1.26 4.67-3.77 6.1-6.59 2.39-4.73 3.8-10 8-13.78 4.88-4.44 9.64-4.52 14.57-.07a57.67 57.67 0 0 1 12.65 16.47 13.53 13.53 0 0 0 7.76 6.65c11 4.36 22.5 7.5 33 13.21 22.45 12.21 36.25 30.58 40.38 56 .21 1.26.6 2.48.76 3.74s.13 2.55.2 4.16c4.23-1.32 7.28-4.21 10.79-6.24 6.23-3.61 12-8.09 19.3-9.61a31.1 31.1 0 0 1 10.22-.31c5 .63 8.72 6.71 7.9 12.3-1.25 8.63-6.35 15.21-11.25 22-9.5 13.17-20.31 25.46-27.12 40.48-2.74 6-4.75 12.31-7.12 18.47a3.27 3.27 0 0 0 0 2.46c1.79 4.86 3.53 9.73 5.3 14.65 1.83-.47 2-2.11 2.51-3.29 6.08-13.39 15.24-24.7 24.13-36.22 6.27-8.11 14.07-14.39 22.55-19.83a25.85 25.85 0 0 1 23.09-2.67c5.92 2 8.83 10.06 7.46 17.69-2.69 14.89-10.07 27.34-19 39.24-11.2 14.93-23.21 29.1-36.92 41.78-2.11 1.95-2.35 3.12-.05 5.24 7.21 6.65 14 13.71 19 22.3a95.65 95.65 0 0 1 11.67 35.6c1.6 12 .64 23.46-4.74 34.34s-15 17.24-24.78 23.33a57.16 57.16 0 0 1 -13.63 6c-2.24.69-3 1.42-1.77 3.82 6.43 12.81-2.67 20.22-13.87 20.08a58.78 58.78 0 0 1 -32.74-10.59c-8.41-5.74-17.61-6.42-27-5.3-5.19.61-10.42.84-15.59 1.25-20 1.57-40.08 1.29-60.14 1a7.57 7.57 0 0 0 -5.59 2.34c-9.24 8.33-19.77 13.67-32.61 13-8-.43-11.07-2.69-12.91-10.07-.86-3.45 1.48-6.37 2.59-9.46.37-1.31 1.08-2.52 1.85-4.24zm161.23-227.77a25.5 25.5 0 0 0 5.84-11.64c4.76-20.11.93-38.74-10.92-55.51-9.85-13.95-24.32-21.57-40-27.11-7-2.46-14.07-4.52-20.61-8a15.11 15.11 0 0 1 -7.4-7.87 37.33 37.33 0 0 0 -7-10.67c-5-5.62-5.58-5.78-8.3 1.41-3.88 10.25-10.83 16.45-21 20.18-10.95 4-21.59 9-30.73 16.46-17.19 14-25.34 32.59-25.89 54.42-.23 9.19 2.23 18 9.16 24.89l.59.54-.29-.87c-.32-7.53-1-15.08.88-22.52 3.05-12.16 12-18.87 22.37-24.29 21.64-11.3 44.73-15.46 68.93-13.59 19.59 1.53 36.71 8.32 49.51 24.09 9.42 11.6 16.25 24 14.42 39.67-.42.39-.62 1.09-.19 1.29.63.3.46-.51.63-.88zm-95.53 226.45c6.27 0 12.55.22 18.82 0 12.66-.54 25.29-1.41 37.92-2.69s24.44 1.31 35.24 8.9a41.19 41.19 0 0 0 26.71 7.11c3.94-.25 4.63-1.62 3.15-5.25-1.29-3.16-2.83-6.24-3.8-9.48a5 5 0 0 1 4.07-6.75c13.33-2.09 24.06-9 33.75-17.91a30.19 30.19 0 0 0 9.67-19.89c1.86-20.16-2.24-38.63-15.15-55.06a121.22 121.22 0 0 0 -25.43-24.5 16 16 0 0 1 -6.42-10.16 336.65 336.65 0 0 0 -12.8-41.92c-2.74-7.51-4.64-8.12-10.83-2.89a157.1 157.1 0 0 0 -32.62 37.68c-2.53 4.09-5.3 6-10 5.37a79.73 79.73 0 0 0 -10.22-.85c-20.55 0-41.18-1.06-61.63.45-11.8.87-19.37-2.63-26.3-11.44a73.87 73.87 0 0 0 -20.71-17.71c-4.75-2.81-6.19-2.41-8.59 2.55a90.49 90.49 0 0 0 -8.38 32c-.67 7.83-1.78 15.09-7.19 21.69-5.66 6.9-10 14.95-14.43 22.75-1.87 3.26-2.79 7.13-3.82 10.8-3.1 11-5.58 22.17-2.82 33.63 3.91 16.19 18.31 34.59 39.78 34.75 3.7 0 7.4.48 11.08.82 5.88.55 8.57 4.89 6.21 10.25-1.32 3-3 5.82-4.54 8.7-1.44 2.69-1.13 4 2.37 4.25 10.86.85 19.38-3.86 26.66-11.14 3.36-3.36 6.84-4.78 11.47-4.12 6.2.88 12.5.38 18.78.06zm-78.81-241.18c-3.31 2.68-5.61 6.16-8.45 9.1-1.78 1.85-1.19 2.9.31 4.53 4.36 4.7 8.59 9.53 12.72 14.44 2.76 3.27 5.52 6.69 6 11.13.61 6.22 1.85 12.52 0 18.7-1.13 3.87-.26 5.82 3.88 6.75 2.25.51 4.3 2.17 6.27 3.55a117.83 117.83 0 0 1 23.23 21.37 10.16 10.16 0 0 0 8.7 4.08c25.79-.19 51.61-2.11 77.38.56 1.72.18 2.51-.6 3.34-2a146 146 0 0 1 16-21.07c6.85-7.63 13.73-15.3 22.33-21.09 4.29-2.9 8.86-4.16 13.56-1.13 2.21 1.43 2.48.14 3.13-1.42 4-9.56 7.76-19.26 14.26-27.54.69-.88 1.44-1.69.33-2.95-4.1-4.66-8.1-9.41-12.43-14.48a69.14 69.14 0 0 1 -8.74 18.86c-5.4 8-12.33 14.64-20.86 18.52a87.85 87.85 0 0 1 -31 7.2c-1.22.07-2.36-.14-3.25 1.34-5.72 9.57-14 16.83-22.16 24.18-6.33 5.7-10.53 5.78-17.51.74a59.66 59.66 0 0 1 -19.66-23.79c-2-4.41-4.93-5.87-9.46-6.9-25.35-5.69-48.01-15.47-57.92-42.68zm98.06-40.14a70.6 70.6 0 0 0 -13.19.75c-17.36 2.09-33.46 7.58-48 17.39a21.18 21.18 0 0 0 -8.83 12.7c-2.08 8.2-1.31 16.38.78 24.48a16.09 16.09 0 0 0 10.8 12c7.49 2.78 14.94 5.4 22.83 6.67 15.12 2.44 30 6.68 45.58 5.61q9.58-.66 19.14-1.73c9.17-1 18.39-1.86 27-5.77 1.17-.53 2.66-.72 3.22-1.91 4.29-9.12 9.64-18.25 6-28.78-7.47-21.53-21.94-35.52-44.87-39.72a88 88 0 0 0 -20.46-1.69zm165.19 63.47a24 24 0 0 0 -12.47 5.06c-20 14.65-32.78 34.77-43.23 56.73-2.64 5.54-2.84 10.76-1.4 16.7.94 3.85 3.05 5.84 5.85 7.8 1 .67 1.39 1.15 2.66-.14 12.71-12.9 25.3-25.86 36-40.52 8.45-11.53 16.81-22.94 19-37.64.87-5.82-.63-8.09-6.41-7.99zm-310.73 29.95c-3.83-.15-7.3 3.47-6.71 6.95 1.45 8.53 4.35 16.37 10.23 23 7.41 8.35 15.87 15.55 24.11 23 1.42 1.28 3 3.57 4.74 2.87s.67-3.37 1-5.15c.16-1 .35-2 .6-2.92 1.64-6.06 1.42-11.17-3.34-16.49-5.83-6.52-9.39-14.9-15.09-21.68-4.21-4.97-9.88-7.53-15.54-9.58zm257.13-43.07c2.75-3.64 5.46-7.05 8-10.61 4.07-5.77 9.07-10.95 11.55-17.77.64-1.76 1.57-3.78.25-5.2-1.17-1.25-3.2-.55-4.84-.08-10.58 3.07-18.89 10.16-28 15.77-1.4.87-.56 1.6.09 2.37zm-238.39-35.85c-3.43-.15-5.2 2.48-4 7.38 2.18 8.89 8.79 14.72 14.45 21.21 1.38 1.58 2.17.36 3-.59 2.25-2.57 4.47-5.16 6.7-7.73 4.56-5.24 3.86-10.37-2-14.44-5.07-3.6-10.9-5.21-18.15-5.83zm105.34 71.8a49.93 49.93 0 0 0 17 20c1.12.79 2.41 1.26 3.54.24 6-5.37 12-10.69 16.87-17.41-12.67 1.79-24.82-.49-37.41-2.83z"/><path d="m427.12 438.43c-.4-12 1.1-23.57 6.08-34.62 4.64-10.32 11.92-17.9 22.46-22 7.77-3 17.52 2.49 21.89 11.5 5.11 10.51 3.51 20.84-.28 31.13-1 2.85-1.53 4.82 2 6 1 .34 2.17 1.16 1.51 2.58a2.65 2.65 0 0 1 -3.78.98c-2.64-1.37-3.41-.06-4.78 2-2 2.89-.65 4.25 1.48 5.8 1.93 1.41 5.58 2.72 3.24 5.6-2 2.46-3.95-.81-5.62-2.09-2.24-1.72-3.43-1.81-5.6.74-6.62 7.78-13.73 14.9-23.85 18.62-6.87 2.52-10.87-1.58-12.87-6.91-2.38-6.25-1.81-12.84-1.88-19.33zm9.31 1c.32 3.84.58 8.11 1.05 12.35.29 2.62 1.52 3.78 4.34 2.46 7.18-3.34 12.18-9.18 17.18-15.07.94-1.12.82-1.92-.53-2.69s-3.56-1.61-2.37-3.77 2.94-.79 4.47-.07c.83.4 1.74 1.39 2.53 0 .65-1.09 1.54-2.3 1.52-3.45 0-1.61-1.71-1-2.73-1.1-1.79-.14-3.27-.79-2.94-2.77s2-2.14 3.71-1.92a2.66 2.66 0 0 1 .82.24c3.09 1.45 4.31-.18 5-2.92.6-2.33 1.55-4.58 2-6.94 1.22-6.6.87-13-2.95-18.87-2.75-4.23-7-5.38-11.22-2.74a36.18 36.18 0 0 0 -14.67 16.83c-4.16 9.61-4.51 19.82-5.21 30.46z"/><path d="m69.37 411.06c9.22-.11 16.59 2.09 20.86 9.35 6.43 10.95 3.7 25.21-14.58 27.41-4.19.5-8.42.66-12.64.95-2.58.17-3.6.84-3 4a80.44 80.44 0 0 1 1.35 19.06 4.92 4.92 0 0 1 -5.17 5c-2.61.05-4-2-4.25-4.86a427.24 427.24 0 0 0 -6.67-45.29c-.49-2.31 0-4.82-.09-7.23a3 3 0 0 1 2.07-3c7.55-2.58 14.97-5.77 22.12-5.39zm-9 28.52c6-.68 11-1.17 15.9-1.81 3.91-.51 7.24-1.83 7.43-6.6a9.8 9.8 0 0 0 -7.22-9.81c-5.3-1.59-10.4-.45-15.51.8-5.93 1.45-5.91 1.48-4.9 7.26a41.18 41.18 0 0 1 .94 6.29c.04 3.16 1.2 4.56 3.34 3.87z"/><path d="m305.54 457.62c.55-5.72 1.09-12 1.8-18.3a4.6 4.6 0 0 1 7.78-2.69c1.83 1.7 3.14 1.55 5.12 1a10.7 10.7 0 0 1 10 2.33c1.06.87 1.8 1.44 3.29.46 9.25-6.1 21.56-1.93 25.06 12.25 1.1 4.48 0 8.71-1.32 12.82-.86 2.68-2.77 5.26-6.25 4.23s-4.14-3.89-3-7.12c1.29-3.71 1.95-7.22-.35-11-1.78-2.91-3.87-4.52-7.24-3.76s-3 3.66-3.24 6.12c-.31 2.65.42 5.34-.69 8s-2.89 4-5.88 3.74-3.24-2.78-3.6-5c-.51-3.06.34-6.17-.68-9.29-.69-2.11-1.84-3.82-3.69-4.23-2.09-.46-3 1.84-3.91 3.34-1.53 2.67-2.92 5.44-3 8.68a8.29 8.29 0 0 1 -1.06 3.62c-1.11 2-2.65 3.42-5.29 3.11-3-.36-3.42-2.56-3.77-4.83a25.37 25.37 0 0 1 -.08-3.48z"/><path d="m381.5 460.23c4.89 6.75 10.47 7.43 15.89 2.64a4.94 4.94 0 0 1 6.86-.23c2.34 1.95 1.95 4.48 0 6.79a17.76 17.76 0 0 1 -15.84 6.47c-7.71-.82-13.18-5-16.39-12.91-5.19-12.7 4.66-26.47 14.45-28.39 7.78-1.53 16.88 4.47 18.25 12.24.91 5.17-1.58 9.48-6.81 11.21a32.66 32.66 0 0 1 -7.81 1.9c-2.6.21-5.19.94-8.6.28zm.51-9.87a28.55 28.55 0 0 0 10.39-.69c1-.26 2.5-.12 2.54-1.53a3.48 3.48 0 0 0 -1.76-2.73c-3.79-2.66-8.18-.82-11.18 4.95z"/><path d="m179.73 473.78c-.48-8.86-1.49-17.11-1.93-25.42-.63-12.09 7.62-13.94 15.72-13.13s12.67 5.88 12.65 12.81c0 3.36-1.87 5.61-4.11 7.56a18.09 18.09 0 0 1 -5.83 3.41c-7.86 2.82-8.72 4.12-7 12.4.7 3.42.41 6.8.67 10.19s-2.09 5.13-4.75 5.4-4.21-2-4.51-4.59c-.39-3.06-1.48-6.05-.91-8.63zm11.91-29.19c-2.59.17-4.5.81-4.11 3.77.17 1.25-.38 3.51 1.92 2.77 2.55-.82 6.33-.92 6.78-4.06.28-1.93-2.98-1.95-4.59-2.48z"/><path d="m210.48 456.54c-.27-9.23 3.83-13.66 9.47-16.79s11.32-4 17.45.07c3.2 2.13 4.94 4.37 5.47 7.85a7.64 7.64 0 0 0 4.63 6.11c2.92 1.42 3.82 3.69 2.24 6.65-1.39 2.63-5.77 4.25-7.57 2.12-5.09-6-8.11-1.56-11.61 1.58-4.13 3.71-8.52 4-13.56 1.61a10.61 10.61 0 0 1 -6.52-9.2zm18.94-9.54c-3.56-.09-8.13 3.14-9.21 6.14a3 3 0 0 0 .89 3.44c1.07 1.08 2.21 1 3.44.12a22.27 22.27 0 0 0 6.31-6.87c1.02-1.74.96-3.07-1.43-2.83z"/><path d="m139.82 439.4c2.05-.36 3.35.73 4.57 2 3.08 3.17 6.17 6.31 9.23 9.49 1.71 1.77 2.69 1.67 3.3-.91s1.58-5.14 2.31-7.72c.82-2.94 2.3-4.82 5.72-4s4.63 2.79 3.76 6.25a137.32 137.32 0 0 1 -14.16 34.78c-1.45 2.54-2.26 5.58-4.86 7.35-1.75 1.2-3.54 2.57-5.67.55-1.9-1.8-2.94-3.56-1.39-6.3 3-5.24 5.52-10.71 8.48-16 1.25-2.22 1.31-3.45-1.3-4.48-3.13-1.24-5.18-4-7.23-6.43-1.52-1.84-2.85-3.65-5-5-2.38-1.48-2.8-4.22-2.16-6.77a3.61 3.61 0 0 1 4.4-2.81z"/><path d="m94.18 456.17c.07-10.52 13.25-17.49 20.93-13.88.9.43 1.84 1.37 2.65 1.26 6.57-1 7.29 3.35 8.06 8.21a15.88 15.88 0 0 0 4.25 8.19c2.89 3.11 2.89 6 .37 8.17-2.36 2-5.44 1.43-8.06-1.64-.54-.62-.81-1.47-1.31-2.13-1-1.35-1.68-1.9-3.55-.46-4.81 3.71-10.18 5.47-16.29 2.79-3.78-1.68-7.12-6.35-7.05-10.51zm19.92-4.52c-3.58-.85-6.37-.38-8.65 2-.79.84-1.69 1.8-1.11 3a3.06 3.06 0 0 0 3.23 1.51c3.86-.37 5.43-3.09 6.53-6.51z"/><path d="m430.84 469.31c9.65.05 15.13 6.22 15.11 17 0 9.22-6.25 14.76-16.52 14.68-9.38-.07-15.11-5.78-15.17-14.91s6.35-17.33 16.58-16.77zm5.67 16.69c0-4.11-2.4-7.24-5.49-7.29a7.31 7.31 0 0 0 -7.13 7.49c.22 3.66 2.64 5.15 6 5.27 4.11.19 6.65-1.97 6.62-5.47z"/><path d="m261.77 445.47c-.3-11.06 1.17-22 2-33 .37-4.9 2.35-7.38 5.41-7.1 3.4.3 5.1 3.16 4.51 8.25-.79 6.76-1.11 13.56-1.81 20.31-.86 8.41-.54 16.79-.68 25.18 0 2.26-.5 4.28-2.28 5.73a4.21 4.21 0 0 1 -7.05-2.71c-.95-5.54-.08-11.13-.1-16.66z"/><path d="m285.94 460.11c.16-3.66 1.85-5.23 4.79-5.22a4.5 4.5 0 0 1 4.8 4.84 5 5 0 0 1 -5 5.24c-3.53.12-3.87-2.87-4.59-4.86z"/></g><path d="m237.47 367.68c-6.28.3-12.58.82-18.82-.08-4.63-.66-8.11.76-11.47 4.12-7.28 7.28-15.8 12-26.66 11.14-3.5-.28-3.81-1.56-2.37-4.25 1.55-2.88 3.22-5.71 4.54-8.7 2.36-5.36-.33-9.7-6.21-10.25-3.68-.34-7.38-.79-11.08-.82-21.47-.16-35.87-18.56-39.78-34.75-2.76-11.46-.28-22.61 2.82-33.63 1-3.67 1.95-7.54 3.82-10.8 4.46-7.8 8.77-15.85 14.43-22.75 5.41-6.6 6.52-13.86 7.19-21.69a90.49 90.49 0 0 1 8.38-32c2.4-5 3.84-5.36 8.59-2.55a73.87 73.87 0 0 1 20.71 17.71c6.93 8.81 14.5 12.31 26.3 11.44 20.45-1.51 41.08-.5 61.63-.45a79.73 79.73 0 0 1 10.22.85c4.71.62 7.48-1.28 10-5.37a157.1 157.1 0 0 1 32.62-37.68c6.19-5.23 8.09-4.62 10.83 2.89a336.65 336.65 0 0 1 12.84 41.94 16 16 0 0 0 6.46 10.14 121.22 121.22 0 0 1 25.43 24.5c12.91 16.43 17 34.9 15.15 55.06a30.19 30.19 0 0 1 -9.68 19.91c-9.69 8.93-20.42 15.82-33.75 17.91a5 5 0 0 0 -4.07 6.75c1 3.24 2.51 6.32 3.8 9.48 1.48 3.63.79 5-3.15 5.25a41.19 41.19 0 0 1 -26.71-7.17c-10.8-7.59-22.72-10.17-35.24-8.9s-25.26 2.15-37.92 2.69c-6.32.28-12.58.06-18.85.06zm151.13-65.45c.35-4.65-.57-9.69-1.85-14.65-4.31-16.59-15.6-26.52-30.49-25.92-14.54.59-25.73 7.45-32.92 20.26-3.27 5.83-4.86 12.12-3.69 18.87 2.89 16.72 13 26.74 29.13 30.85 19.67 5.03 40.89-3.98 39.82-29.41zm-152.18 19.86c.37 5.37 1 10.72 4.34 15.31a12 12 0 0 0 16.29 3.27c4.51-2.65 6.82-6.87 8.05-11.63a121 121 0 0 0 3.45-28.3 6.77 6.77 0 0 1 2.6-5.77 12.81 12.81 0 0 0 3.54-15.8c-1.37-2.74-3.42-4.4-6.52-3.22-2.92 1.11-3.46 3.58-2.52 6.37.81 2.39.92 4.73-1.65 5.88a5.5 5.5 0 0 1 -7.18-2c-1.24-1.85-1.88-4.11-2.78-6.19a4.66 4.66 0 0 0 -4.21-3.14 4.6 4.6 0 0 0 -4.52 2.68c-.83 1.64-1.47 3.37-2.22 5.06-1.12 2.53-2.61 4.72-5.29 5.86-3.32 1.41-5.78.07-6-3.48a12.1 12.1 0 0 1 4.44-10.56c2.42-2 3.56-4.32 1.59-7-2.12-2.92-5-2.4-7.55-.57-4.7 3.32-7.08 8.21-7.83 13.69-1.49 11 1.87 15.61 12.82 18 2.28.49 1.7 2 1.69 3.21.04 6.01.25 12.15-.54 18.33zm-49.18-17.09c-.4-6.69-1.92-14.94-7.14-21.9-6.94-9.26-17.52-14.73-29.88-8a37.75 37.75 0 0 0 -18.22 21.27c-5.26 15.31 1.55 34.84 22.59 37.1 15.01 1.62 32.69-5.63 32.65-28.47zm117.41-47.93a43.63 43.63 0 0 0 -.64-7.62 6.61 6.61 0 0 0 -5.16-5.55c-3.06-.81-5.85 0-7.56 2.63-6.2 9.42-7.87 19.93-6.55 30.94.42 3.5 3 5.48 6.53 5.68a11.09 11.09 0 0 0 10.66-7.6 69.48 69.48 0 0 0 2.72-18.48zm-100.22 9.69v3c.21 5.79 2.37 9.45 6 10.18 4.06.82 7.42-1.52 9.75-7.16a58.07 58.07 0 0 0 4.82-24.9c-.14-3.39-1.29-6.2-4.68-7.39s-5.65.68-7.72 3.12a34.27 34.27 0 0 0 -8.17 23.15z" fill="#fdfdfe"/><path d="m158.66 126.5c9.91 27.21 32.57 37 58 42.73 4.53 1 7.44 2.49 9.46 6.9a59.66 59.66 0 0 0 19.66 23.79c7 5 11.18 5 17.51-.74 8.15-7.35 16.44-14.61 22.16-24.18.89-1.48 2-1.27 3.25-1.34a87.85 87.85 0 0 0 31-7.2c8.53-3.88 15.46-10.55 20.86-18.52a69.14 69.14 0 0 0 8.74-18.86c4.33 5.07 8.33 9.82 12.43 14.48 1.11 1.26.36 2.07-.33 2.95-6.5 8.28-10.25 18-14.26 27.54-.65 1.56-.92 2.85-3.13 1.42-4.7-3-9.27-1.77-13.56 1.13-8.6 5.79-15.48 13.46-22.33 21.09a146 146 0 0 0 -16 21.07c-.83 1.35-1.62 2.13-3.34 2-25.77-2.67-51.59-.75-77.38-.56a10.16 10.16 0 0 1 -8.7-4.08 117.83 117.83 0 0 0 -23.23-21.37c-2-1.38-4-3-6.27-3.55-4.14-.93-5-2.88-3.88-6.75 1.81-6.18.57-12.48 0-18.7-.44-4.44-3.2-7.86-6-11.13-4.13-4.91-8.36-9.74-12.72-14.44-1.5-1.63-2.09-2.68-.31-4.53 2.76-2.99 5.06-6.47 8.37-9.15z" fill="#2196f3"/><path d="m256.72 86.36a88 88 0 0 1 20.41 1.69c22.93 4.2 37.4 18.19 44.87 39.72 3.65 10.53-1.7 19.66-6 28.78-.56 1.19-2.05 1.38-3.22 1.91-8.57 3.91-17.79 4.74-27 5.77q-9.54 1.07-19.14 1.73c-15.54 1.07-30.46-3.17-45.58-5.61-7.89-1.27-15.34-3.89-22.83-6.67a16.09 16.09 0 0 1 -10.8-12c-2.09-8.1-2.86-16.28-.78-24.48a21.18 21.18 0 0 1 8.83-12.7c14.54-9.81 30.64-15.3 48-17.39a70.6 70.6 0 0 1 13.24-.75zm-6.72 76.16c9.69-.05 16.53-5.21 20-15.54.82-2.46 1.74-3.37 4.38-3.39a29 29 0 0 0 13.49-3.46c6.26-3.31 9.76-8.54 10.13-15.71.17-3.32-1.2-5.83-4.6-6s-5 2.1-5.05 5.51c0 4-2.39 6.46-5.85 8.11a27.36 27.36 0 0 1 -8.68 2.05 16.87 16.87 0 0 1 -17.49-10.32c-.84-2.19-2.3-3.71-4.69-3.74a4.71 4.71 0 0 0 -4.88 4c-1 5-4.5 6.94-8.81 8.1a58 58 0 0 1 -5.84 1.16c-6.64 1-10.93-2.37-11.47-9.09-.26-3.26-1.65-5.69-5.14-5.57s-4.7 2.81-4.8 6c-.25 7.55 4.81 15.53 12.23 17.08 5.29 1.11 7.21 2.79 7.88 8.41.96 8.19 8.56 12.47 19.19 12.4zm19.34-50.31a36.46 36.46 0 0 0 1.43 11.89c1 2.89 2.76 5 6.06 5.16s5-1.83 6.42-4.59c3.47-6.91 2.79-14.09 1.23-21.16a7.37 7.37 0 0 0 -7.66-6.18c-4.19.09-5.62 3-6.59 6.58-.81 2.94-.66 5.9-.91 8.3zm-29.73-3.63c-.31-2.41.43-5.74-1-8.88a7.17 7.17 0 0 0 -6.69-4.52c-3-.05-5.71 1.35-6.64 4.42-2.34 7.75-1.66 15.48 1.06 23a5.91 5.91 0 0 0 6 4c3-.08 4.44-2 5.46-4.58 1.64-4.13 1.98-8.33 1.79-13.44z" fill="#fdfdfe"/><path d="m176.09 137.77c-6.92-6.87-9.38-15.7-9.15-24.89.55-21.83 8.7-40.43 25.89-54.42 9.17-7.46 19.78-12.46 30.73-16.46 10.19-3.73 17.14-9.93 21-20.18 2.72-7.19 3.27-7 8.3-1.41a37.33 37.33 0 0 1 7 10.67 15.11 15.11 0 0 0 7.4 7.87c6.54 3.5 13.65 5.56 20.61 8 15.69 5.54 30.16 13.16 40 27.11 11.85 16.77 15.68 35.4 10.92 55.51a25.5 25.5 0 0 1 -5.79 11.66c-.15-.15-.31-.29-.47-.43 1.83-15.64-5-28.07-14.42-39.67-12.82-15.77-29.94-22.56-49.53-24.13-24.2-1.87-47.29 2.29-68.93 13.59-10.37 5.42-19.32 12.13-22.37 24.29-1.87 7.44-1.2 15-.88 22.52zm69.91-63.39a41.44 41.44 0 0 0 14.19-1.83c6-1.77 11.11-5.14 11.61-11.65.48-6.27-3.94-10.37-9.32-13.12-12.93-6.62-25.39-4.05-34.27 7-5.66 7.05-2.21 16.74 6.64 18.61a41.76 41.76 0 0 0 11.15.99z" fill="#2196f3"/><path d="m421.91 149.82c5.78-.09 7.28 2.15 6.42 8-2.16 14.7-10.52 26.11-19 37.64-10.74 14.66-23.33 27.62-36 40.52-1.27 1.29-1.7.81-2.66.14-2.8-2-4.91-4-5.85-7.8-1.44-5.94-1.24-11.16 1.4-16.7 10.45-22 23.22-42.08 43.23-56.73a24.1 24.1 0 0 1 12.46-5.07z" fill="#fff"/><path d="m111.18 179.78c5.66 2.05 11.33 4.61 15.51 9.59 5.7 6.78 9.26 15.16 15.09 21.68 4.76 5.32 5 10.43 3.34 16.49-.25 1-.44 1.94-.6 2.92-.3 1.78.68 4.48-1 5.15s-3.32-1.59-4.74-2.87c-8.24-7.45-16.7-14.65-24.11-23-5.88-6.64-8.78-14.48-10.23-23-.56-3.49 2.91-7.11 6.74-6.96z" fill="#fff"/><path d="m368.31 136.71-13-15.52c-.65-.77-1.49-1.5-.09-2.37 9.15-5.61 17.46-12.7 28-15.77 1.64-.47 3.67-1.17 4.84.08 1.32 1.42.39 3.44-.25 5.2-2.48 6.82-7.48 12-11.55 17.77-2.49 3.56-5.2 6.97-7.95 10.61z" fill="#fdfdfe"/><path d="m129.92 100.86c7.25.62 13.06 2.23 18.19 5.83 5.82 4.07 6.52 9.2 2 14.44-2.23 2.57-4.45 5.16-6.7 7.73-.83.95-1.62 2.17-3 .59-5.66-6.49-12.27-12.32-14.45-21.21-1.24-4.9.53-7.53 3.96-7.38z" fill="#fdfdfe"/><path d="m235.26 172.66c12.59 2.36 24.74 4.62 37.39 2.84-4.87 6.72-10.9 12-16.87 17.41-1.13 1-2.42.55-3.54-.24a49.93 49.93 0 0 1 -16.98-20.01z" fill="#fdfdfe"/><path d="m333 141.23c-.15.37 0 1.18-.66.86-.43-.2-.23-.9.19-1.29.14.14.3.28.47.43z" fill="#fdfdfe"/><path d="m176.4 137.44.29.87-.6-.54z" fill="#fdfdfe"/><path d="m436.43 439.46c.7-10.64 1.05-20.85 5.21-30.49a36.18 36.18 0 0 1 14.63-16.76c4.25-2.64 8.47-1.49 11.22 2.74 3.82 5.89 4.17 12.27 2.95 18.87-.43 2.36-1.38 4.61-2 6.94-.7 2.74-1.92 4.37-5 2.92a2.66 2.66 0 0 0 -.82-.24c-1.68-.22-3.39 0-3.71 1.92s1.15 2.63 2.94 2.77c1 .09 2.7-.51 2.73 1.1 0 1.15-.87 2.36-1.52 3.45-.79 1.35-1.7.36-2.53 0-1.53-.72-3.3-2-4.47.07s1 3 2.37 3.77 1.47 1.57.53 2.69c-5 5.89-9.94 11.73-17.15 15.1-2.82 1.32-4.05.16-4.34-2.46-.47-4.28-.72-8.55-1.04-12.39z" fill="#fdfdfe"/><path d="m436.51 486c0 3.46-2.48 5.62-6.63 5.47-3.35-.12-5.77-1.61-6-5.27a7.31 7.31 0 0 1 7.13-7.49c3.1.09 5.46 3.22 5.5 7.29z" fill="#fdfdfe"/><path d="m388.6 302.23c1.07 25.43-20.15 34.44-39.82 29.41-16.11-4.11-26.24-14.13-29.13-30.85-1.17-6.75.42-13 3.69-18.87 7.19-12.81 18.38-19.67 32.92-20.26 14.89-.6 26.18 9.33 30.49 25.92 1.25 4.96 2.25 10 1.85 14.65zm-9.43.33c-.26-7.31-1.65-14.34-5.19-20.85-4.1-7.52-10.36-10.94-18.93-10.47-2.52.14-4.59 1.37-6.91 2-14.7 3.73-23 19.83-17 33.05 4.7 10.45 13.26 15.56 24.39 16.67 15.33 1.5 24.03-5.62 23.64-20.4z" fill="#f8bbd0"/><path d="m236.42 322.09c.79-6.18.54-12.32.58-18.44 0-1.23.59-2.72-1.69-3.21-10.95-2.35-14.31-7-12.82-18 .75-5.48 3.13-10.37 7.83-13.69 2.57-1.83 5.43-2.35 7.55.57 2 2.71.83 5.06-1.59 7a12.1 12.1 0 0 0 -4.44 10.68c.18 3.55 2.64 4.89 6 3.48 2.68-1.14 4.17-3.33 5.29-5.86.75-1.69 1.39-3.42 2.22-5.06a4.6 4.6 0 0 1 4.52-2.68 4.66 4.66 0 0 1 4.13 3.12c.9 2.08 1.54 4.34 2.78 6.19a5.5 5.5 0 0 0 7.18 2c2.57-1.15 2.46-3.49 1.65-5.88-.94-2.79-.4-5.26 2.52-6.37 3.1-1.18 5.15.48 6.52 3.22a12.81 12.81 0 0 1 -3.54 15.8 6.77 6.77 0 0 0 -2.6 5.77 121 121 0 0 1 -3.41 28.27c-1.23 4.76-3.54 9-8.05 11.63a12 12 0 0 1 -16.29-3.27c-3.33-4.55-3.97-9.9-4.34-15.27zm10.1-5c0 3.12-.36 6.31.12 9.36.39 2.5.73 6.13 4 6.28 3 .13 4.22-3.09 5-5.66 1.81-6.29 2-12.85 3-19.29.86-5.9 1-10.82-6.16-12.48-1.24-.29-1.76-2.79-3.43-1.48s-3.12 2.59-2.58 5c1.29 6.09-.36 12.18.05 18.28z" fill="#1565c0"/><path d="m187.24 305c0 22.84-17.64 30.09-32.66 28.47-21-2.26-27.85-21.79-22.59-37.1a37.75 37.75 0 0 1 18.23-21.24c12.36-6.76 22.94-1.29 29.88 8 5.22 6.93 6.74 15.18 7.14 21.87zm-28.67 18.81c9.49-.15 16.41-3.76 18-10.69 2.29-10 .58-19.54-6.88-27.19-2.63-2.7-5.78-4.5-10.21-3.51-9.87 2.2-15.42 8.84-18.41 17.68-4.42 13.07 3.83 23.9 17.5 23.71z" fill="#f8bbd0"/><path d="m304.65 257.07a69.48 69.48 0 0 1 -2.72 18.48 11.09 11.09 0 0 1 -10.66 7.6c-3.5-.2-6.11-2.18-6.53-5.68-1.32-11 .35-21.52 6.55-30.94 1.71-2.61 4.5-3.44 7.56-2.63a6.61 6.61 0 0 1 5.16 5.55 43.63 43.63 0 0 1 .64 7.62z" fill="#1565c0"/><path d="m204.43 266.76a34.27 34.27 0 0 1 8.15-23.15c2.07-2.44 4.37-4.29 7.72-3.12s4.54 4 4.68 7.39a58.07 58.07 0 0 1 -4.81 24.89c-2.33 5.64-5.69 8-9.75 7.16-3.62-.73-5.78-4.39-6-10.18-.02-1 .01-1.99.01-2.99z" fill="#1565c0"/><path d="m250 162.52c-10.61.07-18.21-4.21-19.2-12.46-.67-5.62-2.59-7.3-7.88-8.41-7.42-1.55-12.48-9.53-12.23-17.08.1-3.15 1.28-5.84 4.8-6s4.88 2.31 5.14 5.57c.54 6.72 4.83 10.12 11.47 9.09a58 58 0 0 0 5.84-1.16c4.31-1.16 7.83-3.12 8.81-8.1a4.71 4.71 0 0 1 4.88-4c2.39 0 3.85 1.55 4.69 3.74a16.87 16.87 0 0 0 17.49 10.32 27.36 27.36 0 0 0 8.68-2.05c3.46-1.65 5.81-4.06 5.85-8.11 0-3.41 1.59-5.72 5.05-5.51s4.77 2.72 4.6 6c-.37 7.17-3.87 12.4-10.13 15.71a29 29 0 0 1 -13.49 3.46c-2.64 0-3.56.93-4.38 3.39-3.48 10.39-10.32 15.55-19.99 15.6zm-10.45-18.06c0 3.75.81 5.86 3.06 6.85 6.06 2.67 14.28 2.87 17.74-5.93 1-2.56.71-3.63-1.8-5.29-4.68-3.08-8.82-4.88-13.46-.25a4.75 4.75 0 0 1 -2.74 1.09c-2.44.27-3.17 1.59-2.82 3.53z" fill="#1565c0"/><path d="m269.32 112.21c.25-2.4.1-5.36.89-8.3 1-3.59 2.4-6.49 6.59-6.58a7.37 7.37 0 0 1 7.66 6.18c1.56 7.07 2.24 14.25-1.23 21.16-1.39 2.76-3.06 4.78-6.42 4.59s-5.1-2.27-6.06-5.16a36.46 36.46 0 0 1 -1.43-11.89z" fill="#1565c0"/><path d="m239.59 108.58c.19 5.11-.15 9.31-1.76 13.38-1 2.58-2.43 4.5-5.46 4.58a5.91 5.91 0 0 1 -6-4c-2.72-7.51-3.4-15.24-1.06-23 .93-3.07 3.61-4.47 6.64-4.42a7.17 7.17 0 0 1 6.69 4.52c1.36 3.2.64 6.53.95 8.94z" fill="#1565c0"/><path d="m246 74.38a41.76 41.76 0 0 1 -11.15-1c-8.85-1.87-12.3-11.56-6.64-18.61 8.88-11.06 21.34-13.63 34.27-7 5.38 2.75 9.8 6.85 9.32 13.12-.5 6.51-5.63 9.88-11.61 11.65a41.44 41.44 0 0 1 -14.19 1.84zm-.49-9.49a34.58 34.58 0 0 0 12-1.69c1.72-.51 4-.9 4.12-3.09s-2-2.92-3.62-3.76c-8.2-4.24-16.68-2.55-22 4.37-1.4 1.79-.73 2.94 1.33 3.29 2.78.47 5.55 1.29 8.17.88z" fill="#1565c0"/><path d="m379.17 302.56c.39 14.78-8.31 21.9-23.65 20.36-11.13-1.11-19.69-6.22-24.39-16.67-5.95-13.22 2.31-29.32 17-33.05 2.32-.59 4.39-1.82 6.91-2 8.57-.47 14.83 2.95 18.93 10.47 3.55 6.55 4.94 13.58 5.2 20.89z" fill="#f8bbd0"/><path d="m246.52 317.1c-.41-6.1 1.24-12.19-.14-18.29-.54-2.39 1.06-3.8 2.58-5s2.19 1.19 3.43 1.48c7.18 1.66 7 6.58 6.16 12.48-.93 6.44-1.14 13-3 19.29-.75 2.57-1.93 5.79-5 5.66-3.26-.15-3.6-3.78-4-6.28-.39-3.03-.03-6.22-.03-9.34z" fill="#ffcdd2"/><path d="m158.57 323.81c-13.67.2-21.92-10.64-17.5-23.71 3-8.84 8.54-15.48 18.41-17.68 4.43-1 7.58.81 10.21 3.51 7.46 7.65 9.17 17.17 6.88 27.19-1.57 6.93-8.51 10.54-18 10.69z" fill="#f8bbd0"/><path d="m239.53 144.46c-.35-1.94.38-3.26 2.8-3.53a4.75 4.75 0 0 0 2.74-1.09c4.64-4.63 8.78-2.83 13.46.25 2.51 1.66 2.81 2.73 1.8 5.29-3.46 8.8-11.68 8.6-17.74 5.93-2.25-.99-3.03-3.1-3.06-6.85z" fill="#ffcdd2"/><path d="m245.51 64.89c-2.62.41-5.39-.41-8.18-.88-2.06-.35-2.73-1.5-1.33-3.29 5.36-6.92 13.84-8.61 22-4.37 1.63.84 3.72 1.69 3.62 3.76s-2.4 2.58-4.12 3.09a34.58 34.58 0 0 1 -11.99 1.69z" fill="#fff176"/><path d="m0 0h512v512h-512z" fill="none"/></svg>