<?xml version="1.0" encoding="utf-8"?><svg xmlns="http://www.w3.org/2000/svg" xmlns:xlink="http://www.w3.org/1999/xlink"><symbol viewBox="0 0 512 512" id="download" xmlns="http://www.w3.org/2000/svg"><path d="M256 406a33.11 33.11 0 0 0 23.49-9.73L434 241.73a33.22 33.22 0 0 0 0-47 33.23 33.23 0 0 0-47 0l-99.38 99.39V57.67A31.67 31.67 0 0 0 256 26a31.67 31.67 0 0 0-31.67 31.67v236.46L125 194.74a33.23 33.23 0 0 0-47 0 33.22 33.22 0 0 0 0 47l154.51 154.53A33.11 33.11 0 0 0 256 406z"/><rect height="60" rx="30" width="400" x="56" y="426"/></symbol><symbol viewBox="0 0 512 512" id="github" xmlns="http://www.w3.org/2000/svg"><path d="M256 41.45c-121.55 0-220 98.5-220 220a220 220 0 0 0 150.42 208.72c11 2.07 15-4.73 15-10.58 0-5.22-.19-19.06-.28-37.4-61.19 13.28-74.1-29.51-74.1-29.51-10-25.39-24.48-32.18-24.48-32.18-19.92-13.64 1.55-13.36 1.55-13.36 22.09 1.54 33.69 22.66 33.69 22.66 19.62 33.64 51.5 23.92 64.08 18.29 2-14.22 7.64-23.92 13.93-29.42C167 353.17 115.64 334.25 115.64 250c0-24 8.53-43.63 22.64-59-2.47-5.56-9.9-27.92 1.93-58.23 0 0 18.42-5.9 60.5 22.55a207.55 207.55 0 0 1 110 0c41.8-28.45 60.22-22.55 60.22-22.55 11.83 30.31 4.4 52.67 2.2 58.23 14 15.4 22.55 35 22.55 59 0 84.52-51.42 103.13-100.37 108.54 7.7 6.6 14.85 20.09 14.85 40.7 0 29.44-.28 53.09-.28 60.24 0 5.77 3.85 12.65 15.13 10.45A219.24 219.24 0 0 0 476 261.45c0-121.5-98.51-220-220-220"/></symbol><symbol viewBox="0 0 512 512" id="twitter" xmlns="http://www.w3.org/2000/svg"><path d="M478.62 117.61A186.27 186.27 0 0 1 426 132.05a92.38 92.38 0 0 0 40.3-50.72 189.33 189.33 0 0 1-58.24 22 91.61 91.61 0 0 0-158.51 62.54 93.65 93.65 0 0 0 2.36 20.94C175.74 183.26 108.23 146.69 63 91.39a89.82 89.82 0 0 0-12.4 46.09 91.65 91.65 0 0 0 40.75 76.29A91.28 91.28 0 0 1 49.9 202.3v1.13a91.68 91.68 0 0 0 73.49 89.9 92.44 92.44 0 0 1-41.2 1.59 91.93 91.93 0 0 0 85.75 63.63 183.77 183.77 0 0 1-113.65 39.21 194.39 194.39 0 0 1-21.79-1.25 260.67 260.67 0 0 0 140.74 41.14C341.87 437.65 434 298 434 177.17c0-3.89 0-7.82-.28-11.73A185 185 0 0 0 479.5 118z"/></symbol></svg>