<?xml version="1.0" encoding="utf-8"?><svg xmlns="http://www.w3.org/2000/svg" xmlns:xlink="http://www.w3.org/1999/xlink"><symbol viewBox="0 0 512 512" id="angle-down" xmlns="http://www.w3.org/2000/svg"><path d="M256 390.51a34.93 34.93 0 0 1-24.77-10.26l-135-135a35 35 0 0 1 49.53-49.53L256 306l110.21-110.25a35 35 0 1 1 49.53 49.53l-135 135A34.93 34.93 0 0 1 256 390.51z"/></symbol><symbol viewBox="0 0 512 512" id="book" xmlns="http://www.w3.org/2000/svg"><path d="M173.23 176.05a7.7 7.7 0 0 0-7.7 7.7V378a7.7 7.7 0 0 0 15.4 0V183.75a7.7 7.7 0 0 0-7.7-7.7z"/><path d="M385.45 127.34h-1.62V83.7a7.7 7.7 0 0 0-7.7-7.7h-220.2c-22.11 0-37 13.23-37.08 33v296.6a30.44 30.44 0 0 0 30.41 30.4h236.19a7.7 7.7 0 0 0 7.7-7.7V135a7.7 7.7 0 0 0-7.7-7.66zM155.93 91.4h212.5v35.93h-69c-4.17-9.2-12.14-14-23.17-14h-74.81a7.38 7.38 0 0 0-7.7 7.33 7.61 7.61 0 0 0 4 6.64h-41.82c-9.89 0-21.68-3.15-21.68-18.14 0-11.16 8.1-17.76 21.68-17.76zm67.7 36.94h52.61c5.75 0 11.08 1.82 11.08 15v101.8l-21.51-19a15.16 15.16 0 0 0-19.78 0l-21.51 19V142.48s.31-9.61-.89-14.14zM377.75 420.6H149.26a15 15 0 0 1-15-15v-268c5.83 3.31 13.16 5.1 21.68 5.1h53.21V255.78c0 8.92 6.62 11.13 9.86 11.13a11.61 11.61 0 0 0 7.72-3.19l28.92-26 29.5 26a11.61 11.61 0 0 0 7.72 3.19c4.9 0 9.87-3.82 9.87-11.13V144.15c0-.51-.09-.94-.09-1.43h75.12z"/></symbol><symbol viewBox="0 0 512 512" id="coffee" xmlns="http://www.w3.org/2000/svg"><path d="M191.83 157.16c3.07 2.87 8.18 2.52 11.46-1.08s2.4-8.21-1-11c-3.23-2.6-12.85-12.13-1.14-25.42 9.4-10.61 20.3-26.67 6.68-43.73a8.45 8.45 0 0 0-11.48-1.49 7.58 7.58 0 0 0-1.55 11c3.67 4.58 6.2 10.24-6.17 24.2-7.09 7.98-18.86 26.89 3.2 47.52zM287.38 157.16c3.07 2.87 8.18 2.52 11.45-1.08s2.41-8.21-1-11c-3.23-2.6-12.85-12.13-1.13-25.42C306.07 109.07 317 93 303.35 76a8.46 8.46 0 0 0-11.49-1.49 7.58 7.58 0 0 0-1.55 11c3.66 4.58 6.21 10.24-6.16 24.2-7.06 7.91-18.83 26.82 3.23 47.45zM239.35 157.16c3.07 2.87 8.17 2.52 11.45-1.08s2.4-8.21-1-11c-3.22-2.6-12.85-12.13-1.12-25.42C258 109.07 268.94 93 255.31 76a8.46 8.46 0 0 0-11.49-1.49 7.59 7.59 0 0 0-1.55 11c3.66 4.58 6.21 10.24-6.16 24.2-7.06 7.91-18.82 26.82 3.24 47.45zM389 265.89c0-12.34-11.73-20.21-20.21-19.34v38.69c9.41.07 20.21-6.73 20.21-19.35zM157.5 222.54a7.78 7.78 0 0 0-7.78 7.78v97.48a7.79 7.79 0 1 0 15.57 0v-97.48a7.78 7.78 0 0 0-7.79-7.78z"/><path d="M379.45 329.86a65.47 65.47 0 0 0 1.44-127.62v-5.88a19.41 19.41 0 0 0-19.19-19.1H122.36a19.06 19.06 0 0 0-19 19.1v118.93a74.12 74.12 0 0 0 27.79 57.84H97.72c-8.31 0-16.72 6.6-16.72 19 0 25.91 25.86 47 57.65 47H353c31.81 0 57.67-21.08 57.67-47 0-12.8-8.5-19-16.75-19H353.1a74.28 74.28 0 0 0 26.35-43.27zm14.43 59.65c2.57 18.25-17.66 33.25-40.92 33.25H138.65c-23.52 0-43.88-15.25-40.93-33.25zm-87.2-16.35H177.62a58 58 0 0 1-57.85-57.87V196.36a2.8 2.8 0 0 1 2.59-2.72H361.7a3 3 0 0 1 2.8 2.72v20.49c18.9-1.6 50.12 14.67 50.12 49 0 37.27-36.55 51.15-50.12 49 0 32.28-26.01 58.31-57.82 58.31z"/></symbol><symbol viewBox="0 0 512 512" id="dot" xmlns="http://www.w3.org/2000/svg"><circle cx="256" cy="256" r="80"/></symbol><symbol viewBox="0 0 512 512" id="download" xmlns="http://www.w3.org/2000/svg"><path d="M256 383.5a28.18 28.18 0 0 0 20-8.27l131.33-131.36a28.24 28.24 0 0 0 0-39.94 28.26 28.26 0 0 0-39.94 0l-84.47 84.48v-201A26.92 26.92 0 0 0 256 60.5a26.92 26.92 0 0 0-26.92 26.92v201l-84.47-84.48a28.26 28.26 0 0 0-39.94 0 28.24 28.24 0 0 0 0 39.94L236 375.23a28.18 28.18 0 0 0 20 8.27z"/><rect height="51" rx="25.5" width="340" x="86" y="400.5"/></symbol><symbol viewBox="0 0 512 512" id="external-link" xmlns="http://www.w3.org/2000/svg"><path d="M392 251a25 25 0 0 0-25 25v131H105V145h147a25 25 0 0 0 0-50H80a25 25 0 0 0-25 25v312a25 25 0 0 0 25 25h312a25 25 0 0 0 25-25V276a25 25 0 0 0-25-25z"/><path d="M457 79.83v-1.06c0-.35 0-.43-.05-.64s0-.39 0-.58l-.09-.77-.06-.43c0-.28-.09-.55-.14-.82l-.06-.38-.18-.82-.09-.37c-.06-.26-.14-.52-.21-.78l-.11-.41-.24-.71-.15-.46-.24-.64-.21-.52c-.07-.19-.16-.37-.24-.55s-.17-.4-.26-.59-.16-.31-.23-.47l-.33-.64-.23-.4c-.12-.22-.25-.44-.38-.66s-.15-.25-.23-.37l-.42-.67-.25-.35-.45-.64-.31-.39-.44-.57-.43-.49c-.12-.14-.24-.29-.37-.43a24.08 24.08 0 0 0-1.75-1.75l-.42-.37c-.17-.14-.33-.29-.51-.43l-.55-.44-.4-.31-.63-.44c-.12-.09-.24-.18-.37-.26l-.66-.42c-.12-.08-.24-.16-.37-.23s-.43-.26-.66-.38l-.48-.19-.63-.32-.47-.24-.58-.26c-.19-.08-.37-.17-.56-.24l-.51-.21-.65-.24-.4-.19-.73-.24-.39-.11-.79-.21-.37-.09-.82-.18-.38-.06-.82-.14-.44-.06-.76-.09H334a25 25 0 0 0 0 50h37.64l-153.32 153.2a25 25 0 0 0 35.36 35.36L407 140.36V178a25 25 0 0 0 50 0z"/></symbol><symbol viewBox="0 0 512 512" id="github" xmlns="http://www.w3.org/2000/svg"><path d="M256 41.45c-121.55 0-220 98.5-220 220a220 220 0 0 0 150.42 208.72c11 2.07 15-4.73 15-10.58 0-5.22-.19-19.06-.28-37.4-61.19 13.28-74.1-29.51-74.1-29.51-10-25.39-24.48-32.18-24.48-32.18-19.92-13.64 1.55-13.36 1.55-13.36 22.09 1.54 33.69 22.66 33.69 22.66 19.62 33.64 51.5 23.92 64.08 18.29 2-14.22 7.64-23.92 13.93-29.42C167 353.17 115.64 334.25 115.64 250c0-24 8.53-43.63 22.64-59-2.47-5.56-9.9-27.92 1.93-58.23 0 0 18.42-5.9 60.5 22.55a207.55 207.55 0 0 1 110 0c41.8-28.45 60.22-22.55 60.22-22.55 11.83 30.31 4.4 52.67 2.2 58.23 14 15.4 22.55 35 22.55 59 0 84.52-51.42 103.13-100.37 108.54 7.7 6.6 14.85 20.09 14.85 40.7 0 29.44-.28 53.09-.28 60.24 0 5.77 3.85 12.65 15.13 10.45A219.24 219.24 0 0 0 476 261.45c0-121.5-98.51-220-220-220"/></symbol><symbol viewBox="0 0 512 512" id="ie" xmlns="http://www.w3.org/2000/svg"><path d="M476 266.12a196.79 196.79 0 0 0-24.76-95.85c67.22-152.13-72-129.85-79.78-128.33a354.46 354.46 0 0 0-82 26.78c-3.71-.2-7.44-.32-11.21-.32-93.95 0-172.6 65.53-192.73 153.38 49.52-55.55 84.18-78 104.93-86.94q-5 4.44-9.74 9c-1.06 1-2.09 2-3.13 3-2.11 2-4.21 4-6.26 6.09-1.22 1.21-2.4 2.44-3.6 3.66-1.82 1.85-3.64 3.7-5.41 5.57-1.26 1.32-2.49 2.64-3.73 4-1.66 1.77-3.31 3.55-4.92 5.33q-1.89 2.08-3.73 4.17-2.3 2.58-4.55 5.18a470.08 470.08 0 0 0-3.69 4.3c-1.42 1.68-2.83 3.36-4.21 5-1.23 1.49-2.46 3-3.66 4.45s-2.57 3.21-3.84 4.81-2.46 3.09-3.66 4.64-2.25 2.94-3.37 4.41c-1.26 1.66-2.54 3.32-3.77 5-.88 1.18-1.72 2.35-2.58 3.53-7.82 10.66-15 21.11-21.4 31.15v.08c-1.7 2.64-3.33 5.25-4.94 7.83-.09.14-.18.28-.26.42-1.61 2.6-3.16 5.14-4.67 7.67-.06.08-.11.17-.17.26-4.06 6.79-7.83 13.33-11.23 19.49-17.84 32.25-26.51 54.8-26.88 56.12-56.24 201 119.27 116.14 143.76 103.47a197.84 197.84 0 0 0 273.81-111.14H360.73c-15.37 26-45 43.56-79 43.56-49.81 0-90.19-37.74-90.19-84.3h282.8a200.07 200.07 0 0 0 1.66-25.47zM439.06 71.55c17 11.5 30.68 29.54 7.23 90.32a198.46 198.46 0 0 0-96.56-80.15c18.27-8.84 63.61-27.53 89.33-10.17zM77.21 443.08c-13.87-14.22-16.32-48.86 14.28-112a198.28 198.28 0 0 0 86.09 105.22c-19.81 10.9-72.4 35.45-100.37 6.76zm113.91-205.57c1.58-45.25 41-81.48 89.35-81.48s87.77 36.23 89.35 81.48z"/></symbol><symbol viewBox="0 0 512 512" id="lunch" xmlns="http://www.w3.org/2000/svg"><path d="M134.2 301a8 8 0 0 0-1.4 11.19l64.93 83.31a8 8 0 0 0 12.58-9.8l-64.93-83.31A7.94 7.94 0 0 0 134.2 301z"/><path d="M440.94 143.9c6.37-5.91 10.44-14.32 10-23.21-.71-16.13-12.26-30.87-30-29.76-15.13.94-154.5 10-173 11.2.15-14.92-10.83-26.06-24.14-26.06a24 24 0 0 0-21 12.65 23.33 23.33 0 0 0-11.4-3.07 24.1 24.1 0 0 0-23.17 18.44l-29.46.24c-12.67.8-22.77 12.31-22 25.13a23.17 23.17 0 0 0 6.04 14.54 23.91 23.91 0 0 0-6 15.11c-.34 12.6 9.56 23.74 22.14 24.21l28.39.17V257H82.48a21.19 21.19 0 0 0-19.35 11.94c-3.75 7.81-2.47 17.5 3.27 24.68l99.73 128c7 8.79 18 14.39 28.11 14.39H287c10.82 0 22.85-6.29 29.27-15.3l90.48-127.46a23.74 23.74 0 0 0 2.16-24.68A21.44 21.44 0 0 0 389.68 257H215.43v-46.71a23.48 23.48 0 0 0 8.35 1.6 24.29 24.29 0 0 0 24.07-23.76S405.63 196 421 196.93c16.87 1 29.39-13.72 29.91-30a30.24 30.24 0 0 0-9.97-23.03zm-301.16-23.65l27.6-.2v16h-27.25a7.91 7.91 0 0 1-7.47-7.5 8.06 8.06 0 0 1 7.12-8.3zm-.69 47.15c-3.14-.13-6.41-3.7-6.29-8s3.38-7.43 6.68-7.42h27.9v15.54zm250.59 105.49c5.58 0 7.4 6.31 4 11.05l-90.44 127.44c-3.37 4.73-10.69 8.62-16.24 8.62h-92.76c-5.57 0-12-3.74-15.54-8.25L78.86 283.62c-3.63-4.54-2-10.73 3.62-10.73h100.85V110.22a8.1 8.1 0 1 1 16.16 0v162.67zm-156.91-85.46a9 9 0 1 1-17.94 0v-86.91a9 9 0 1 1 17.94 0zM421.84 181l-173.92-8.83V152h174.39c6.55.52 12.92 6.95 12.7 14.42S428.75 181 421.84 181zm.39-45H247.92v-17.9l174.87-11.28c7.32-.48 12.31 7.12 12.64 14.61s-6.21 13.99-13.2 14.57z"/></symbol><symbol viewBox="0 0 512 512" id="paypal" xmlns="http://www.w3.org/2000/svg"><path d="M434 157.37a73.24 73.24 0 0 0-27.09-28.72l-2.14-1.18c0 .23.26.47.26.72q9.33 17.44 9.31 44.16c0 40.14-16.69 72.42-50 97.14s-80 37.05-140 37.05h-14c-10.52 0-21.06 8.42-23.44 18.68l-16.84 72.71c-2.32 10.28-12.92 18.71-23.47 18.71h-32.8l-2.36 10.68c-2.37 10.3 4.31 18.68 14.82 18.68h49.15l.19-.28c10.45 0 20.91-8.32 23.27-18.53l16.87-72.91c2.37-10.47 13-18.78 23.49-18.78h14.25c59.84 0 106.62-12.33 139.87-36.8 33.49-24.71 50.1-57 50.1-97.13 0-17.57-3.07-32.32-9.44-44.2z"/><path d="M132.76 402.76c10.58 0 21.15-8.33 23.51-18.56l16.8-72.66c2.38-10.21 13-18.51 23.4-18.51h14c59.85 0 106.66-12.11 139.91-36.82q50.17-36.7 50.09-96.89 0-26.52-9.24-44.28c-5.94-11.82-15.22-21.43-26.87-28.79-12.1-7.46-26.11-12.68-42.5-15.67S286.17 66 264.08 66H161.72c-10.55 0-21.06 8.38-23.45 18.72L69 384.65c-2.34 10.3 4.32 18.68 14.82 18.68H133zm63.93-192.14L211.42 147c2.34-10.27 12.89-18.65 23.43-18.65h16.06-.3c18.77 0 33 3.19 42.52 9.58s14.25 16 14.25 29.14q0 29.86-22.08 46.1c-14.73 10.74-35.41 16.17-61.75 16.17h-12.13c-10.42-.05-17.1-8.46-14.73-18.72z"/></symbol><symbol viewBox="0 0 512 512" id="present" xmlns="http://www.w3.org/2000/svg"><path d="M410.49 168H353.4l9.47-9.47A51.51 51.51 0 0 0 290 85.71l-34 34.06-34.05-34a51.5 51.5 0 1 0-72.84 72.82l9.47 9.48h-57.09A25.51 25.51 0 0 0 76 193.52v38.74a25.45 25.45 0 0 0 17.27 24 25.42 25.42 0 0 0-2.21 10.31v149.3a25.51 25.51 0 0 0 25.48 25.5h278.9a25.53 25.53 0 0 0 25.5-25.5V266.58a25.11 25.11 0 0 0-2.23-10.31 25.44 25.44 0 0 0 17.29-24v-38.75A25.53 25.53 0 0 0 410.49 168zM161.22 97.84a34.35 34.35 0 0 1 48.56 0L256 144.05l46.21-46.21a34.34 34.34 0 0 1 48.55 48.57L329.11 168h-36.78l40-40a8.33 8.33 0 1 0-11.79-11.78L268.76 168h-25.6l-51.78-51.78A8.33 8.33 0 0 0 179.6 128l40 40h-36.76l-21.62-21.61a34.35 34.35 0 0 1 0-48.55zm62.83 326.87H116.54a8.85 8.85 0 0 1-8.82-8.84V266.58a8.84 8.84 0 0 1 8.82-8.83h107.51zm0-183.63H101.49a8.83 8.83 0 0 1-8.82-8.82v-38.74a8.83 8.83 0 0 1 8.82-8.83h122.56zm47.22 183.63h-30.55v-240h30.55zm133-8.84a8.86 8.86 0 0 1-8.84 8.84h-107.5v-167h107.51a8.85 8.85 0 0 1 8.84 8.83zm15.05-183.61a8.85 8.85 0 0 1-8.84 8.82H287.93v-56.39h122.56a8.85 8.85 0 0 1 8.84 8.83z"/></symbol><symbol viewBox="0 0 512 512" id="qranoko" xmlns="http://www.w3.org/2000/svg"><path d="M122.56 246.76c2.89 0 5.54-1.63 7.44-4.6a19.51 19.51 0 0 0 0-19.6c-1.9-3-4.55-4.6-7.44-4.6s-5.54 1.63-7.44 4.6a19.51 19.51 0 0 0 0 19.6c1.88 2.97 4.55 4.6 7.44 4.6z"/><path d="M148 313c48 0 96-24.91 96-79.68 0-32.62-19.2-62.4-52.8-77.76C148 133 157 121 148 121s0 12-43.2 34.56C71.2 170.92 52 200.7 52 233.32c0 54.77 48 79.68 96 79.68zm0-147.84c7.95 0 14.4 4.51 14.4 10.08s-6.4 10.08-14.4 10.08-14.4-4.51-14.4-10.08 6.45-10.08 14.4-10.08zm0 34.56c37.11 0 67.2 23.21 67.2 51.84S185.11 303.4 148 303.4s-67.2-23.21-67.2-51.84 30.09-51.84 67.2-51.84z"/><path d="M121 272.15a8.94 8.94 0 0 1 4.36 5.83 18.12 18.12 0 0 0 2.23 5.44c1.82 2.93 5.45 6.61 12.34 7.55a22.74 22.74 0 0 0 4.49.43 24.55 24.55 0 0 0 7.34-1.11c4.3-1.34 10.38-4.61 14.92-12.59a40.1 40.1 0 0 1 2.48-4.05l.66-.07c5.88-.71 11.31-3.61 16.14-8.61a7 7 0 0 0 .25-9.29 5.88 5.88 0 0 0-8.83-.28c-3.29 3.41-6.7 5.07-10.42 5.07a15.94 15.94 0 0 1-6.44-1.5 31.41 31.41 0 0 1-9.34-6.76 6 6 0 0 0-4.49-2.09h-.37a6.11 6.11 0 0 0-4.6 2.66c-3.67 5.31-7.44 8.07-11.19 8.2h-.29c-6 0-11.13-6.34-11.17-6.39a5.91 5.91 0 0 0-8.8-.75 7 7 0 0 0-.69 9.27 33.24 33.24 0 0 0 11.42 9.04zm19.9-.86a28 28 0 0 0 3.61-2.55 5.23 5.23 0 0 1 3.32-1.19 4.57 4.57 0 0 1 2.56.74 38.4 38.4 0 0 0 5.08 2.82l.11.05a8.42 8.42 0 0 1-1.67 2.72 12.46 12.46 0 0 1-5.29 3.55 13 13 0 0 1-4.2.68 11.78 11.78 0 0 1-2.11-.18 5.68 5.68 0 0 0-.68-.13c-1.9-.23-3.17-.82-3.76-1.77a4.69 4.69 0 0 1-.61-1.72c.06-.31.82-1.31 3.64-3.02zM173.44 246.76c2.89 0 5.54-1.63 7.44-4.6a19.51 19.51 0 0 0 0-19.6c-1.9-3-4.55-4.6-7.44-4.6s-5.54 1.63-7.44 4.6a19.51 19.51 0 0 0 0 19.6c1.9 2.97 4.55 4.6 7.44 4.6zM305.39 304.82c1.28 3.56 4 7.95 9.66 8.17 2.31.09 6.35-.53 9.8-5.1 10.82 1.1 23.67 1.64 39.15 1.64s28.33-.54 39.15-1.64c3.26 4.31 7 5.11 9.39 5.11h.46c5.66-.22 8.38-4.61 9.66-8.17 12.87-3 22.06-7.54 28.07-14 6.27-6.69 9.27-15.63 9.27-27.3a62.93 62.93 0 0 0-16.87-42.89c-.41-16.41-3.72-27.56-7.72-35.1a42.12 42.12 0 0 0-5.88-52.2 42.12 42.12 0 0 0-59.57 0l-6 6-6-6a42.12 42.12 0 0 0-59.57 0 42.12 42.12 0 0 0-5.88 52.2c-4 7.54-7.31 18.69-7.72 35.1A62.93 62.93 0 0 0 268 263.53c0 11.67 3.05 20.61 9.32 27.33 6.01 6.42 15.2 11 28.07 13.96zm126.77-139.18a4.8 4.8 0 1 1-4.8-4.8 4.8 4.8 0 0 1 4.8 4.8zm-32.41-35a32.51 32.51 0 0 1 30.13 20.29 4.8 4.8 0 0 1-8.9 3.6 22.92 22.92 0 0 0-21.23-14.29 4.8 4.8 0 0 1 0-9.6zm-107.39 95.59a4.72 4.72 0 0 0 1.57-3.5c.31-29.23 10.26-39.15 14.51-42.06 3.82-2.6 6.82-2.45 7.88-2 3.54 1.51 10 13.22 13.88 23.21a4.51 4.51 0 0 0 5.44 2.79c12.42-3.53 28.2-3.58 28.36-3.58s15.91 0 28.36 3.58a4.51 4.51 0 0 0 5.44-2.79c3.84-10 10.34-21.7 13.88-23.21 1.06-.45 4.06-.6 7.88 2 4.25 2.91 14.2 12.83 14.51 42.06a4.78 4.78 0 0 0 1.56 3.49 53.65 53.65 0 0 1 15.27 37.31c0 9.25-2.15 15.86-6.77 20.81-5.09 5.44-13.6 9.32-26 11.86a4.63 4.63 0 0 0-3.57 3.67c-.12.61-.8 3.69-1.95 3.74-1.31.06-2.45-1.57-3.18-2.93a4.53 4.53 0 0 0-4-2.45 4.07 4.07 0 0 0-.5 0 365.42 365.42 0 0 1-40.93 1.91 365.42 365.42 0 0 1-40.93-1.88 4.48 4.48 0 0 0-4.49 2.42c-.73 1.36-1.86 3-3.18 2.93-1.15-.05-1.83-3.13-1.95-3.74a4.63 4.63 0 0 0-3.57-3.67c-12.41-2.54-20.92-6.42-26-11.86-4.62-4.95-6.77-11.56-6.77-20.81a53.65 53.65 0 0 1 15.25-37.3z"/><path d="M305.92 275.08c11.93 0 21.6-8.23 21.6-20.16s-9.67-23-21.6-23-21.6 11.11-21.6 23 9.68 20.16 21.6 20.16zM422.08 274.6c11.93 0 21.6-8.23 21.6-20.16s-9.67-23-21.6-23-21.6 11.11-21.6 23 9.67 20.16 21.6 20.16zM331.84 236c1.77.31 3.59-.64 5.15-2.67a18 18 0 0 0 2.61-14.8c-.77-2.44-2.16-4-3.92-4.27s-3.59.64-5.15 2.67a18 18 0 0 0-2.61 14.8c.77 2.47 2.16 3.99 3.92 4.27zM392.32 236c1.77.31 3.59-.64 5.15-2.67a18 18 0 0 0 2.61-14.8c-.77-2.44-2.16-4-3.92-4.27s-3.59.64-5.15 2.67a18 18 0 0 0-2.61 14.8c.77 2.47 2.16 3.99 3.92 4.27zM350.19 252.82c.51 9 2.75 15.33 6.67 18.88a10.52 10.52 0 0 0 7 2.9h.3a10.52 10.52 0 0 0 7-2.9c4-3.61 6.23-10.12 6.69-19.36 4-1 6.74-3 8.27-6.05 3.27-6.54.58-11.21-2.21-15.08a4.32 4.32 0 0 0-7 5c2.57 3.58 2.39 4.38 1.5 6.18-.62 1.23-3.06 1.93-6.69 1.93-.79-.07-3.37-2.76-3.37-8.16a4.32 4.32 0 1 0-8.64 0c0 5.94-4.42 8.16-7.2 8.16-1.34 0-3.36 0-3.36-4.32a8 8 0 0 1 1.55-4.69 4.32 4.32 0 0 0-6.11-6.11c-2.82 2.81-4.08 7.45-4.08 10.8-.03 7.06 3.71 11.85 9.68 12.82zm13.26-4.41a11.41 11.41 0 0 0 5.71 4.21c-.64 10.37-3.77 13.18-5 13.34h-.32c-1.27-.16-4.56-3.15-5-14.34a16.25 16.25 0 0 0 4.61-3.21zM162.49 363.14a13.37 13.37 0 0 0 2.78-8.6 14.64 14.64 0 0 0-1.64-7.25 13.22 13.22 0 0 0-4.37-4.69 18.43 18.43 0 0 0-6.18-2.53 33.89 33.89 0 0 0-7.08-.74h-19.19v50.32h11.87v-20h4.15l10.92 20H168l-13.15-21.54a15 15 0 0 0 7.64-4.97zm-10.06-5.26a5.57 5.57 0 0 1-2.1 1.85 10.18 10.18 0 0 1-2.86.89 20.34 20.34 0 0 1-3.07.24h-5.79v-11.72h6.5a19.74 19.74 0 0 1 2.82.21 8.33 8.33 0 0 1 2.64.82 5.1 5.1 0 0 1 1.93 1.7 5 5 0 0 1 .75 2.88 5.45 5.45 0 0 1-.82 3.13zM193.9 339.33l-21.11 50.32H186l3.7-9.88h19.47l3.91 9.88h13.52l-20.9-50.32zm-.71 30.7l6.4-17.27 6.25 17.24zM267.67 372.17h-.22l-20.18-32.84h-13.86v50.32h11.8l-.29-32.91h.21l20.26 32.91h13.79v-50.32h-11.8zM335.68 345.08a25.45 25.45 0 0 0-8.7-5.25A31.47 31.47 0 0 0 316 338a31.12 31.12 0 0 0-10.91 1.85 25.5 25.5 0 0 0-8.67 5.25 23.88 23.88 0 0 0-5.72 8.29 27.59 27.59 0 0 0-2.06 10.91 28 28 0 0 0 2.06 10.91 24.73 24.73 0 0 0 5.72 8.45 25.47 25.47 0 0 0 8.67 5.44A30.25 30.25 0 0 0 316 391a30.59 30.59 0 0 0 11-1.92 25.41 25.41 0 0 0 8.7-5.44 24.89 24.89 0 0 0 5.73-8.45 28.16 28.16 0 0 0 2.06-10.91 27.77 27.77 0 0 0-2.06-10.91 24 24 0 0 0-5.75-8.29zm-6.29 25.49a14.7 14.7 0 0 1-3 4.94 13.92 13.92 0 0 1-4.55 3.23 15.11 15.11 0 0 1-11.66 0 13.55 13.55 0 0 1-4.51-3.23 15 15 0 0 1-2.95-4.94 18 18 0 0 1-1.07-6.29 17.79 17.79 0 0 1 1-6.12 13.9 13.9 0 0 1 2.94-4.87 14.07 14.07 0 0 1 10.41-4.37 14.32 14.32 0 0 1 5.87 1.18 13.55 13.55 0 0 1 4.54 3.19 14.54 14.54 0 0 1 2.95 4.87 17.34 17.34 0 0 1 1.07 6.12 18 18 0 0 1-1.04 6.29zM397.56 339.33h-15.21l-17.98 20.47h-.22v-20.47h-11.87v50.32h11.87v-23.17h.15l18.69 23.17h15.85l-22.96-27.15zM446.22 345.08a25.49 25.49 0 0 0-8.71-5.25 33.21 33.21 0 0 0-21.86 0 25.5 25.5 0 0 0-8.67 5.25 24 24 0 0 0-5.72 8.29 27.77 27.77 0 0 0-2.06 10.91 28.16 28.16 0 0 0 2.06 10.91 24.87 24.87 0 0 0 5.72 8.45 25.47 25.47 0 0 0 8.67 5.44 32.07 32.07 0 0 0 21.86 0 25.46 25.46 0 0 0 8.71-5.44 24.87 24.87 0 0 0 5.72-8.45 28.16 28.16 0 0 0 2.06-10.91 27.77 27.77 0 0 0-2.06-10.91 24 24 0 0 0-5.72-8.29zm-6.29 25.49a14.72 14.72 0 0 1-3 4.94 13.82 13.82 0 0 1-4.55 3.23 15.09 15.09 0 0 1-11.65 0 13.49 13.49 0 0 1-4.52-3.23 15.14 15.14 0 0 1-3-4.94 18 18 0 0 1-1.06-6.29 17.79 17.79 0 0 1 1-6.12 13.77 13.77 0 0 1 2.95-4.87 14.07 14.07 0 0 1 10.37-4.37 14.28 14.28 0 0 1 5.87 1.18 13.59 13.59 0 0 1 4.55 3.19 14.7 14.7 0 0 1 2.95 4.87 17.34 17.34 0 0 1 1.06 6.12 18 18 0 0 1-.97 6.29zM104.91 380a19.21 19.21 0 0 0 2.7-2.66 19.86 19.86 0 0 0 2.42-3.66 21.09 21.09 0 0 0 1.7-4.59 21.85 21.85 0 0 0 .64-5.43 26.24 26.24 0 0 0-2-10.42 23.74 23.74 0 0 0-5.65-8.1 26.12 26.12 0 0 0-8.6-5.26c-10.82-5.6-8.56-8.86-10.82-8.86s0 3.25-10.78 8.84h-.06a25.94 25.94 0 0 0-8.67 5.3 24.07 24.07 0 0 0-5.72 8.17A26.29 26.29 0 0 0 58 363.85a29 29 0 0 0 2 11 22.68 22.68 0 0 0 5.48 8.1 22.94 22.94 0 0 0 8.49 5 33.53 33.53 0 0 0 11 1.71h30.53V380l-10.59.22zm-6.47-9.77a14.3 14.3 0 0 1-3 4.83 13.23 13.23 0 0 1-4.55 3.13 15.34 15.34 0 0 1-11.41 0A13 13 0 0 1 75 375a14.3 14.3 0 0 1-2.91-4.83 17.84 17.84 0 0 1-1-6.22 16.7 16.7 0 0 1 1.06-6 13.91 13.91 0 0 1 3-4.76 13.44 13.44 0 0 1 4.51-3.09 14.2 14.2 0 0 1 5.63-1.1 14.64 14.64 0 0 1 5.76 1.11 13 13 0 0 1 4.51 3.09 13.76 13.76 0 0 1 2.92 4.8 18.42 18.42 0 0 1 0 12.26z"/></symbol><symbol viewBox="0 0 512 512" id="twitter" xmlns="http://www.w3.org/2000/svg"><path d="M478.62 117.61A186.27 186.27 0 0 1 426 132.05a92.38 92.38 0 0 0 40.3-50.72 189.33 189.33 0 0 1-58.24 22 91.61 91.61 0 0 0-158.51 62.54 93.65 93.65 0 0 0 2.36 20.94C175.74 183.26 108.23 146.69 63 91.39a89.82 89.82 0 0 0-12.4 46.09 91.65 91.65 0 0 0 40.75 76.29A91.28 91.28 0 0 1 49.9 202.3v1.13a91.68 91.68 0 0 0 73.49 89.9 92.44 92.44 0 0 1-41.2 1.59 91.93 91.93 0 0 0 85.75 63.63 183.77 183.77 0 0 1-113.65 39.21 194.39 194.39 0 0 1-21.79-1.25 260.67 260.67 0 0 0 140.74 41.14C341.87 437.65 434 298 434 177.17c0-3.89 0-7.82-.28-11.73A185 185 0 0 0 479.5 118z"/></symbol></svg>