<?xml version="1.0" encoding="utf-8"?><svg xmlns="http://www.w3.org/2000/svg" xmlns:xlink="http://www.w3.org/1999/xlink"><symbol viewBox="0 0 512 512" id="dot" xmlns="http://www.w3.org/2000/svg"><circle cx="256" cy="256" r="80"/></symbol><symbol viewBox="0 0 512 512" id="download" xmlns="http://www.w3.org/2000/svg"><path d="M256 383.5a28.18 28.18 0 0 0 20-8.27l131.33-131.36a28.24 28.24 0 0 0 0-39.94 28.26 28.26 0 0 0-39.94 0l-84.47 84.48v-201A26.92 26.92 0 0 0 256 60.5a26.92 26.92 0 0 0-26.92 26.92v201l-84.47-84.48a28.26 28.26 0 0 0-39.94 0 28.24 28.24 0 0 0 0 39.94L236 375.23a28.18 28.18 0 0 0 20 8.27z"/><rect height="51" rx="25.5" width="340" x="86" y="400.5"/></symbol><symbol viewBox="0 0 512 512" id="external-link" xmlns="http://www.w3.org/2000/svg"><path d="M392 251a25 25 0 0 0-25 25v131H105V145h147a25 25 0 0 0 0-50H80a25 25 0 0 0-25 25v312a25 25 0 0 0 25 25h312a25 25 0 0 0 25-25V276a25 25 0 0 0-25-25z"/><path d="M457 79.83v-1.06c0-.35 0-.43-.05-.64s0-.39 0-.58l-.09-.77-.06-.43c0-.28-.09-.55-.14-.82l-.06-.38-.18-.82-.09-.37c-.06-.26-.14-.52-.21-.78l-.11-.41-.24-.71-.15-.46-.24-.64-.21-.52c-.07-.19-.16-.37-.24-.55s-.17-.4-.26-.59-.16-.31-.23-.47l-.33-.64-.23-.4c-.12-.22-.25-.44-.38-.66s-.15-.25-.23-.37l-.42-.67-.25-.35-.45-.64-.31-.39-.44-.57-.43-.49c-.12-.14-.24-.29-.37-.43a24.08 24.08 0 0 0-1.75-1.75l-.42-.37c-.17-.14-.33-.29-.51-.43l-.55-.44-.4-.31-.63-.44c-.12-.09-.24-.18-.37-.26l-.66-.42c-.12-.08-.24-.16-.37-.23s-.43-.26-.66-.38l-.48-.19-.63-.32-.47-.24-.58-.26c-.19-.08-.37-.17-.56-.24l-.51-.21-.65-.24-.4-.19-.73-.24-.39-.11-.79-.21-.37-.09-.82-.18-.38-.06-.82-.14-.44-.06-.76-.09H334a25 25 0 0 0 0 50h37.64l-153.32 153.2a25 25 0 0 0 35.36 35.36L407 140.36V178a25 25 0 0 0 50 0z"/></symbol><symbol viewBox="0 0 512 512" id="github" xmlns="http://www.w3.org/2000/svg"><path d="M256 41.45c-121.55 0-220 98.5-220 220a220 220 0 0 0 150.42 208.72c11 2.07 15-4.73 15-10.58 0-5.22-.19-19.06-.28-37.4-61.19 13.28-74.1-29.51-74.1-29.51-10-25.39-24.48-32.18-24.48-32.18-19.92-13.64 1.55-13.36 1.55-13.36 22.09 1.54 33.69 22.66 33.69 22.66 19.62 33.64 51.5 23.92 64.08 18.29 2-14.22 7.64-23.92 13.93-29.42C167 353.17 115.64 334.25 115.64 250c0-24 8.53-43.63 22.64-59-2.47-5.56-9.9-27.92 1.93-58.23 0 0 18.42-5.9 60.5 22.55a207.55 207.55 0 0 1 110 0c41.8-28.45 60.22-22.55 60.22-22.55 11.83 30.31 4.4 52.67 2.2 58.23 14 15.4 22.55 35 22.55 59 0 84.52-51.42 103.13-100.37 108.54 7.7 6.6 14.85 20.09 14.85 40.7 0 29.44-.28 53.09-.28 60.24 0 5.77 3.85 12.65 15.13 10.45A219.24 219.24 0 0 0 476 261.45c0-121.5-98.51-220-220-220"/></symbol><symbol viewBox="0 0 512 512" id="ie" xmlns="http://www.w3.org/2000/svg"><path d="M476 266.12a196.79 196.79 0 0 0-24.76-95.85c67.22-152.13-72-129.85-79.78-128.33a354.46 354.46 0 0 0-82 26.78c-3.71-.2-7.44-.32-11.21-.32-93.95 0-172.6 65.53-192.73 153.38 49.52-55.55 84.18-78 104.93-86.94q-5 4.44-9.74 9c-1.06 1-2.09 2-3.13 3-2.11 2-4.21 4-6.26 6.09-1.22 1.21-2.4 2.44-3.6 3.66-1.82 1.85-3.64 3.7-5.41 5.57-1.26 1.32-2.49 2.64-3.73 4-1.66 1.77-3.31 3.55-4.92 5.33q-1.89 2.08-3.73 4.17-2.3 2.58-4.55 5.18a470.08 470.08 0 0 0-3.69 4.3c-1.42 1.68-2.83 3.36-4.21 5-1.23 1.49-2.46 3-3.66 4.45s-2.57 3.21-3.84 4.81-2.46 3.09-3.66 4.64-2.25 2.94-3.37 4.41c-1.26 1.66-2.54 3.32-3.77 5-.88 1.18-1.72 2.35-2.58 3.53-7.82 10.66-15 21.11-21.4 31.15v.08c-1.7 2.64-3.33 5.25-4.94 7.83-.09.14-.18.28-.26.42-1.61 2.6-3.16 5.14-4.67 7.67-.06.08-.11.17-.17.26-4.06 6.79-7.83 13.33-11.23 19.49-17.84 32.25-26.51 54.8-26.88 56.12-56.24 201 119.27 116.14 143.76 103.47a197.84 197.84 0 0 0 273.81-111.14H360.73c-15.37 26-45 43.56-79 43.56-49.81 0-90.19-37.74-90.19-84.3h282.8a200.07 200.07 0 0 0 1.66-25.47zM439.06 71.55c17 11.5 30.68 29.54 7.23 90.32a198.46 198.46 0 0 0-96.56-80.15c18.27-8.84 63.61-27.53 89.33-10.17zM77.21 443.08c-13.87-14.22-16.32-48.86 14.28-112a198.28 198.28 0 0 0 86.09 105.22c-19.81 10.9-72.4 35.45-100.37 6.76zm113.91-205.57c1.58-45.25 41-81.48 89.35-81.48s87.77 36.23 89.35 81.48z"/></symbol><symbol viewBox="0 0 512 512" id="twitter" xmlns="http://www.w3.org/2000/svg"><path d="M478.62 117.61A186.27 186.27 0 0 1 426 132.05a92.38 92.38 0 0 0 40.3-50.72 189.33 189.33 0 0 1-58.24 22 91.61 91.61 0 0 0-158.51 62.54 93.65 93.65 0 0 0 2.36 20.94C175.74 183.26 108.23 146.69 63 91.39a89.82 89.82 0 0 0-12.4 46.09 91.65 91.65 0 0 0 40.75 76.29A91.28 91.28 0 0 1 49.9 202.3v1.13a91.68 91.68 0 0 0 73.49 89.9 92.44 92.44 0 0 1-41.2 1.59 91.93 91.93 0 0 0 85.75 63.63 183.77 183.77 0 0 1-113.65 39.21 194.39 194.39 0 0 1-21.79-1.25 260.67 260.67 0 0 0 140.74 41.14C341.87 437.65 434 298 434 177.17c0-3.89 0-7.82-.28-11.73A185 185 0 0 0 479.5 118z"/></symbol></svg>